{
.appVersion = "1348";
DisplayStrings = (
"/space JUNCTION/space",
"the/space quick/space brown/space fox/space jumps\012over/space the/space lazy/space dog\012\012amazingly/space few/space discotheques/space provide/space jukeboxes\012\012we/space just/space experienced/space the/space very/space quiet/space book/space fair/space ly"
);
classes = (
{
automatic = 1;

glyphs = (
{
glyphname = A;
lastChange = "2020-10-27 00:07:49 +0000";
layers = (
{
anchors = (
{
name = bottom;
position = "{685, 0}";
},
{
name = ogonek;
position = "{1333, 0}";
},
{
name = top;
position = "{691, 1540}";
}
);
layerId = "E12CB17E-1EC8-4945-BD17-D29BF6B71E7F";
paths = (
{
closed = 1;
nodes = (
"183 0 LINE",
"383 538 LINE",
"1005 538 LINE",
"1205 0 LINE",
"1333 0 LINE",
"767 1540 LINE",
"623 1540 LINE",
"55 0 LINE"
);
},
{
closed = 1;
nodes = (
"595 1115 OFFCURVE",
"677 1357 OFFCURVE",
"691 1410 CURVE",
"709 1350 OFFCURVE",
"793 1115 OFFCURVE",
"963 652 CURVE",
"423 652 LINE"
);
}
);
width = 1388;
},
{
anchors = (
{
name = bottom;
position = "{727, 0}";
},
{
name = ogonek;
position = "{1432, 0}";
},
{
name = top;
position = "{711, 1540}";
}
);
layerId = master01;
paths = (
{
closed = 1;
nodes = (
"316 0 LINE",
"486 500 LINE",
"922 500 LINE",
"1098 0 LINE",
"1432 0 LINE",
"864 1540 LINE",
"578 1540 LINE {name = hr00;}",
"10 0 LINE"
);
},
{
closed = 1;
nodes = (
"663 1006 OFFCURVE",
"705 1144 OFFCURVE",
"710 1210 CURVE",
"714 1144 OFFCURVE",
"757 1005 OFFCURVE",
"854 716 CURVE",
"566 716 LINE"
);
}
);
width = 1442;
}
);
leftKerningGroup = A;
rightKerningGroup = A;
unicode = 0041;
},
{
glyphname = AE;
lastChange = "2020-10-27 00:07:49 +0000";
layers = (
{
anchors = (
{
name = bottom;
position = "{904, 0}";
},
{
name = top;
position = "{904, 1540}";
}
);
components = (
{
alignment = -1;
name = E;
transform = "{1, 0, 0, 1, 738, 0}";
}
);
layerId = "E12CB17E-1EC8-4945-BD17-D29BF6B71E7F";
paths = (
{
closed = 1;
nodes = (
"987 1540 LINE",
"843 1540 LINE",
"55 0 LINE",
"183 0 LINE",
"911 1410 LINE"
);
},
{
closed = 1;
nodes = (
"414 538 LINE",
"966 538 LINE",
"966 654 LINE",
"454 654 LINE"
);
}
);
width = 1808;
},
{
anchors = (
{
name = bottom;
position = "{1005, 0}";
},
{
name = top;
position = "{1005, 1540}";
}
);
components = (
{
name = E;
transform = "{1, 0, 0, 1, 853, 0}";
}
);
layerId = master01;
paths = (
{
closed = 1;
nodes = (
"1125 1540 LINE",
"839 1540 LINE {name = hr00;}",
"10 0 LINE",
"316 0 LINE",
"971 1210 LINE"
);
},
{
closed = 1;
nodes = (
"450 450 LINE",
"1092 450 LINE",
"1092 662 LINE",
"490 662 LINE"
);
}
);
width = 2009;
}
);
leftKerningGroup = A;
leftMetricsKey = A;
rightKerningGroup = E;
rightMetricsKey = E;
unicode = 00C6;
},
{
glyphname = B;
lastChange = "2020-10-27 00:07:49 +0000";
layers = (
{
anchors = (
{
name = bottom;
position = "{601, 0}";
},
{
name = top;
position = "{601, 1540}";
}
);
layerId = "E12CB17E-1EC8-4945-BD17-D29BF6B71E7F";
paths = (
{
closed = 1;
nodes = (
"598 0 LINE SMOOTH",
"1110 0 OFFCURVE",
"1114 328 OFFCURVE",
"1114 446 CURVE SMOOTH",
"1114 651 OFFCURVE",
"960 773 OFFCURVE",
"814 790 CURVE",
"942 832 OFFCURVE",
"1040 974 OFFCURVE",
"1040 1126 CURVE SMOOTH",
"1040 1444 OFFCURVE",
"838 1550 OFFCURVE",
"572 1550 CURVE SMOOTH",
"483 1550 OFFCURVE",
"374 1539 OFFCURVE",
"280 1529 CURVE SMOOTH",
"160 1516 LINE",
"160 0 LINE"
);
},
{
closed = 1;
nodes = (
"280 720 LINE",
"624 720 LINE SMOOTH",
"954 720 OFFCURVE",
"994 520 OFFCURVE",
"994 446 CURVE SMOOTH",
"994 326 OFFCURVE",
"988 119 OFFCURVE",
"598 119 CURVE SMOOTH",
"280 119 LINE"
);
},
{
closed = 1;
nodes = (
"280 1406 LINE",
"370 1420 OFFCURVE",
"474 1432 OFFCURVE",
"568 1432 CURVE SMOOTH",
"804 1432 OFFCURVE",
"926 1360 OFFCURVE",
"926 1130 CURVE SMOOTH",
"926 858 OFFCURVE",
"718 836 OFFCURVE",
"460 836 CURVE SMOOTH",
"280 836 LINE"
);
}
);
width = 1222;
},
{
anchors = (
{
name = bottom;
position = "{655, 0}";
},
{
name = top;
position = "{655, 1540}";
}
);
layerId = master01;
paths = (
{
closed = 1;
nodes = (
"632 0 LINE SMOOTH",
"1125 0 OFFCURVE",
"1211 232 OFFCURVE",
"1211 448 CURVE SMOOTH",
"1211 652 OFFCURVE",
"1075 764 OFFCURVE",
"998 802 CURVE",
"1072 868 OFFCURVE",
"1138 984 OFFCURVE",
"1138 1120 CURVE SMOOTH",
"1138 1458 OFFCURVE",
"910 1550 OFFCURVE",
"608 1550 CURVE SMOOTH {name = hr00;}",
"552 1550 OFFCURVE",
"442 1540 OFFCURVE",
"356 1532 CURVE SMOOTH",
"140 1512 LINE",
"140 0 LINE"
);
},
{
closed = 1;
nodes = (
"422 668 LINE",
"656 668 LINE SMOOTH",
"839 668 OFFCURVE",
"914 576 OFFCURVE",
"914 448 CURVE SMOOTH",
"914 297 OFFCURVE",
"840 218 OFFCURVE",
"632 218 CURVE SMOOTH",
"422 218 LINE"
);
},
{
closed = 1;
nodes = (
"422 1322 LINE",
"482 1330 OFFCURVE",
"542 1334 OFFCURVE",
"604 1334 CURVE SMOOTH",
"777 1334 OFFCURVE",
"852 1283 OFFCURVE",
"852 1106 CURVE SMOOTH",
"852 957 OFFCURVE",
"785 886 OFFCURVE",
"631 886 CURVE SMOOTH",
"422 886 LINE"
);
}
);
width = 1296;
}
);
leftKerningGroup = H;
leftMetricsKey = H;
rightKerningGroup = B;
unicode = 0042;
},
{
glyphname = C;
lastChange = "2020-10-27 00:07:49 +0000";
layers = (
{
anchors = (
{
name = bottom;
position = "{679, 0}";
},
{
name = top;
position = "{679, 1540}";
}
);
layerId = "E12CB17E-1EC8-4945-BD17-D29BF6B71E7F";
paths = (
{
closed = 1;
nodes = (
"960 -30 OFFCURVE",
"1106 92 OFFCURVE",
"1196 182 CURVE",
"1106 272 LINE",
"1043 208 OFFCURVE",
"926 90 OFFCURVE",
"708 90 CURVE SMOOTH",
"456 90 OFFCURVE",
"230 318 OFFCURVE",
"230 734 CURVE SMOOTH",
"230 1244 OFFCURVE",
"474 1450 OFFCURVE",
"714 1450 CURVE SMOOTH",
"905 1450 OFFCURVE",
"1012 1340 OFFCURVE",
"1078 1260 CURVE",
"1168 1358 LINE",
"1110 1428 OFFCURVE",
"968 1570 OFFCURVE",
"716 1570 CURVE SMOOTH",
"394 1570 OFFCURVE",
"100 1320 OFFCURVE",
"100 734 CURVE SMOOTH",
"100 228 OFFCURVE",
"376 -30 OFFCURVE",
"704 -30 CURVE SMOOTH"
);
}
);
width = 1286;
},
{
anchors = (
{
name = bottom;
position = "{678, 0}";
},
{
name = top;
position = "{678, 1540}";
}
);
layerId = master01;
paths = (
{
closed = 1;
nodes = (
"967 -28 OFFCURVE",
"1150 126 OFFCURVE",
"1268 270 CURVE",
"1068 460 LINE",
"1007 355 OFFCURVE",
"886 202 OFFCURVE",
"704 202 CURVE SMOOTH",
"518 202 OFFCURVE",
"360 395 OFFCURVE",
"360 758 CURVE SMOOTH",
"360 1134 OFFCURVE",
"528 1338 OFFCURVE",
"710 1338 CURVE SMOOTH",
"846 1338 OFFCURVE",
"932 1250 OFFCURVE",
"1002 1140 CURVE",
"1208 1326 LINE {name = hr00;}",
"1138 1440 OFFCURVE",
"974 1568 OFFCURVE",
"722 1568 CURVE SMOOTH",
"388 1568 OFFCURVE",
"70 1298 OFFCURVE",
"70 748 CURVE SMOOTH",
"70 206 OFFCURVE",
"370 -28 OFFCURVE",
"700 -28 CURVE SMOOTH"
);
}
);
width = 1318;
}
);
leftKerningGroup = O;
leftMetricsKey = O;
rightKerningGroup = C;
unicode = 0043;
},
{
glyphname = D;
lastChange = "2020-10-27 00:07:49 +0000";
layers = (
{
anchors = (
{
name = bottom;
position = "{657, 0}";
},
{
name = center;
position = "{657, 770}";
},
{
name = top;
position = "{657, 1540}";
}
);
layerId = "E12CB17E-1EC8-4945-BD17-D29BF6B71E7F";
paths = (
{
closed = 1;
nodes = (
"612 0 LINE SMOOTH",
"974 0 OFFCURVE",
"1226 286 OFFCURVE",
"1226 770 CURVE SMOOTH",
"1226 1354 OFFCURVE",
"968 1550 OFFCURVE",
"554 1550 CURVE SMOOTH",
"436 1550 OFFCURVE",
"342 1527 OFFCURVE",
"160 1518 CURVE",
"160 0 LINE"
);
},
{
closed = 1;
nodes = (
"278 1402 LINE",
"308 1402 OFFCURVE",
"474 1426 OFFCURVE",
"558 1426 CURVE SMOOTH",
"972 1426 OFFCURVE",
"1098 1210 OFFCURVE",
"1098 760 CURVE SMOOTH",
"1098 358 OFFCURVE",
"896 118 OFFCURVE",
"612 118 CURVE SMOOTH",
"278 118 LINE"
);
}
);
width = 1326;
},
{
anchors = (
{
name = bottom;
position = "{733, 0}";
},
{
name = center;
position = "{733, 770}";
},
{
name = top;
position = "{733, 1540}";
}
);
layerId = master01;
paths = (
{
closed = 1;
nodes = (
"684 0 LINE SMOOTH",
"1070 0 OFFCURVE",
"1340 276 OFFCURVE",
"1340 760 CURVE SMOOTH",
"1340 1434 OFFCURVE",
"936 1550 OFFCURVE",
"656 1550 CURVE SMOOTH",
"538 1550 OFFCURVE",
"348 1531 OFFCURVE",
"140 1510 CURVE",
"140 0 LINE {name = hr00;}"
);
},
{
closed = 1;
nodes = (
"422 1320 LINE",
"462 1326 OFFCURVE",
"522 1334 OFFCURVE",
"596 1334 CURVE SMOOTH",
"958 1334 OFFCURVE",
"1050 1100 OFFCURVE",
"1050 760 CURVE SMOOTH",
"1050 422 OFFCURVE",
"896 218 OFFCURVE",
"684 218 CURVE SMOOTH",
"422 218 LINE"
);
}
);
width = 1410;
}
);
leftKerningGroup = H;
leftMetricsKey = H;
rightKerningGroup = O;
rightMetricsKey = O;
unicode = 0044;
},
{
glyphname = Eth;
lastChange = "2020-10-27 00:07:49 +0000";
layers = (
{
components = (
{
name = D;
transform = "{1, 0, 0, 1, 121, 0}";
}
);
layerId = "E12CB17E-1EC8-4945-BD17-D29BF6B71E7F";
paths = (
{
closed = 1;
nodes = (
"180 714 LINE",
"732 714 LINE",
"732 830 LINE",
"180 830 LINE"
);
}
);
width = 1447;
},
{
components = (
{
name = D;
transform = "{1, 0, 0, 1, 158, 0}";
}
);
layerId = master01;
paths = (
{
closed = 1;
nodes = (
"160 670 LINE",
"862 670 LINE",
"862 882 LINE",
"160 882 LINE"
);
}
);
width = 1568;
}
);
leftMetricsKey = "=D+20";
rightKerningGroup = O;
rightMetricsKey = D;
unicode = 00D0;
},
{
glyphname = E;
lastChange = "2020-10-27 00:07:49 +0000";
layers = (
{
anchors = (
{
name = bottom;
position = "{580, 0}";
},
{
name = ogonek;
position = "{994, 0}";
},
{
name = top;
position = "{580, 1540}";
},
{
name = topleft;
position = "{160, 1540}";
}
);
layerId = "E12CB17E-1EC8-4945-BD17-D29BF6B71E7F";
paths = (
{
closed = 1;
nodes = (
"994 0 LINE",
"994 128 LINE",
"940 122 OFFCURVE",
"890 120 OFFCURVE",
"810 120 CURVE SMOOTH",
"280 120 LINE",
"280 742 LINE",
"864 742 LINE",
"864 856 LINE",
"280 856 LINE",
"280 1420 LINE",
"966 1420 LINE",
"966 1546 LINE",
"910 1542 OFFCURVE",
"862 1540 OFFCURVE",
"782 1540 CURVE SMOOTH",
"160 1540 LINE",
"160 0 LINE"
);
}
);
width = 1070;
},
{
anchors = (
{
name = bottom;
position = "{610, 0}";
},
{
name = ogonek;
position = "{1066, 0}";
},
{
name = top;
position = "{610, 1540}";
},
{
name = topleft;
position = "{140, 1540}";
}
);
layerId = master01;
paths = (
{
closed = 1;
nodes = (
"1066 0 LINE",
"1066 238 LINE",
"965 226 OFFCURVE",
"898 222 OFFCURVE",
"810 222 CURVE SMOOTH",
"422 222 LINE",
"422 688 LINE",
"964 688 LINE",
"964 906 LINE",
"422 906 LINE",
"422 1320 LINE",
"1060 1320 LINE",
"1060 1558 LINE",
"963 1546 OFFCURVE",
"890 1540 OFFCURVE",
"802 1540 CURVE SMOOTH {name = hr01;}",
"140 1540 LINE",
"140 0 LINE"
);
}
);
width = 1156;
}
);
leftKerningGroup = H;
leftMetricsKey = H;
rightKerningGroup = E;
unicode = 0045;
},
{
glyphname = F;
lastChange = "2020-10-27 00:07:49 +0000";
layers = (
{
anchors = (
{
name = bottom;
position = "{518, 0}";
},
{
name = top;
position = "{518, 1540}";
}
);
layerId = "E12CB17E-1EC8-4945-BD17-D29BF6B71E7F";
paths = (
{
closed = 1;
nodes = (
"280 0 LINE",
"280 742 LINE",
"834 742 LINE",
"834 856 LINE",
"280 856 LINE",
"280 1420 LINE",
"966 1420 LINE",
"966 1546 LINE",
"917 1542 OFFCURVE",
"862 1540 OFFCURVE",
"782 1540 CURVE SMOOTH",
"160 1540 LINE",
"160 0 LINE"
);
}
);
width = 1026;
},
{
anchors = (
{
name = bottom;
position = "{559, 0}";
},
{
name = top;
position = "{559, 1540}";
}
);
layerId = master01;
paths = (
{
closed = 1;
nodes = (
"422 0 LINE",
"422 688 LINE",
"966 688 LINE",
"966 906 LINE",
"422 906 LINE",
"422 1320 LINE",
"1062 1320 LINE",
"1062 1558 LINE",
"964 1540 OFFCURVE",
"892 1540 OFFCURVE",
"804 1540 CURVE SMOOTH {name = hr01;}",
"140 1540 LINE",
"140 0 LINE"
);
}
);
width = 1104;
}
);
leftKerningGroup = H;
leftMetricsKey = H;
rightKerningGroup = F;
unicode = 0046;
},
{
glyphname = G;
lastChange = "2020-10-27 00:07:49 +0000";
layers = (
{
anchors = (
{
name = bottom;
position = "{724, 0}";
},
{
name = top;
position = "{724, 1540}";
}
);
layerId = "E12CB17E-1EC8-4945-BD17-D29BF6B71E7F";
paths = (
{
closed = 1;
nodes = (
"1000 -30 OFFCURVE",
"1232 102 OFFCURVE",
"1288 280 CURVE",
"1288 736 LINE",
"1024 736 LINE SMOOTH",
"924 736 OFFCURVE",
"819 740 OFFCURVE",
"756 752 CURVE",
"756 632 LINE",
"818 618 OFFCURVE",
"918 616 OFFCURVE",
"1016 616 CURVE SMOOTH",
"1168 616 LINE",
"1168 340 LINE",
"1131 203 OFFCURVE",
"976 90 OFFCURVE",
"766 90 CURVE SMOOTH",
"442 90 OFFCURVE",
"226 330 OFFCURVE",
"226 736 CURVE SMOOTH",
"226 1256 OFFCURVE",
"521 1452 OFFCURVE",
"785 1452 CURVE SMOOTH",
"968 1452 OFFCURVE",
"1081 1343 OFFCURVE",
"1150 1265 CURVE",
"1237 1361 LINE",
"1182 1426 OFFCURVE",
"1036 1570 OFFCURVE",
"784 1570 CURVE SMOOTH",
"486 1570 OFFCURVE",
"100 1342 OFFCURVE",
"100 736 CURVE SMOOTH",
"100 247 OFFCURVE",
"385 -30 OFFCURVE",
"774 -30 CURVE SMOOTH"
);
}
);
width = 1448;
},
{
anchors = (
{
name = bottom;
position = "{740, 0}";
},
{
name = top;
position = "{740, 1540}";
}
);
layerId = master01;
paths = (
{
closed = 1;
nodes = (
"1091 -28 OFFCURVE",
"1298 114 OFFCURVE",
"1340 221 CURVE",
"1340 792 LINE {name = hr00;}",
"988 792 LINE SMOOTH",
"936 792 OFFCURVE",
"859 797 OFFCURVE",
"784 815 CURVE",
"784 595 LINE",
"845 573 OFFCURVE",
"914 572 OFFCURVE",
"980 572 CURVE SMOOTH",
"1060 572 LINE",
"1060 299 LINE",
"1014 252 OFFCURVE",
"952 202 OFFCURVE",
"790 202 CURVE SMOOTH",
"420 202 OFFCURVE",
"360 520 OFFCURVE",
"360 738 CURVE SMOOTH",
"360 1182 OFFCURVE",
"606 1338 OFFCURVE",
"788 1338 CURVE SMOOTH",
"938 1338 OFFCURVE",
"1080 1260 OFFCURVE",
"1144 1140 CURVE",
"1330 1306 LINE",
"1250 1439 OFFCURVE",
"1054 1568 OFFCURVE",
"790 1568 CURVE SMOOTH",
"488 1568 OFFCURVE",
"70 1358 OFFCURVE",
"70 738 CURVE SMOOTH",
"70 420 OFFCURVE",
"192 -28 OFFCURVE",
"800 -28 CURVE SMOOTH"
);
}
);
width = 1480;
}
);
leftKerningGroup = G;
leftMetricsKey = O;
rightKerningGroup = H;
rightMetricsKey = H;
unicode = 0047;
},
{
glyphname = H;
lastChange = "2020-10-27 00:07:49 +0000";
layers = (
{
anchors = (
{
name = bottom;
position = "{671, 0}";
},
{
name = center;
position = "{671, 770}";
},
{
name = top;
position = "{671, 1540}";
},
{
name = topleft;
position = "{140, 1540}";
}
);
layerId = "E12CB17E-1EC8-4945-BD17-D29BF6B71E7F";
paths = (
{
closed = 1;
nodes = (
"280 0 LINE",
"280 740 LINE",
"1062 740 LINE",
"1062 0 LINE",
"1182 0 LINE",
"1182 1540 LINE",
"1062 1540 LINE",
"1062 854 LINE",
"280 854 LINE",
"280 1540 LINE",
"160 1540 LINE",
"160 0 LINE"
);
}
);
width = 1342;
},
{
anchors = (
{
name = bottom;
position = "{725, 0}";
},
{
name = center;
position = "{725, 770}";
},
{
name = top;
position = "{725, 1540}";
},
{
name = topleft;
position = "{140, 1540}";
}
);
layerId = master01;
paths = (
{
closed = 1;
nodes = (
"422 0 LINE {name = hr00;}",
"422 686 LINE",
"1022 686 LINE",
"1022 0 LINE",
"1304 0 LINE",
"1304 1540 LINE",
"1022 1540 LINE",
"1022 904 LINE",
"422 904 LINE",
"422 1540 LINE",
"140 1540 LINE",
"140 0 LINE"
);
}
);
width = 1444;
}
);
leftKerningGroup = H;
rightKerningGroup = H;
unicode = 0048;
},
{
glyphname = Hbar;
lastChange = "2020-10-27 00:07:49 +0000";
layers = (
{
components = (
{
name = H;
}
);
layerId = "E12CB17E-1EC8-4945-BD17-D29BF6B71E7F";
paths = (
{
closed = 1;
nodes = (
"77 1131 LINE",
"1269 1131 LINE",
"1269 1247 LINE",
"77 1247 LINE"
);
}
);
width = 1342;
},
{
components = (
{
name = H;
}
);
layerId = master01;
paths = (
{
closed = 1;
nodes = (
"38 1117 LINE",
"1401 1117 LINE",
"1401 1329 LINE",
"38 1329 LINE"
);
}
);
width = 1444;
}
);
unicode = 0126;
},
{
glyphname = I;
lastChange = "2020-10-27 00:07:49 +0000";
layers = (
{
anchors = (
{
name = bottom;
position = "{218, 0}";
},
{
name = ogonek;
position = "{280, 0}";
},
{
name = top;
position = "{218, 1540}";
},
{
name = topleft;
position = "{160, 1540}";
}
);
layerId = "E12CB17E-1EC8-4945-BD17-D29BF6B71E7F";
paths = (
{
closed = 1;
nodes = (
"280 0 LINE",
"280 1540 LINE",
"160 1540 LINE",
"160 0 LINE"
);
}
);
width = 440;
},
{
anchors = (
{
name = bottom;
position = "{282, 0}";
},
{
name = ogonek;
position = "{424, 0}";
},
{
name = top;
position = "{282, 1540}";
},
{
name = topleft;
position = "{140, 1540}";
}
);
layerId = master01;
paths = (
{
closed = 1;
nodes = (
"424 0 LINE {name = hr00;}",
"424 1540 LINE",
"140 1540 LINE",
"140 0 LINE"
);
}
);
width = 564;
}
);
leftKerningGroup = H;
leftMetricsKey = H;
rightKerningGroup = H;
rightMetricsKey = H;
unicode = 0049;
},
{
glyphname = J;
lastChange = "2020-10-27 00:07:49 +0000";
layers = (
{
anchors = (
{
name = bottom;
position = "{214, 0}";
},
{
name = top;
position = "{214, 1540}";
}
);
layerId = "E12CB17E-1EC8-4945-BD17-D29BF6B71E7F";
paths = (
{
closed = 1;
nodes = (
"82 -472 OFFCURVE",
"270 -354 OFFCURVE",
"270 -56 CURVE SMOOTH",
"270 1540 LINE",
"150 1540 LINE",
"150 -56 LINE SMOOTH",
"150 -252 OFFCURVE",
"26 -358 OFFCURVE",
"-100 -402 CURVE",
"-48 -522 LINE"
);
}
);
width = 430;
},
{
anchors = (
{
name = bottom;
position = "{235, 0}";
},
{
name = top;
position = "{235, 1540}";
}
);
layerId = master01;
paths = (
{
closed = 1;
nodes = (
"164 -433 OFFCURVE",
"408 -297 OFFCURVE",
"408 4 CURVE SMOOTH",
"408 1540 LINE",
"126 1540 LINE {name = hr00;}",
"126 4 LINE SMOOTH",
"126 -92 OFFCURVE",
"47 -204 OFFCURVE",
"-120 -286 CURVE",
"-18 -514 LINE"
);
}
);
width = 548;
}
);
leftKerningGroup = J;
rightKerningGroup = H;
rightMetricsKey = H;
unicode = 004A;
},
{
glyphname = K;
lastChange = "2020-10-27 00:07:49 +0000";
layers = (
{
anchors = (
{
name = bottom;
position = "{593, 0}";
},
{
name = top;
position = "{593, 1540}";
}
);
layerId = "E12CB17E-1EC8-4945-BD17-D29BF6B71E7F";
paths = (
{
closed = 1;
nodes = (
"280 0 LINE",
"280 589 LINE",
"367 691 OFFCURVE",
"411 721 OFFCURVE",
"451 721 CURVE SMOOTH",
"487 721 OFFCURVE",
"535 712 OFFCURVE",
"596 617 CURVE SMOOTH",
"858 208 LINE SMOOTH",
"943 75 OFFCURVE",
"977 25 OFFCURVE",
"1004 0 CURVE",
"1156 0 LINE",
"1117 38 OFFCURVE",
"1077 90 OFFCURVE",
"994 218 CURVE SMOOTH",
"713 649 LINE SMOOTH",
"607 812 OFFCURVE",
"542 822 OFFCURVE",
"468 822 CURVE",
"1050 1540 LINE",
"894 1540 LINE",
"280 776 LINE",
"280 1540 LINE",
"160 1540 LINE",
"160 0 LINE"
);
}
);
width = 1176;
},
{
anchors = (
{
name = bottom;
position = "{644, 0}";
},
{
name = top;
position = "{644, 1540}";
}
);
layerId = master01;
paths = (
{
closed = 1;
nodes = (
"422 0 LINE",
"422 604 LINE",
"448 637 OFFCURVE",
"458 648 OFFCURVE",
"484 648 CURVE SMOOTH",
"521 648 OFFCURVE",
"568 637 OFFCURVE",
"600 574 CURVE SMOOTH",
"826 134 LINE SMOOTH",
"868 53 OFFCURVE",
"888 28 OFFCURVE",
"918 0 CURVE",
"1248 0 LINE",
"1201 46 OFFCURVE",
"1143 127 OFFCURVE",
"1102 206 CURVE SMOOTH",
"856 682 LINE SMOOTH",
"797 796 OFFCURVE",
"725 854 OFFCURVE",
"620 854 CURVE",
"1170 1540 LINE",
"836 1540 LINE",
"422 977 LINE",
"422 1540 LINE",
"140 1540 LINE {name = hr00;}",
"140 0 LINE"
);
}
);
width = 1248;
}
);
leftKerningGroup = H;
leftMetricsKey = H;
unicode = 004B;
},
{
glyphname = L;
lastChange = "2020-10-27 00:07:49 +0000";
layers = (
{
anchors = (
{
name = bottom;
position = "{535, 0}";
},
{
name = center;
position = "{227, 770}";
},
{
name = top;
position = "{224, 1540}";
},
{
name = topright;
position = "{577, 1540}";
}
);
layerId = "E12CB17E-1EC8-4945-BD17-D29BF6B71E7F";
paths = (
{
closed = 1;
nodes = (
"994 0 LINE",
"994 128 LINE",
"938 123 OFFCURVE",
"890 120 OFFCURVE",
"810 120 CURVE SMOOTH",
"280 120 LINE",
"280 1540 LINE",
"160 1540 LINE",
"160 0 LINE"
);
}
);
width = 1094;
},
{
anchors = (
{
name = bottom;
position = "{588, 0}";
},
{
name = center;
position = "{294, 770}";
},
{
name = top;
position = "{287, 1540}";
},
{
name = topright;
position = "{698, 1540}";
}
);
layerId = master01;
paths = (
{
closed = 1;
nodes = (
"1086 0 LINE",
"1086 236 LINE",
"968 220 OFFCURVE",
"918 220 OFFCURVE",
"830 220 CURVE SMOOTH",
"422 220 LINE",
"422 1540 LINE",
"140 1540 LINE",
"140 0 LINE {name = hr00;}"
);
}
);
width = 1166;
}
);
leftKerningGroup = H;
leftMetricsKey = H;
rightKerningGroup = L;
unicode = 004C;
},
{
glyphname = Lslash;
lastChange = "2020-10-27 00:07:49 +0000";
layers = (
{
components = (
{
name = L;
}
);
layerId = "E12CB17E-1EC8-4945-BD17-D29BF6B71E7F";
paths = (
{
closed = 1;
nodes = (
"24 470 LINE",
"539 985 LINE",
"469 1055 LINE",
"-46 540 LINE"
);
}
);
width = 1094;
},
{
components = (
{
name = L;
}
);
layerId = master01;
paths = (
{
closed = 1;
nodes = (
"73 341 LINE",
"693 961 LINE",
"539 1115 LINE",
"-81 495 LINE"
);
}
);
width = 1166;
}
);
rightKerningGroup = L;
rightMetricsKey = L;
unicode = 0141;
},
{
glyphname = M;
lastChange = "2020-10-27 00:07:49 +0000";
layers = (
{
anchors = (
{
name = bottom;
position = "{774, 0}";
},
{
name = top;
position = "{769, 1540}";
}
);
layerId = "E12CB17E-1EC8-4945-BD17-D29BF6B71E7F";
paths = (
{
closed = 1;
nodes = (
"280 0 LINE",
"280 1406 LINE",
"282 1382 OFFCURVE",
"286 1357 OFFCURVE",
"296 1335 CURVE SMOOTH",
"701 400 LINE",
"840 400 LINE",
"1242 1335 LINE SMOOTH",
"1251 1357 OFFCURVE",
"1256 1382 OFFCURVE",
"1258 1406 CURVE",
"1258 0 LINE",
"1378 0 LINE",
"1378 1540 LINE",
"1205 1540 LINE",
"796 562 LINE SMOOTH",
"787 540 OFFCURVE",
"780 514 OFFCURVE",
"776 491 CURVE",
"772 514 OFFCURVE",
"763 541 OFFCURVE",
"754 562 CURVE SMOOTH",
"333 1540 LINE",
"160 1540 LINE",
"160 0 LINE"
);
}
);
width = 1538;
},
{
anchors = (
{
name = bottom;
position = "{847, 0}";
},
{
name = top;
position = "{847, 1540}";
}
);
layerId = master01;
paths = (
{
closed = 1;
nodes = (
"422 0 LINE {name = hr00;}",
"422 1187 LINE",
"425 1126 OFFCURVE",
"447 1045 OFFCURVE",
"456 1023 CURVE SMOOTH",
"702 445 LINE",
"982 445 LINE",
"1240 1033 LINE SMOOTH",
"1250 1055 OFFCURVE",
"1268 1126 OFFCURVE",
"1272 1188 CURVE",
"1272 0 LINE",
"1554 0 LINE",
"1554 1540 LINE",
"1184 1540 LINE",
"885 814 LINE SMOOTH",
"863 762 OFFCURVE",
"858 737 OFFCURVE",
"854 703 CURVE",
"851 737 OFFCURVE",
"846 770 OFFCURVE",
"827 815 CURVE SMOOTH",
"530 1540 LINE",
"140 1540 LINE",
"140 0 LINE"
);
}
);
width = 1694;
}
);
leftKerningGroup = H;
leftMetricsKey = H;
rightKerningGroup = H;
rightMetricsKey = H;
unicode = 004D;
},
{
glyphname = N;
lastChange = "2020-10-27 00:07:49 +0000";
layers = (
{
anchors = (
{
name = bottom;
position = "{690, 0}";
},
{
name = top;
position = "{690, 1540}";
}
);
layerId = "E12CB17E-1EC8-4945-BD17-D29BF6B71E7F";
paths = (
{
closed = 1;
nodes = (
"280 0 LINE",
"280 1392 LINE",
"292 1364 OFFCURVE",
"312 1330 OFFCURVE",
"329 1303 CURVE SMOOTH",
"1118 0 LINE",
"1238 0 LINE",
"1238 1540 LINE",
"1118 1540 LINE",
"1118 175 LINE",
"1110 231 OFFCURVE",
"1098 262 OFFCURVE",
"1076 298 CURVE SMOOTH",
"332 1540 LINE",
"160 1540 LINE",
"160 0 LINE"
);
}
);
width = 1398;
},
{
anchors = (
{
name = bottom;
position = "{715, 0}";
},
{
name = top;
position = "{715, 1540}";
}
);
layerId = master01;
paths = (
{
closed = 1;
nodes = (
"412 0 LINE {name = hr00;}",
"412 1140 LINE",
"424 1084 OFFCURVE",
"449 1006 OFFCURVE",
"489 935 CURVE SMOOTH",
"1018 0 LINE",
"1290 0 LINE",
"1290 1540 LINE",
"1018 1540 LINE",
"1018 533 LINE",
"998 598 OFFCURVE",
"977 636 OFFCURVE",
"959 669 CURVE SMOOTH",
"479 1540 LINE",
"140 1540 LINE",
"140 0 LINE"
);
}
);
width = 1430;
}
);
leftMetricsKey = H;
rightMetricsKey = H;
unicode = 004E;
},
{
glyphname = Eng;
lastChange = "2020-10-27 00:07:49 +0000";
layers = (
{
components = (
{
name = N;
}
);
layerId = "E12CB17E-1EC8-4945-BD17-D29BF6B71E7F";
paths = (
{
closed = 1;
nodes = (
"1050 -472 OFFCURVE",
"1238 -354 OFFCURVE",
"1238 -56 CURVE SMOOTH",
"1238 30 LINE",
"1118 30 LINE",
"1118 -56 LINE SMOOTH",
"1118 -252 OFFCURVE",
"994 -358 OFFCURVE",
"868 -402 CURVE",
"920 -522 LINE"
);
}
);
width = 1398;
},
{
components = (
{
name = N;
}
);
layerId = master01;
paths = (
{
closed = 1;
nodes = (
"1046 -433 OFFCURVE",
"1290 -297 OFFCURVE",
"1290 4 CURVE SMOOTH",
"1290 75 LINE",
"1008 75 LINE {name = hr00;}",
"1008 4 LINE SMOOTH",
"1008 -92 OFFCURVE",
"929 -204 OFFCURVE",
"762 -286 CURVE",
"864 -514 LINE"
);
}
);
width = 1430;
}
);
leftKerningGroup = N;
rightKerningGroup = N;
unicode = 014A;
},
{
glyphname = O;
lastChange = "2020-10-27 00:07:49 +0000";
layers = (
{
anchors = (
{
name = bottom;
position = "{723, 0}";
},
{
name = center;
position = "{723, 770}";
},
{
name = ogonek;
position = "{1075, 96}";
},
{
name = top;
position = "{723, 1540}";
},
{
name = topleft;
position = "{192, 1540}";
},
{
name = topright;
position = "{1063, 1449}";
}
);
layerId = "E12CB17E-1EC8-4945-BD17-D29BF6B71E7F";
paths = (
{
closed = 1;
nodes = (
"1003 -30 OFFCURVE",
"1346 176 OFFCURVE",
"1346 772 CURVE SMOOTH",
"1346 1368 OFFCURVE",
"1003 1570 OFFCURVE",
"723 1570 CURVE SMOOTH",
"443 1570 OFFCURVE",
"100 1368 OFFCURVE",
"100 772 CURVE SMOOTH",
"100 176 OFFCURVE",
"443 -30 OFFCURVE",
"723 -30 CURVE SMOOTH"
);
},
{
closed = 1;
nodes = (
"493 90 OFFCURVE",
"230 256 OFFCURVE",
"230 772 CURVE SMOOTH",
"230 1288 OFFCURVE",
"493 1450 OFFCURVE",
"723 1450 CURVE SMOOTH",
"953 1450 OFFCURVE",
"1216 1288 OFFCURVE",
"1216 772 CURVE SMOOTH",
"1216 256 OFFCURVE",
"953 90 OFFCURVE",
"723 90 CURVE SMOOTH"
);
}
);
width = 1446;
},
{
anchors = (
{
name = bottom;
position = "{738, 0}";
},
{
name = center;
position = "{738, 770}";
},
{
name = ogonek;
position = "{1114, 92}";
},
{
name = top;
position = "{738, 1540}";
},
{
name = topleft;
position = "{10, 1540}";
},
{
name = topright;
position = "{1106, 1458}";
}
);
layerId = master01;
paths = (
{
closed = 1;
nodes = (
"1054 -28 OFFCURVE",
"1398 186 OFFCURVE",
"1398 772 CURVE SMOOTH",
"1398 1368 OFFCURVE",
"1054 1568 OFFCURVE",
"734 1568 CURVE SMOOTH {name = hr00;}",
"414 1568 OFFCURVE",
"70 1364 OFFCURVE",
"70 768 CURVE SMOOTH",
"70 182 OFFCURVE",
"414 -28 OFFCURVE",
"734 -28 CURVE SMOOTH"
);
},
{
closed = 1;
nodes = (
"556 206 OFFCURVE",
"362 356 OFFCURVE",
"362 772 CURVE SMOOTH",
"362 1188 OFFCURVE",
"556 1334 OFFCURVE",
"734 1334 CURVE SMOOTH",
"912 1334 OFFCURVE",
"1106 1184 OFFCURVE",
"1106 768 CURVE SMOOTH",
"1106 352 OFFCURVE",
"912 206 OFFCURVE",
"734 206 CURVE SMOOTH"
);
}
);
width = 1468;
}
);
leftKerningGroup = O;
rightKerningGroup = O;
unicode = 004F;
},
{
glyphname = Oslash;
lastChange = "2020-10-27 00:07:49 +0000";
layers = (
{
anchors = (
{
name = bottom;
position = "{723, 0}";
},
{
name = top;
position = "{723, 1540}";
}
);
components = (
{
name = O;
}
);
layerId = "E12CB17E-1EC8-4945-BD17-D29BF6B71E7F";
paths = (
{
closed = 1;
nodes = (
"316 -50 LINE",
"1270 1540 LINE",
"1172 1590 LINE",
"218 0 LINE"
);
}
);
width = 1446;
},
{
anchors = (
{
name = bottom;
position = "{734, 0}";
},
{
name = top;
position = "{734, 1540}";
}
);
components = (
{
name = O;
}
);
layerId = master01;
paths = (
{
closed = 1;
nodes = (
"484 -90 LINE",
"1236 1540 LINE",
"992 1630 LINE {name = hr00;}",
"240 0 LINE"
);
}
);
width = 1468;
}
);
unicode = 00D8;
},
{
glyphname = P;
lastChange = "2020-10-27 00:07:49 +0000";
layers = (
{
anchors = (
{
name = bottom;
position = "{593, 0}";
},
{
name = top;
position = "{593, 1540}";
}
);
layerId = "E12CB17E-1EC8-4945-BD17-D29BF6B71E7F";
paths = (
{
closed = 1;
nodes = (
"280 0 LINE",
"280 608 LINE",
"392 544 OFFCURVE",
"484 492 OFFCURVE",
"612 492 CURVE SMOOTH",
"882 492 OFFCURVE",
"1120 682 OFFCURVE",
"1120 1065 CURVE SMOOTH",
"1120 1399 OFFCURVE",
"910 1570 OFFCURVE",
"658 1570 CURVE SMOOTH",
"526 1570 OFFCURVE",
"420 1524 OFFCURVE",
"280 1452 CURVE",
"280 1540 LINE",
"160 1540 LINE",
"160 0 LINE"
);
},
{
closed = 1;
nodes = (
"498 616 OFFCURVE",
"410 652 OFFCURVE",
"280 744 CURVE",
"280 1332 LINE",
"398 1406 OFFCURVE",
"530 1450 OFFCURVE",
"638 1450 CURVE SMOOTH",
"862 1450 OFFCURVE",
"990 1339 OFFCURVE",
"990 1065 CURVE SMOOTH",
"990 737 OFFCURVE",
"822 616 OFFCURVE",
"622 616 CURVE SMOOTH"
);
}
);
width = 1186;
},
{
anchors = (
{
name = bottom;
position = "{630, 0}";
},
{
name = top;
position = "{630, 1540}";
}
);
layerId = master01;
paths = (
{
closed = 1;
nodes = (
"422 0 LINE {name = hr00;}",
"422 518 LINE",
"486 486 OFFCURVE",
"548 456 OFFCURVE",
"664 456 CURVE SMOOTH",
"853 456 OFFCURVE",
"1188 583 OFFCURVE",
"1188 1060 CURVE SMOOTH",
"1188 1366 OFFCURVE",
"1033 1568 OFFCURVE",
"737 1568 CURVE SMOOTH",
"610 1568 OFFCURVE",
"487 1504 OFFCURVE",
"422 1470 CURVE",
"422 1540 LINE",
"140 1540 LINE",
"140 0 LINE"
);
},
{
closed = 1;
nodes = (
"584 686 OFFCURVE",
"496 722 OFFCURVE",
"422 784 CURVE",
"422 1254 LINE",
"525 1309 OFFCURVE",
"582 1338 OFFCURVE",
"642 1338 CURVE SMOOTH",
"816 1338 OFFCURVE",
"898 1216 OFFCURVE",
"898 1040 CURVE SMOOTH",
"898 792 OFFCURVE",
"808 686 OFFCURVE",
"672 686 CURVE SMOOTH"
);
}
);
width = 1260;
}
);
leftKerningGroup = H;
leftMetricsKey = H;
unicode = 0050;
},
{
glyphname = Thorn;
lastChange = "2020-10-27 00:07:49 +0000";
layers = (
{
anchors = (
{
name = bottom;
position = "{613, 0}";
},
{
name = top;
position = "{613, 1540}";
}
);
layerId = "E12CB17E-1EC8-4945-BD17-D29BF6B71E7F";
paths = (
{
closed = 1;
nodes = (
"300 0 LINE",
"300 408 LINE",
"406 334 OFFCURVE",
"524 274 OFFCURVE",
"652 274 CURVE SMOOTH",
"942 274 OFFCURVE",
"1112 472 OFFCURVE",
"1112 852 CURVE SMOOTH",
"1112 1146 OFFCURVE",
"930 1352 OFFCURVE",
"668 1352 CURVE SMOOTH",
"556 1352 OFFCURVE",
"420 1304 OFFCURVE",
"300 1232 CURVE",
"300 1540 LINE",
"180 1540 LINE",
"180 0 LINE"
);
},
{
closed = 1;
nodes = (
"528 396 OFFCURVE",
"404 452 OFFCURVE",
"300 544 CURVE",
"300 1118 LINE",
"398 1190 OFFCURVE",
"500 1234 OFFCURVE",
"608 1234 CURVE SMOOTH",
"852 1234 OFFCURVE",
"1000 1076 OFFCURVE",
"1000 852 CURVE SMOOTH",
"1000 544 OFFCURVE",
"862 396 OFFCURVE",
"662 396 CURVE SMOOTH"
);
}
);
width = 1226;
},
{
anchors = (
{
name = bottom;
position = "{632, 0}";
},
{
name = top;
position = "{632, 1540}";
}
);
layerId = master01;
paths = (
{
closed = 1;
nodes = (
"406 0 LINE {name = hr00;}",
"406 304 LINE",
"472 274 OFFCURVE",
"552 254 OFFCURVE",
"648 254 CURVE SMOOTH",
"970 254 OFFCURVE",
"1162 458 OFFCURVE",
"1162 846 CURVE SMOOTH",
"1162 1152 OFFCURVE",
"958 1364 OFFCURVE",
"662 1364 CURVE SMOOTH",
"570 1364 OFFCURVE",
"484 1348 OFFCURVE",
"406 1316 CURVE",
"406 1540 LINE",
"124 1540 LINE",
"124 0 LINE"
);
},
{
closed = 1;
nodes = (
"568 478 OFFCURVE",
"480 514 OFFCURVE",
"406 576 CURVE",
"406 1072 LINE",
"470 1114 OFFCURVE",
"546 1146 OFFCURVE",
"606 1146 CURVE SMOOTH",
"780 1146 OFFCURVE",
"884 1022 OFFCURVE",
"884 846 CURVE SMOOTH",
"884 598 OFFCURVE",
"792 478 OFFCURVE",
"656 478 CURVE SMOOTH"
);
}
);
width = 1264;
}
);
unicode = 00DE;
},
{
glyphname = Q;
lastChange = "2020-10-27 00:07:49 +0000";
layers = (
{
anchors = (
{
name = bottom;
position = "{743, 0}";
},
{
name = top;
position = "{743, 1540}";
}
);
components = (
{
name = O;
}
);
layerId = "E12CB17E-1EC8-4945-BD17-D29BF6B71E7F";
paths = (
{
closed = 1;
nodes = (
"1168 -276 OFFCURVE",
"1248 -259 OFFCURVE",
"1308 -230 CURVE",
"1252 -132 LINE",
"1194 -158 OFFCURVE",
"1122 -166 OFFCURVE",
"1072 -166 CURVE SMOOTH",
"928 -166 OFFCURVE",
"852 -98 OFFCURVE",
"814 -10 CURVE",
"660 -14 LINE",
"694 -102 OFFCURVE",
"821 -276 OFFCURVE",
"1069 -276 CURVE SMOOTH"
);
}
);
width = 1446;
},
{
anchors = (
{
name = bottom;
position = "{744, 0}";
},
{
name = top;
position = "{744, 1540}";
}
);
components = (
{
name = O;
}
);
layerId = master01;
paths = (
{
closed = 1;
nodes = (
"1169 -256 OFFCURVE",
"1250 -240 OFFCURVE",
"1336 -202 CURVE",
"1229 -9 LINE",
"1131 -41 OFFCURVE",
"1090 -44 OFFCURVE",
"1042 -44 CURVE SMOOTH",
"994 -44 OFFCURVE",
"939 -24 OFFCURVE",
"921 12 CURVE",
"588 -4 LINE",
"641 -127 OFFCURVE",
"772 -256 OFFCURVE",
"1042 -256 CURVE SMOOTH"
);
}
);
width = 1468;
}
);
leftKerningGroup = O;
leftMetricsKey = O;
rightKerningGroup = O;
rightMetricsKey = O;
unicode = 0051;
},
{
glyphname = R;
lastChange = "2020-10-27 00:07:49 +0000";
layers = (
{
anchors = (
{
name = bottom;
position = "{635, 0}";
},
{
name = top;
position = "{635, 1540}";
}
);
layerId = "E12CB17E-1EC8-4945-BD17-D29BF6B71E7F";
paths = (
{
closed = 1;
nodes = (
"280 0 LINE",
"280 682 LINE",
"506 682 LINE",
"600 652 OFFCURVE",
"685 557 OFFCURVE",
"859 296 CURVE SMOOTH",
"979 116 OFFCURVE",
"1039 28 OFFCURVE",
"1072 0 CURVE",
"1219 0 LINE",
"1169 28 OFFCURVE",
"1094 140 OFFCURVE",
"978 318 CURVE SMOOTH",
"860 499 OFFCURVE",
"758 655 OFFCURVE",
"668 696 CURVE",
"852 714 OFFCURVE",
"1090 846 OFFCURVE",
"1090 1148 CURVE SMOOTH",
"1090 1409 OFFCURVE",
"896 1570 OFFCURVE",
"658 1570 CURVE SMOOTH",
"536 1570 OFFCURVE",
"420 1540 OFFCURVE",
"280 1452 CURVE",
"280 1540 LINE",
"160 1540 LINE",
"160 0 LINE"
);
},
{
closed = 1;
nodes = (
"280 1334 LINE",
"396 1412 OFFCURVE",
"502 1450 OFFCURVE",
"630 1450 CURVE SMOOTH",
"828 1450 OFFCURVE",
"960 1336 OFFCURVE",
"960 1150 CURVE SMOOTH",
"960 902 OFFCURVE",
"796 796 OFFCURVE",
"576 796 CURVE SMOOTH",
"280 796 LINE"
);
}
);
width = 1244;
},
{
anchors = (
{
name = bottom;
position = "{692, 0}";
},
{
name = top;
position = "{692, 1540}";
}
);
layerId = master01;
paths = (
{
closed = 1;
nodes = (
"422 0 LINE {name = hr00;}",
"422 604 LINE",
"520 604 LINE",
"584 578 OFFCURVE",
"673 454 OFFCURVE",
"772 302 CURVE SMOOTH",
"889 123 OFFCURVE",
"951 46 OFFCURVE",
"1024 0 CURVE",
"1370 0 LINE",
"1293 46 OFFCURVE",
"1204 158 OFFCURVE",
"1070 359 CURVE SMOOTH",
"983 489 OFFCURVE",
"899 614 OFFCURVE",
"838 646 CURVE",
"998 672 OFFCURVE",
"1195 834 OFFCURVE",
"1195 1114 CURVE SMOOTH",
"1195 1428 OFFCURVE",
"992 1568 OFFCURVE",
"738 1568 CURVE SMOOTH",
"620 1568 OFFCURVE",
"492 1506 OFFCURVE",
"422 1470 CURVE",
"422 1540 LINE",
"140 1540 LINE",
"140 0 LINE"
);
},
{
closed = 1;
nodes = (
"422 1258 LINE",
"500 1304 OFFCURVE",
"596 1338 OFFCURVE",
"682 1338 CURVE SMOOTH",
"810 1338 OFFCURVE",
"902 1254 OFFCURVE",
"902 1114 CURVE SMOOTH",
"902 884 OFFCURVE",
"744 830 OFFCURVE",
"648 830 CURVE SMOOTH",
"422 830 LINE"
);
}
);
width = 1370;
}
);
leftKerningGroup = H;
leftMetricsKey = H;
unicode = 0052;
},
{
glyphname = S;
lastChange = "2020-10-27 00:07:49 +0000";
layers = (
{
anchors = (
{
name = bottom;
position = "{572, 0}";
},
{
name = top;
position = "{572, 1540}";
}
);
layerId = "E12CB17E-1EC8-4945-BD17-D29BF6B71E7F";
paths = (
{
closed = 1;
nodes = (
"856 -30 OFFCURVE",
"1086 122 OFFCURVE",
"1086 406 CURVE SMOOTH",
"1086 682 OFFCURVE",
"840 783 OFFCURVE",
"618 854 CURVE SMOOTH",
"406 922 OFFCURVE",
"262 1015 OFFCURVE",
"262 1179 CURVE SMOOTH",
"262 1359 OFFCURVE",
"440 1450 OFFCURVE",
"582 1450 CURVE SMOOTH",
"744 1450 OFFCURVE",
"830 1390 OFFCURVE",
"908 1304 CURVE",
"1006 1388 LINE",
"908 1500 OFFCURVE",
"782 1570 OFFCURVE",
"582 1570 CURVE SMOOTH",
"406 1570 OFFCURVE",
"136 1462 OFFCURVE",
"136 1174 CURVE SMOOTH",
"136 910 OFFCURVE",
"353 811 OFFCURVE",
"574 744 CURVE SMOOTH",
"770 685 OFFCURVE",
"962 588 OFFCURVE",
"962 396 CURVE SMOOTH",
"962 196 OFFCURVE",
"802 90 OFFCURVE",
"608 90 CURVE SMOOTH",
"416 90 OFFCURVE",
"275 178 OFFCURVE",
"178 322 CURVE",
"80 238 LINE",
"184 84 OFFCURVE",
"374 -30 OFFCURVE",
"604 -30 CURVE SMOOTH"
);
}
);
width = 1166;
},
{
anchors = (
{
name = bottom;
position = "{621, 0}";
},
{
name = top;
position = "{611, 1540}";
}
);
layerId = master01;
paths = (
{
closed = 1;
nodes = (
"868 -28 OFFCURVE",
"1162 102 OFFCURVE",
"1162 422 CURVE SMOOTH",
"1162 728 OFFCURVE",
"921 830 OFFCURVE",
"688 912 CURVE SMOOTH",
"467 990 OFFCURVE",
"393 1054 OFFCURVE",
"393 1178 CURVE SMOOTH",
"393 1297 OFFCURVE",
"506 1344 OFFCURVE",
"612 1344 CURVE SMOOTH",
"718 1344 OFFCURVE",
"812 1292 OFFCURVE",
"892 1190 CURVE",
"1096 1358 LINE",
"984 1502 OFFCURVE",
"812 1568 OFFCURVE",
"622 1568 CURVE SMOOTH",
"440 1568 OFFCURVE",
"112 1478 OFFCURVE",
"112 1158 CURVE SMOOTH",
"112 894 OFFCURVE",
"294 759 OFFCURVE",
"528 681 CURVE SMOOTH",
"759 604 OFFCURVE",
"881 530 OFFCURVE",
"881 411 CURVE SMOOTH",
"881 263 OFFCURVE",
"760 196 OFFCURVE",
"626 196 CURVE SMOOTH",
"466 196 OFFCURVE",
"347 294 OFFCURVE",
"254 460 CURVE",
"50 292 LINE {name = hr00;}",
"169 98 OFFCURVE",
"396 -28 OFFCURVE",
"630 -28 CURVE SMOOTH"
);
}
);
width = 1212;
}
);
unicode = 0053;
},
{
glyphname = Germandbls;
lastChange = "2020-10-27 00:07:49 +0000";
layers = (
{
anchors = (
{
name = bottom;
position = "{636, 0}";
},
{
name = top;
position = "{636, 1540}";
}
);
layerId = "E12CB17E-1EC8-4945-BD17-D29BF6B71E7F";
paths = (
{
closed = 1;
nodes = (
"330 0 LINE",
"330 1429 LINE",
"894 1429 LINE",
"536 932 LINE",
"536 832 LINE",
"880 832 OFFCURVE",
"1058 717 OFFCURVE",
"1058 491 CURVE SMOOTH",
"1058 299 OFFCURVE",
"952 118 OFFCURVE",
"620 118 CURVE SMOOTH",
"561 118 OFFCURVE",
"524 124 OFFCURVE",
"470 144 CURVE",
"470 26 LINE",
"514 9 OFFCURVE",
"562 0 OFFCURVE",
"622 0 CURVE SMOOTH",
"1072 0 OFFCURVE",
"1180 271 OFFCURVE",
"1180 491 CURVE SMOOTH",
"1180 783 OFFCURVE",
"930 932 OFFCURVE",
"662 932 CURVE",
"1017 1421 LINE",
"1017 1540 LINE",
"220 1540 LINE",
"220 0 LINE"
);
}
);
width = 1272;
},
{
anchors = (
{
name = bottom;
position = "{655, 0}";
},
{
name = top;
position = "{655, 1540}";
}
);
layerId = master01;
paths = (
{
closed = 1;
nodes = (
"408 0 LINE",
"408 1326 LINE",
"807 1326 LINE",
"508 934 LINE",
"508 738 LINE",
"714 738 OFFCURVE",
"938 716 OFFCURVE",
"938 496 CURVE SMOOTH",
"938 296 OFFCURVE",
"831 224 OFFCURVE",
"676 224 CURVE SMOOTH",
"642 224 OFFCURVE",
"588 230 OFFCURVE",
"512 250 CURVE",
"512 36 LINE",
"552 12 OFFCURVE",
"609 0 OFFCURVE",
"678 0 CURVE SMOOTH",
"1083 0 OFFCURVE",
"1208 197 OFFCURVE",
"1208 496 CURVE SMOOTH",
"1208 744 OFFCURVE",
"1035 940 OFFCURVE",
"792 940 CURVE",
"1108 1340 LINE",
"1108 1540 LINE",
"142 1540 LINE",
"142 0 LINE"
);
}
);
width = 1310;
}
);
unicode = 1E9E;
},
{
glyphname = T;
lastChange = "2020-10-27 00:07:49 +0000";
layers = (
{
anchors = (
{
name = bottom;
position = "{566, 0}";
},
{
name = center;
position = "{566, 770}";
},
{
name = top;
position = "{566, 1540}";
}
);
layerId = "E12CB17E-1EC8-4945-BD17-D29BF6B71E7F";
paths = (
{
closed = 1;
nodes = (
"621 0 LINE",
"621 1420 LINE",
"1092 1420 LINE",
"1092 1540 LINE",
"40 1540 LINE",
"40 1420 LINE",
"501 1420 LINE",
"501 0 LINE"
);
}
);
width = 1132;
},
{
anchors = (
{
name = bottom;
position = "{593, 0}";
},
{
name = center;
position = "{593, 770}";
},
{
name = top;
position = "{593, 1540}";
}
);
layerId = master01;
paths = (
{
closed = 1;
nodes = (
"730 0 LINE",
"730 1320 LINE",
"1166 1320 LINE",
"1166 1540 LINE",
"20 1540 LINE",
"20 1320 LINE {name = hr00;}",
"448 1320 LINE",
"448 0 LINE"
);
}
);
width = 1186;
}
);
unicode = 0054;
},
{
glyphname = Tbar;
lastChange = "2020-10-27 00:07:49 +0000";
layers = (
{
components = (
{
name = T;
}
);
layerId = "E12CB17E-1EC8-4945-BD17-D29BF6B71E7F";
paths = (
{
closed = 1;
nodes = (
"246 714 LINE",
"884 714 LINE",
"884 830 LINE",
"246 830 LINE"
);
}
);
width = 1132;
},
{
components = (
{
name = T;
}
);
layerId = master01;
paths = (
{
closed = 1;
nodes = (
"189 670 LINE",
"995 670 LINE",
"995 882 LINE",
"189 882 LINE"
);
}
);
width = 1186;
}
);
unicode = 0166;
},
{
glyphname = U;
lastChange = "2020-10-27 00:07:49 +0000";
layers = (
{
anchors = (
{
name = bottom;
position = "{658, 0}";
},
{
name = ogonek;
position = "{981, 73}";
},
{
name = top;
position = "{658, 1540}";
},
{
name = topright;
position = "{1114, 1540}";
}
);
layerId = "E12CB17E-1EC8-4945-BD17-D29BF6B71E7F";
paths = (
{
closed = 1;
nodes = (
"842 -24 OFFCURVE",
"1156 46 OFFCURVE",
"1156 490 CURVE SMOOTH",
"1156 1540 LINE",
"1036 1540 LINE",
"1036 494 LINE SMOOTH",
"1036 158 OFFCURVE",
"804 96 OFFCURVE",
"660 96 CURVE SMOOTH",
"512 96 OFFCURVE",
"280 158 OFFCURVE",
"280 494 CURVE SMOOTH",
"280 1540 LINE",
"160 1540 LINE",
"160 490 LINE SMOOTH",
"160 46 OFFCURVE",
"474 -24 OFFCURVE",
"660 -24 CURVE SMOOTH"
);
}
);
width = 1316;
},
{
anchors = (
{
name = bottom;
position = "{724, 0}";
},
{
name = ogonek;
position = "{1079, 86}";
},
{
name = top;
position = "{724, 1540}";
},
{
name = topright;
position = "{1175, 1540}";
}
);
layerId = master01;
paths = (
{
closed = 1;
nodes = (
"910 -22 OFFCURVE",
"1276 44 OFFCURVE",
"1276 502 CURVE SMOOTH {name = hr00;}",
"1276 1540 LINE",
"992 1540 LINE",
"992 506 LINE SMOOTH",
"992 258 OFFCURVE",
"838 196 OFFCURVE",
"710 196 CURVE SMOOTH",
"580 196 OFFCURVE",
"424 258 OFFCURVE",
"424 506 CURVE SMOOTH",
"424 1540 LINE",
"140 1540 LINE",
"140 502 LINE SMOOTH",
"140 44 OFFCURVE",
"508 -22 OFFCURVE",
"710 -22 CURVE SMOOTH"
);
}
);
width = 1416;
}
);
leftKerningGroup = U;
leftMetricsKey = H;
rightKerningGroup = U;
rightMetricsKey = H;
unicode = 0055;
},
{
glyphname = V;
lastChange = "2020-10-27 00:07:49 +0000";
layers = (
{
anchors = (
{
name = bottom;
position = "{655, 0}";
},
{
name = top;
position = "{655, 1540}";
}
);
layerId = "E12CB17E-1EC8-4945-BD17-D29BF6B71E7F";
paths = (
{
closed = 1;
nodes = (
"735 0 LINE",
"1303 1540 LINE",
"1175 1540 LINE",
"693 211 LINE SMOOTH",
"679 171 OFFCURVE",
"671 144 OFFCURVE",
"667 130 CURVE",
"663 146 OFFCURVE",
"655 172 OFFCURVE",
"640 212 CURVE SMOOTH",
"153 1540 LINE",
"25 1540 LINE",
"591 0 LINE"
);
}
);
width = 1328;
},
{
anchors = (
{
name = bottom;
position = "{716, 0}";
},
{
name = top;
position = "{716, 1540}";
}
);
layerId = master01;
paths = (
{
closed = 1;
nodes = (
"859 0 LINE {name = hr00;}",
"1427 1540 LINE",
"1121 1540 LINE",
"746 426 LINE SMOOTH",
"732 384 OFFCURVE",
"729 353 OFFCURVE",
"727 330 CURVE",
"726 352 OFFCURVE",
"723 384 OFFCURVE",
"709 425 CURVE SMOOTH",
"339 1540 LINE",
"5 1540 LINE",
"573 0 LINE"
);
}
);
width = 1432;
}
);
leftKerningGroup = V;
rightKerningGroup = V;
unicode = 0056;
},
{
glyphname = W;
lastChange = "2020-10-27 00:07:49 +0000";
layers = (
{
anchors = (
{
name = bottom;
position = "{860, 0}";
},
{
name = top;
position = "{860, 1540}";
}
);
layerId = "E12CB17E-1EC8-4945-BD17-D29BF6B71E7F";
paths = (
{
closed = 1;
nodes = (
"514 0 LINE",
"836 1318 LINE SMOOTH",
"842 1344 OFFCURVE",
"854 1400 OFFCURVE",
"856 1426 CURVE",
"857 1400 OFFCURVE",
"869 1345 OFFCURVE",
"875 1319 CURVE SMOOTH",
"1195 0 LINE",
"1329 0 LINE",
"1695 1540 LINE",
"1565 1540 LINE",
"1284 239 LINE SMOOTH",
"1280 221 OFFCURVE",
"1272 178 OFFCURVE",
"1270 156 CURVE",
"1267 178 OFFCURVE",
"1260 221 OFFCURVE",
"1256 239 CURVE SMOOTH",
"937 1540 LINE",
"781 1540 LINE",
"466 239 LINE SMOOTH",
"462 221 OFFCURVE",
"455 177 OFFCURVE",
"453 156 CURVE",
"451 177 OFFCURVE",
"443 221 OFFCURVE",
"439 239 CURVE SMOOTH",
"159 1540 LINE",
"25 1540 LINE",
"380 0 LINE"
);
}
);
width = 1720;
},
{
anchors = (
{
name = bottom;
position = "{946, 0}";
},
{
name = top;
position = "{946, 1540}";
}
);
layerId = master01;
paths = (
{
closed = 1;
nodes = (
"655 0 LINE {name = hr00;}",
"911 957 LINE SMOOTH",
"919 986 OFFCURVE",
"934 1115 OFFCURVE",
"935 1164 CURVE",
"936 1115 OFFCURVE",
"951 985 OFFCURVE",
"958 956 CURVE SMOOTH",
"1202 0 LINE",
"1466 0 LINE",
"1867 1540 LINE",
"1577 1540 LINE",
"1380 616 LINE SMOOTH",
"1372 578 OFFCURVE",
"1357 482 OFFCURVE",
"1353 442 CURVE",
"1349 482 OFFCURVE",
"1333 579 OFFCURVE",
"1323 618 CURVE SMOOTH",
"1079 1540 LINE",
"807 1540 LINE",
"584 619 LINE SMOOTH",
"575 581 OFFCURVE",
"562 484 OFFCURVE",
"557 446 CURVE",
"553 484 OFFCURVE",
"538 581 OFFCURVE",
"530 618 CURVE SMOOTH",
"323 1540 LINE",
"5 1540 LINE",
"391 0 LINE"
);
}
);
width = 1872;
}
);
leftKerningGroup = V;
leftMetricsKey = V;
rightKerningGroup = V;
rightMetricsKey = V;
unicode = 0057;
},
{
glyphname = X;
lastChange = "2020-10-27 00:07:49 +0000";
layers = (
{
anchors = (
{
name = bottom;
position = "{618, 0}";
},
{
name = top;
position = "{618, 1540}";
}
);
layerId = "E12CB17E-1EC8-4945-BD17-D29BF6B71E7F";
paths = (
{
closed = 1;
nodes = (
"190 0 LINE",
"616 657 LINE",
"1026 0 LINE",
"1176 0 LINE",
"686 771 LINE",
"1176 1540 LINE",
"1046 1540 LINE",
"618 882 LINE",
"210 1540 LINE",
"60 1540 LINE",
"548 768 LINE",
"60 0 LINE"
);
}
);
width = 1236;
},
{
anchors = (
{
name = bottom;
position = "{661, 0}";
},
{
name = top;
position = "{661, 1540}";
}
);
layerId = master01;
paths = (
{
closed = 1;
nodes = (
"323 0 LINE",
"650 552 LINE",
"980 0 LINE",
"1312 0 LINE",
"827 768 LINE",
"1312 1540 LINE",
"1000 1540 LINE {name = hr00;}",
"670 984 LINE",
"342 1540 LINE",
"10 1540 LINE",
"490 768 LINE",
"10 0 LINE"
);
}
);
width = 1322;
}
);
leftKerningGroup = X;
rightKerningGroup = X;
unicode = 0058;
},
{
glyphname = Y;
lastChange = "2020-10-27 00:07:58 +0000";
layers = (
{
anchors = (
{
name = bottom;
position = "{582, 0}";
},
{
name = top;
position = "{582, 1540}";
},
{
name = topleft;
position = "{1, 1540}";
}
);
layerId = "E12CB17E-1EC8-4945-BD17-D29BF6B71E7F";
paths = (
{
closed = 1;
nodes = (
"652 0 LINE",
"652 742 LINE",
"1157 1540 LINE",
"1021 1540 LINE",
"596 864 LINE",
"169 1540 LINE",
"25 1540 LINE",
"532 742 LINE",
"532 0 LINE"
);
}
);
width = 1182;
},
{
anchors = (
{
name = bottom;
position = "{657, 0}";
},
{
name = top;
position = "{657, 1540}";
},
{
name = topleft;
position = "{20, 1540}";
}
);
layerId = master01;
paths = (
{
closed = 1;
nodes = (
"799 0 LINE",
"799 736 LINE",
"1309 1540 LINE",
"1001 1540 LINE {name = hr00;}",
"661 1010 LINE",
"321 1540 LINE",
"5 1540 LINE",
"519 736 LINE",
"519 0 LINE"
);
}
);
width = 1314;
}
);
leftKerningGroup = V;
leftMetricsKey = V;
rightKerningGroup = V;
rightMetricsKey = V;
unicode = 0059;
},
{
glyphname = Z;
lastChange = "2020-10-27 00:07:49 +0000";
layers = (
{
anchors = (
{
name = bottom;
position = "{616, 0}";
},
{
name = center;
position = "{616, 770}";
},
{
name = top;
position = "{616, 1540}";
}
);
layerId = "E12CB17E-1EC8-4945-BD17-D29BF6B71E7F";
paths = (
{
closed = 1;
nodes = (
"890 0 LINE SMOOTH",
"986 0 OFFCURVE",
"1060 2 OFFCURVE",
"1112 20 CURVE",
"1112 142 LINE",
"1052 124 OFFCURVE",
"972 120 OFFCURVE",
"894 120 CURVE SMOOTH",
"260 120 LINE",
"1068 1408 LINE",
"1068 1540 LINE",
"140 1540 LINE",
"140 1420 LINE",
"926 1420 LINE",
"120 136 LINE",
"120 0 LINE"
);
}
);
width = 1232;
},
{
anchors = (
{
name = bottom;
position = "{640, 0}";
},
{
name = center;
position = "{640, 770}";
},
{
name = top;
position = "{640, 1540}";
}
);
layerId = master01;
paths = (
{
closed = 1;
nodes = (
"890 0 LINE SMOOTH",
"992 0 OFFCURVE",
"1101 8 OFFCURVE",
"1172 23 CURVE",
"1172 250 LINE {name = hr00;}",
"1070 221 OFFCURVE",
"985 220 OFFCURVE",
"894 220 CURVE SMOOTH",
"426 220 LINE",
"1132 1348 LINE",
"1132 1540 LINE",
"100 1540 LINE",
"100 1320 LINE",
"790 1320 LINE",
"80 188 LINE",
"80 0 LINE"
);
}
);
width = 1252;
}
);
leftKerningGroup = Z;
rightKerningGroup = Z;
unicode = 005A;
},
{
glyphname = a;
lastChange = "2020-10-27 00:07:49 +0000";
layers = (
{
anchors = (
{
name = bottom;
position = "{530, 0}";
},
{
name = ogonek;
position = "{1022, 54}";
},
{
name = top;
position = "{530, 1100}";
}
);
layerId = "E12CB17E-1EC8-4945-BD17-D29BF6B71E7F";
paths = (
{
closed = 1;
nodes = (
"522 -24 OFFCURVE",
"680 42 OFFCURVE",
"800 170 CURVE",
"809 78 OFFCURVE",
"862 16 OFFCURVE",
"934 -18 CURVE",
"1022 54 LINE",
"967 94 OFFCURVE",
"920 135 OFFCURVE",
"920 206 CURVE SMOOTH",
"920 818 LINE SMOOTH",
"920 920 OFFCURVE",
"876 1124 OFFCURVE",
"664 1124 CURVE SMOOTH",
"464 1124 OFFCURVE",
"265 1019 OFFCURVE",
"140 950 CURVE",
"200 858 LINE",
"337 930 OFFCURVE",
"500 1014 OFFCURVE",
"640 1014 CURVE SMOOTH",
"788 1014 OFFCURVE",
"800 868 OFFCURVE",
"800 818 CURVE SMOOTH",
"800 703 LINE",
"749 677 OFFCURVE",
"639 642 OFFCURVE",
"484 598 CURVE SMOOTH",
"224 524 OFFCURVE",
"90 434 OFFCURVE",
"90 256 CURVE SMOOTH",
"90 51 OFFCURVE",
"229 -24 OFFCURVE",
"380 -24 CURVE SMOOTH"
);
},
{
closed = 1;
nodes = (
"280 88 OFFCURVE",
"208 149 OFFCURVE",
"208 256 CURVE SMOOTH",
"208 390 OFFCURVE",
"311 443 OFFCURVE",
"494 494 CURVE SMOOTH",
"691 549 OFFCURVE",
"756 574 OFFCURVE",
"800 593 CURVE",
"800 298 LINE",
"682 174 OFFCURVE",
"541 88 OFFCURVE",
"392 88 CURVE SMOOTH"
);
}
);
width = 1112;
},
{
anchors = (
{
name = bottom;
position = "{567, 0}";
},
{
name = ogonek;
position = "{1088, 114}";
},
{
name = top;
position = "{567, 1100}";
}
);
layerId = master01;
paths = (
{
closed = 1;
nodes = (
"530 -22 OFFCURVE",
"636 65 OFFCURVE",
"724 143 CURVE",
"746 76 OFFCURVE",
"828 4 OFFCURVE",
"914 -24 CURVE",
"1088 114 LINE",
"1033 143 OFFCURVE",
"968 180 OFFCURVE",
"968 238 CURVE SMOOTH",
"968 792 LINE SMOOTH",
"968 970 OFFCURVE",
"894 1122 OFFCURVE",
"654 1122 CURVE SMOOTH",
"464 1122 OFFCURVE",
"238 1012 OFFCURVE",
"100 938 CURVE",
"214 744 LINE {name = hr00;}",
"345 816 OFFCURVE",
"532 906 OFFCURVE",
"610 906 CURVE SMOOTH",
"664 906 OFFCURVE",
"700 857 OFFCURVE",
"700 770 CURVE SMOOTH",
"700 748 LINE",
"652 723 OFFCURVE",
"546 688 OFFCURVE",
"412 644 CURVE SMOOTH",
"179 568 OFFCURVE",
"70 470 OFFCURVE",
"70 274 CURVE SMOOTH",
"70 59 OFFCURVE",
"234 -22 OFFCURVE",
"406 -22 CURVE SMOOTH"
);
},
{
closed = 1;
nodes = (
"385 190 OFFCURVE",
"336 211 OFFCURVE",
"336 281 CURVE SMOOTH",
"336 349 OFFCURVE",
"369 394 OFFCURVE",
"453 426 CURVE SMOOTH",
"557 465 OFFCURVE",
"664 506 OFFCURVE",
"700 528 CURVE",
"700 354 LINE",
"620 284 OFFCURVE",
"504 190 OFFCURVE",
"434 190 CURVE SMOOTH"
);
}
);
width = 1138;
}
);
leftKerningGroup = a;
rightKerningGroup = l;
rightMetricsKey = l;
unicode = 0061;
},
{
glyphname = a.ss01;
lastChange = "2020-10-27 00:07:49 +0000";
layers = (
{
anchors = (
{
name = bottom;
position = "{600, 0}";
},
{
name = center;
position = "{600, 550}";
},
{
name = ogonek;
position = "{1094, 10}";
},
{
name = top;
position = "{608, 1100}";
}
);
layerId = "E12CB17E-1EC8-4945-BD17-D29BF6B71E7F";
paths = (
{
closed = 1;
nodes = (
"1126 54 LINE",
"1072 93 OFFCURVE",
"1025 128 OFFCURVE",
"1025 254 CURVE SMOOTH",
"1025 1100 LINE",
"905 1100 LINE",
"905 918 LINE",
"793 1042 OFFCURVE",
"652 1124 OFFCURVE",
"529 1124 CURVE SMOOTH",
"272 1124 OFFCURVE",
"100 906 OFFCURVE",
"100 532 CURVE SMOOTH",
"100 240 OFFCURVE",
"245 -20 OFFCURVE",
"509 -20 CURVE SMOOTH",
"625 -20 OFFCURVE",
"753 41 OFFCURVE",
"907 189 CURVE",
"912 99 OFFCURVE",
"965 16 OFFCURVE",
"1039 -17 CURVE"
);
},
{
closed = 1;
nodes = (
"313 100 OFFCURVE",
"225 312 OFFCURVE",
"225 532 CURVE SMOOTH",
"225 824 OFFCURVE",
"346 996 OFFCURVE",
"529 996 CURVE SMOOTH",
"668 996 OFFCURVE",
"783 890 OFFCURVE",
"905 758 CURVE",
"905 346 LINE",
"793 224 OFFCURVE",
"658 100 OFFCURVE",
"507 100 CURVE SMOOTH"
);
}
);
width = 1216;
},
{
anchors = (
{
name = bottom;
position = "{620, 0}";
},
{
name = center;
position = "{620, 550}";
},
{
name = ogonek;
position = "{1225, 121}";
},
{
name = top;
position = "{638, 1100}";
}
);
layerId = master01;
paths = (
{
closed = 1;
nodes = (
"1225 121 LINE",
"1151 164 OFFCURVE",
"1096 199 OFFCURVE",
"1096 308 CURVE SMOOTH",
"1096 1100 LINE",
"816 1100 LINE",
"816 978 LINE",
"736 1062 OFFCURVE",
"650 1122 OFFCURVE",
"532 1122 CURVE SMOOTH",
"232 1122 OFFCURVE",
"60 906 OFFCURVE",
"60 534 CURVE SMOOTH",
"60 190 OFFCURVE",
"238 -14 OFFCURVE",
"490 -14 CURVE SMOOTH {name = hr00;}",
"632 -14 OFFCURVE",
"756 86 OFFCURVE",
"852 164 CURVE",
"868 107 OFFCURVE",
"937 21 OFFCURVE",
"1048 -20 CURVE"
);
},
{
closed = 1;
nodes = (
"416 209 OFFCURVE",
"354 362 OFFCURVE",
"354 534 CURVE SMOOTH",
"354 764 OFFCURVE",
"410 896 OFFCURVE",
"542 896 CURVE SMOOTH",
"634 896 OFFCURVE",
"724 825 OFFCURVE",
"816 721 CURVE",
"816 404 LINE",
"758 314 OFFCURVE",
"650 209 OFFCURVE",
"514 209 CURVE SMOOTH"
);
}
);
width = 1275;
}
);
leftKerningGroup = q;
leftMetricsKey = o;
rightMetricsKey = l;
},
{
glyphname = ae;
lastChange = "2020-10-27 00:07:49 +0000";
layers = (
{
anchors = (
{
name = bottom;
position = "{898, 0}";
},
{
name = top;
position = "{898, 1100}";
}
);
components = (
{
alignment = -1;
name = e;
transform = "{1, 0, 0, 1, 707, 0}";
}
);
layerId = "E12CB17E-1EC8-4945-BD17-D29BF6B71E7F";
paths = (
{
closed = 1;
nodes = (
"618 -24 OFFCURVE",
"818 145 OFFCURVE",
"920 285 CURVE",
"920 818 LINE SMOOTH",
"920 920 OFFCURVE",
"876 1124 OFFCURVE",
"664 1124 CURVE SMOOTH",
"464 1124 OFFCURVE",
"265 1019 OFFCURVE",
"140 950 CURVE",
"200 858 LINE",
"337 930 OFFCURVE",
"500 1014 OFFCURVE",
"640 1014 CURVE SMOOTH",
"788 1014 OFFCURVE",
"800 868 OFFCURVE",
"800 818 CURVE SMOOTH",
"800 703 LINE",
"749 677 OFFCURVE",
"639 642 OFFCURVE",
"484 598 CURVE SMOOTH",
"224 524 OFFCURVE",
"90 434 OFFCURVE",
"90 256 CURVE SMOOTH",
"90 51 OFFCURVE",
"229 -24 OFFCURVE",
"380 -24 CURVE SMOOTH"
);
},
{
closed = 1;
nodes = (
"280 88 OFFCURVE",
"208 149 OFFCURVE",
"208 256 CURVE SMOOTH",
"208 390 OFFCURVE",
"311 443 OFFCURVE",
"494 494 CURVE SMOOTH",
"691 549 OFFCURVE",
"756 574 OFFCURVE",
"800 593 CURVE",
"800 298 LINE",
"682 174 OFFCURVE",
"541 88 OFFCURVE",
"392 88 CURVE SMOOTH"
);
}
);
width = 1795;
},
{
anchors = (
{
name = bottom;
position = "{873, 0}";
},
{
name = top;
position = "{873, 1100}";
}
);
components = (
{
alignment = -1;
name = e;
transform = "{1, 0, 0, 1, 650, 0}";
}
);
layerId = master01;
paths = (
{
closed = 1;
nodes = (
"703 -22 OFFCURVE",
"968 153 OFFCURVE",
"968 366 CURVE SMOOTH",
"968 792 LINE SMOOTH",
"968 970 OFFCURVE",
"894 1122 OFFCURVE",
"654 1122 CURVE SMOOTH",
"464 1122 OFFCURVE",
"238 1012 OFFCURVE",
"100 938 CURVE",
"214 744 LINE {name = hr00;}",
"345 816 OFFCURVE",
"532 906 OFFCURVE",
"610 906 CURVE SMOOTH",
"664 906 OFFCURVE",
"700 857 OFFCURVE",
"700 770 CURVE SMOOTH",
"700 748 LINE",
"652 723 OFFCURVE",
"546 688 OFFCURVE",
"412 644 CURVE SMOOTH",
"179 568 OFFCURVE",
"70 470 OFFCURVE",
"70 274 CURVE SMOOTH",
"70 59 OFFCURVE",
"247 -22 OFFCURVE",
"436 -22 CURVE SMOOTH"
);
},
{
closed = 1;
nodes = (
"385 190 OFFCURVE",
"336 211 OFFCURVE",
"336 281 CURVE SMOOTH",
"336 349 OFFCURVE",
"369 394 OFFCURVE",
"453 426 CURVE SMOOTH",
"557 465 OFFCURVE",
"664 506 OFFCURVE",
"700 528 CURVE",
"700 311 LINE",
"620 241 OFFCURVE",
"504 190 OFFCURVE",
"434 190 CURVE SMOOTH"
);
}
);
width = 1745;
}
);
leftKerningGroup = a;
leftMetricsKey = a;
rightKerningGroup = e;
rightMetricsKey = e;
unicode = 00E6;
},
{
glyphname = b;
lastChange = "2020-10-27 00:07:49 +0000";
layers = (
{
anchors = (
{
name = bottom;
position = "{615, 0}";
},
{
name = top;
position = "{253, 1640}";
}
);
layerId = "E12CB17E-1EC8-4945-BD17-D29BF6B71E7F";
paths = (
{
closed = 1;
nodes = (
"926 -24 OFFCURVE",
"1124 194 OFFCURVE",
"1124 568 CURVE SMOOTH",
"1124 860 OFFCURVE",
"1004 1124 OFFCURVE",
"716 1124 CURVE SMOOTH",
"544 1124 OFFCURVE",
"410 1012 OFFCURVE",
"300 900 CURVE",
"300 1640 LINE",
"180 1640 LINE",
"180 0 LINE",
"300 0 LINE",
"300 158 LINE",
"424 40 OFFCURVE",
"510 -24 OFFCURVE",
"648 -24 CURVE SMOOTH"
);
},
{
closed = 1;
nodes = (
"502 92 OFFCURVE",
"408 183 OFFCURVE",
"300 296 CURVE",
"300 764 LINE",
"412 876 OFFCURVE",
"544 1004 OFFCURVE",
"716 1004 CURVE SMOOTH",
"920 1004 OFFCURVE",
"1004 788 OFFCURVE",
"1004 568 CURVE SMOOTH",
"1004 276 OFFCURVE",
"850 92 OFFCURVE",
"648 92 CURVE SMOOTH"
);
}
);
width = 1224;
},
{
anchors = (
{
name = bottom;
position = "{634, 0}";
},
{
name = top;
position = "{266, 1640}";
}
);
layerId = master01;
paths = (
{
closed = 1;
nodes = (
"944 -22 OFFCURVE",
"1160 194 OFFCURVE",
"1160 566 CURVE SMOOTH",
"1160 941 OFFCURVE",
"970 1122 OFFCURVE",
"728 1122 CURVE SMOOTH",
"608 1122 OFFCURVE",
"478 1037 OFFCURVE",
"406 977 CURVE",
"406 1640 LINE",
"126 1640 LINE",
"126 0 LINE",
"376 0 LINE",
"406 116 LINE",
"443 64 OFFCURVE",
"530 -22 OFFCURVE",
"662 -22 CURVE SMOOTH {name = hr01;}"
);
},
{
closed = 1;
nodes = (
"572 197 OFFCURVE",
"488 239 OFFCURVE",
"406 317 CURVE",
"406 716 LINE",
"472 788 OFFCURVE",
"582 898 OFFCURVE",
"698 898 CURVE SMOOTH",
"824 898 OFFCURVE",
"870 738 OFFCURVE",
"870 566 CURVE SMOOTH",
"870 336 OFFCURVE",
"784 197 OFFCURVE",
"652 197 CURVE SMOOTH"
);
}
);
width = 1220;
}
);
leftKerningGroup = h;
leftMetricsKey = h;
rightKerningGroup = o;
rightMetricsKey = o;
unicode = 0062;
},
{
glyphname = c;
lastChange = "2020-10-27 00:07:49 +0000";
layers = (
{
anchors = (
{
name = bottom;
position = "{514, 0}";
},
{
name = top;
position = "{514, 1100}";
}
);
layerId = "E12CB17E-1EC8-4945-BD17-D29BF6B71E7F";
paths = (
{
closed = 1;
nodes = (
"666 -24 OFFCURVE",
"782 40 OFFCURVE",
"930 184 CURVE",
"852 276 LINE",
"752 170 OFFCURVE",
"652 96 OFFCURVE",
"554 96 CURVE SMOOTH",
"372 96 OFFCURVE",
"227 250 OFFCURVE",
"227 530 CURVE SMOOTH",
"227 856 OFFCURVE",
"394 1008 OFFCURVE",
"552 1008 CURVE SMOOTH",
"662 1008 OFFCURVE",
"754 918 OFFCURVE",
"796 868 CURVE",
"884 961 LINE",
"858 995 OFFCURVE",
"740 1124 OFFCURVE",
"556 1124 CURVE SMOOTH",
"348 1124 OFFCURVE",
"100 944 OFFCURVE",
"100 530 CURVE SMOOTH",
"100 178 OFFCURVE",
"286 -24 OFFCURVE",
"554 -24 CURVE SMOOTH"
);
}
);
width = 990;
},
{
anchors = (
{
name = bottom;
position = "{519, 0}";
},
{
name = top;
position = "{519, 1100}";
}
);
layerId = master01;
paths = (
{
closed = 1;
nodes = (
"704 -22 OFFCURVE",
"827 17 OFFCURVE",
"1018 218 CURVE",
"845 392 LINE",
"709 240 OFFCURVE",
"650 198 OFFCURVE",
"554 198 CURVE SMOOTH",
"404 198 OFFCURVE",
"350 361 OFFCURVE",
"350 549 CURVE SMOOTH",
"350 805 OFFCURVE",
"450 902 OFFCURVE",
"554 902 CURVE SMOOTH",
"642 902 OFFCURVE",
"724 820 OFFCURVE",
"760 760 CURVE",
"966 936 LINE",
"900 1035 OFFCURVE",
"758 1122 OFFCURVE",
"578 1122 CURVE SMOOTH {name = hr00;}",
"312 1122 OFFCURVE",
"60 942 OFFCURVE",
"60 532 CURVE SMOOTH",
"60 188 OFFCURVE",
"262 -22 OFFCURVE",
"554 -22 CURVE SMOOTH"
);
}
);
width = 1053;
}
);
leftKerningGroup = o;
leftMetricsKey = o;
rightKerningGroup = c;
unicode = 0063;
},
{
glyphname = d;
lastChange = "2020-10-27 00:07:49 +0000";
layers = (
{
anchors = (
{
name = bottom;
position = "{600, 0}";
},
{
name = center;
position = "{600, 550}";
},
{
name = top;
position = "{968, 1640}";
},
{
name = topright;
position = "{1180, 1100}";
}
);
layerId = "E12CB17E-1EC8-4945-BD17-D29BF6B71E7F";
paths = (
{
closed = 1;
nodes = (
"1126 54 LINE",
"1072 93 OFFCURVE",
"1025 128 OFFCURVE",
"1025 254 CURVE SMOOTH",
"1025 1640 LINE",
"905 1640 LINE",
"905 918 LINE",
"793 1042 OFFCURVE",
"652 1124 OFFCURVE",
"529 1124 CURVE SMOOTH",
"272 1124 OFFCURVE",
"100 906 OFFCURVE",
"100 532 CURVE SMOOTH",
"100 240 OFFCURVE",
"245 -20 OFFCURVE",
"509 -20 CURVE SMOOTH",
"625 -20 OFFCURVE",
"753 41 OFFCURVE",
"907 189 CURVE",
"912 99 OFFCURVE",
"965 16 OFFCURVE",
"1039 -17 CURVE"
);
},
{
closed = 1;
nodes = (
"313 100 OFFCURVE",
"225 312 OFFCURVE",
"225 532 CURVE SMOOTH",
"225 824 OFFCURVE",
"346 996 OFFCURVE",
"529 996 CURVE SMOOTH",
"668 996 OFFCURVE",
"783 890 OFFCURVE",
"905 758 CURVE",
"905 346 LINE",
"793 224 OFFCURVE",
"658 100 OFFCURVE",
"507 100 CURVE SMOOTH"
);
}
);
width = 1216;
},
{
anchors = (
{
name = bottom;
position = "{620, 0}";
},
{
name = center;
position = "{620, 550}";
},
{
name = top;
position = "{955, 1640}";
},
{
name = topright;
position = "{1239, 1100}";
}
);
layerId = master01;
paths = (
{
closed = 1;
nodes = (
"1225 121 LINE",
"1151 164 OFFCURVE",
"1096 199 OFFCURVE",
"1096 308 CURVE SMOOTH",
"1096 1640 LINE",
"816 1640 LINE",
"816 978 LINE",
"736 1062 OFFCURVE",
"650 1122 OFFCURVE",
"532 1122 CURVE SMOOTH",
"232 1122 OFFCURVE",
"60 906 OFFCURVE",
"60 534 CURVE SMOOTH",
"60 190 OFFCURVE",
"238 -14 OFFCURVE",
"490 -14 CURVE SMOOTH {name = hr00;}",
"632 -14 OFFCURVE",
"756 86 OFFCURVE",
"852 164 CURVE",
"868 107 OFFCURVE",
"937 21 OFFCURVE",
"1048 -20 CURVE"
);
},
{
closed = 1;
nodes = (
"416 209 OFFCURVE",
"354 362 OFFCURVE",
"354 534 CURVE SMOOTH",
"354 764 OFFCURVE",
"410 896 OFFCURVE",
"542 896 CURVE SMOOTH",
"634 896 OFFCURVE",
"724 825 OFFCURVE",
"816 721 CURVE",
"816 404 LINE",
"758 314 OFFCURVE",
"650 209 OFFCURVE",
"514 209 CURVE SMOOTH"
);
}
);
width = 1275;
}
);
leftKerningGroup = q;
leftMetricsKey = o;
rightMetricsKey = l;
unicode = 0064;
},
{
glyphname = eth;
lastChange = "2020-10-27 00:07:49 +0000";
layers = (
{
layerId = "E12CB17E-1EC8-4945-BD17-D29BF6B71E7F";
paths = (
{
closed = 1;
nodes = (
"884 -16 OFFCURVE",
"1070 256 OFFCURVE",
"1070 728 CURVE SMOOTH",
"1070 1012 OFFCURVE",
"969 1358 OFFCURVE",
"707 1498 CURVE",
"763 1584 LINE",
"684 1636 LINE",
"618 1540 LINE",
"578 1551 OFFCURVE",
"534 1556 OFFCURVE",
"496 1556 CURVE SMOOTH",
"398 1556 OFFCURVE",
"292 1524 OFFCURVE",
"210 1484 CURVE",
"262 1379 LINE",
"324 1411 OFFCURVE",
"386 1439 OFFCURVE",
"486 1439 CURVE SMOOTH",
"498 1439 OFFCURVE",
"536 1435 OFFCURVE",
"550 1429 CURVE",
"440 1259 LINE",
"517 1209 LINE",
"643 1403 LINE",
"827 1305 OFFCURVE",
"914 1080 OFFCURVE",
"954 834 CURVE",
"840 976 OFFCURVE",
"700 1042 OFFCURVE",
"540 1042 CURVE SMOOTH",
"276 1042 OFFCURVE",
"100 804 OFFCURVE",
"100 522 CURVE SMOOTH",
"100 274 OFFCURVE",
"210 -16 OFFCURVE",
"560 -16 CURVE SMOOTH"
);
},
{
closed = 1;
nodes = (
"296 103 OFFCURVE",
"220 316 OFFCURVE",
"220 522 CURVE SMOOTH",
"220 736 OFFCURVE",
"346 924 OFFCURVE",
"540 924 CURVE SMOOTH",
"722 924 OFFCURVE",
"830 854 OFFCURVE",
"956 692 CURVE",
"951 314 OFFCURVE",
"806 103 OFFCURVE",
"560 103 CURVE SMOOTH"
);
}
);
width = 1170;
},
{
layerId = master01;
paths = (
{
closed = 1;
nodes = (
"886 -14 OFFCURVE",
"1102 230 OFFCURVE",
"1102 640 CURVE SMOOTH",
"1102 1021 OFFCURVE",
"996 1298 OFFCURVE",
"774 1450 CURVE",
"820 1524 LINE",
"640 1635 LINE",
"575 1528 LINE",
"547 1534 OFFCURVE",
"507 1540 OFFCURVE",
"479 1540 CURVE SMOOTH {name = hr00;}",
"366 1540 OFFCURVE",
"220 1500 OFFCURVE",
"126 1444 CURVE",
"246 1246 LINE",
"303 1284 OFFCURVE",
"370 1320 OFFCURVE",
"412 1320 CURVE SMOOTH",
"425 1320 OFFCURVE",
"436 1317 OFFCURVE",
"441 1315 CURVE",
"364 1198 LINE",
"536 1090 LINE",
"648 1260 LINE",
"724 1216 OFFCURVE",
"802 1058 OFFCURVE",
"807 936 CURVE",
"761 989 OFFCURVE",
"667 1028 OFFCURVE",
"552 1028 CURVE SMOOTH",
"294 1028 OFFCURVE",
"60 820 OFFCURVE",
"60 508 CURVE SMOOTH",
"60 200 OFFCURVE",
"250 -14 OFFCURVE",
"560 -14 CURVE SMOOTH"
);
},
{
closed = 1;
nodes = (
"386 206 OFFCURVE",
"340 378 OFFCURVE",
"340 488 CURVE SMOOTH",
"340 656 OFFCURVE",
"438 808 OFFCURVE",
"562 808 CURVE SMOOTH",
"662 808 OFFCURVE",
"726 736 OFFCURVE",
"814 614 CURVE",
"802 330 OFFCURVE",
"722 206 OFFCURVE",
"560 206 CURVE SMOOTH"
);
}
);
width = 1162;
}
);
leftKerningGroup = o;
leftMetricsKey = o;
rightKerningGroup = o;
rightMetricsKey = o;
unicode = 00F0;
},
{
glyphname = dcaron;
lastChange = "2020-10-27 00:38:28 +0000";
layers = (
{
components = (
{
name = d;
}
);
layerId = "E12CB17E-1EC8-4945-BD17-D29BF6B71E7F";
paths = (
{
closed = 1;
nodes = (
"1161 1540 LINE",
"1121 1096 LINE",
"1200 1096 LINE",
"1252 1540 LINE"
);
}
);
width = 1232;
},
{
components = (
{
name = d;
}
);
layerId = master01;
paths = (
{
closed = 1;
nodes = (
"1235 1540 LINE",
"1204 1037 LINE",
"1393 1037 LINE",
"1483 1540 LINE"
);
}
);
width = 1473;
}
);
unicode = 010F;
},
{
glyphname = dcroat;
lastChange = "2020-10-27 00:07:49 +0000";
layers = (
{
components = (
{
name = d;
}
);
layerId = "E12CB17E-1EC8-4945-BD17-D29BF6B71E7F";
paths = (
{
closed = 1;
nodes = (
"546 1303 LINE",
"1154 1303 LINE",
"1154 1419 LINE",
"546 1419 LINE"
);
}
);
width = 1216;
},
{
components = (
{
name = d;
}
);
layerId = master01;
paths = (
{
closed = 1;
nodes = (
"415 1268 LINE",
"1221 1268 LINE",
"1221 1480 LINE",
"415 1480 LINE"
);
}
);
width = 1275;
}
);
leftKerningGroup = o;
unicode = 0111;
},
{
glyphname = e;
lastChange = "2020-10-27 00:07:49 +0000";
layers = (
{
anchors = (
{
name = bottom;
position = "{544, 0}";
},
{
name = ogonek;
position = "{980, 192}";
},
{
name = top;
position = "{544, 1100}";
}
);
layerId = "E12CB17E-1EC8-4945-BD17-D29BF6B71E7F";
paths = (
{
closed = 1;
nodes = (
"684 -24 OFFCURVE",
"796 18 OFFCURVE",
"980 192 CURVE",
"904 278 LINE",
"777 154 OFFCURVE",
"672 94 OFFCURVE",
"568 94 CURVE SMOOTH",
"326 94 OFFCURVE",
"221 294 OFFCURVE",
"221 580 CURVE",
"988 580 LINE",
"988 600 OFFCURVE",
"988 620 OFFCURVE",
"988 640 CURVE SMOOTH",
"988 716 OFFCURVE",
"956 1124 OFFCURVE",
"560 1124 CURVE SMOOTH",
"290 1124 OFFCURVE",
"100 870 OFFCURVE",
"100 568 CURVE SMOOTH",
"100 244 OFFCURVE",
"256 -24 OFFCURVE",
"568 -24 CURVE SMOOTH"
);
},
{
closed = 1;
nodes = (
"264 848 OFFCURVE",
"366 1006 OFFCURVE",
"560 1006 CURVE SMOOTH",
"768 1006 OFFCURVE",
"850 848 OFFCURVE",
"863 696 CURVE",
"242 696 LINE"
);
}
);
width = 1088;
},
{
anchors = (
{
name = bottom;
position = "{548, 0}";
},
{
name = ogonek;
position = "{1032, 222}";
},
{
name = top;
position = "{548, 1100}";
}
);
layerId = master01;
paths = (
{
closed = 1;
nodes = (
"714 -22 OFFCURVE",
"865 9 OFFCURVE",
"1032 202 CURVE",
"856 378 LINE",
"726 206 OFFCURVE",
"639 201 OFFCURVE",
"551 201 CURVE SMOOTH",
"437 201 OFFCURVE",
"346 330 OFFCURVE",
"346 522 CURVE",
"1028 522 LINE",
"1031 540 OFFCURVE",
"1035 565 OFFCURVE",
"1035 620 CURVE SMOOTH",
"1035 700 OFFCURVE",
"992 1122 OFFCURVE",
"556 1122 CURVE SMOOTH",
"254 1122 OFFCURVE",
"60 906 OFFCURVE",
"60 538 CURVE SMOOTH {name = hr00;}",
"60 188 OFFCURVE",
"278 -22 OFFCURVE",
"554 -22 CURVE SMOOTH"
);
},
{
closed = 1;
nodes = (
"371 816 OFFCURVE",
"442 906 OFFCURVE",
"556 906 CURVE SMOOTH",
"672 906 OFFCURVE",
"740 818 OFFCURVE",
"752 712 CURVE",
"360 712 LINE"
);
}
);
width = 1095;
}
);
leftKerningGroup = o;
leftMetricsKey = o;
rightKerningGroup = o;
rightMetricsKey = o;
unicode = 0065;
},
{
glyphname = f;
lastChange = "2020-10-27 00:07:49 +0000";
layers = (
{
anchors = (
{
name = bottom;
position = "{379, 0}";
},
{
name = top;
position = "{379, 1640}";
}
);
layerId = "E12CB17E-1EC8-4945-BD17-D29BF6B71E7F";
paths = (
{
closed = 1;
nodes = (
"332 0 LINE",
"332 984 LINE",
"668 984 LINE",
"668 1100 LINE",
"332 1100 LINE",
"332 1300 LINE SMOOTH",
"332 1465 OFFCURVE",
"392 1542 OFFCURVE",
"508 1542 CURVE SMOOTH",
"596 1542 OFFCURVE",
"693 1487 OFFCURVE",
"762 1442 CURVE",
"834 1536 LINE",
"770 1577 OFFCURVE",
"638 1650 OFFCURVE",
"512 1650 CURVE SMOOTH",
"296 1650 OFFCURVE",
"212 1512 OFFCURVE",
"212 1310 CURVE SMOOTH",
"212 1100 LINE",
"64 1100 LINE",
"64 984 LINE",
"212 984 LINE",
"212 0 LINE"
);
}
);
width = 754;
},
{
anchors = (
{
name = bottom;
position = "{411, 0}";
},
{
name = top;
position = "{411, 1640}";
}
);
layerId = master01;
paths = (
{
closed = 1;
nodes = (
"439 0 LINE",
"439 880 LINE",
"741 880 LINE",
"741 1100 LINE",
"439 1100 LINE",
"439 1278 LINE SMOOTH {name = hr00;}",
"439 1380 OFFCURVE",
"456 1444 OFFCURVE",
"517 1444 CURVE SMOOTH",
"573 1444 OFFCURVE",
"677 1398 OFFCURVE",
"757 1344 CURVE",
"888 1510 LINE",
"792 1575 OFFCURVE",
"643 1648 OFFCURVE",
"517 1648 CURVE SMOOTH",
"281 1648 OFFCURVE",
"159 1512 OFFCURVE",
"159 1288 CURVE SMOOTH",
"159 1100 LINE",
"25 1100 LINE",
"25 880 LINE",
"159 880 LINE",
"159 0 LINE"
);
}
);
width = 811;
}
);
unicode = 0066;
},
{
glyphname = g;
lastChange = "2020-10-27 00:07:49 +0000";
layers = (
{
anchors = (
{
name = bottom;
position = "{599, -500}";
},
{
name = top;
position = "{599, 1100}";
}
);
layerId = "E12CB17E-1EC8-4945-BD17-D29BF6B71E7F";
paths = (
{
closed = 1;
nodes = (
"974 -560 OFFCURVE",
"1152 -386 OFFCURVE",
"1152 -144 CURVE SMOOTH",
"1152 84 OFFCURVE",
"985 145 OFFCURVE",
"661 153 CURVE SMOOTH",
"421 159 OFFCURVE",
"308 169 OFFCURVE",
"308 234 CURVE",
"308 291 OFFCURVE",
"374 366 OFFCURVE",
"454 422 CURVE",
"508 410 OFFCURVE",
"550 408 OFFCURVE",
"586 408 CURVE SMOOTH",
"814 408 OFFCURVE",
"1004 547 OFFCURVE",
"1004 784 CURVE SMOOTH",
"1004 954 OFFCURVE",
"890 1032 OFFCURVE",
"843 1059 CURVE",
"901 1091 OFFCURVE",
"976 1120 OFFCURVE",
"1038 1120 CURVE SMOOTH",
"1064 1120 OFFCURVE",
"1084 1120 OFFCURVE",
"1108 1116 CURVE",
"1130 1220 LINE",
"1098 1228 OFFCURVE",
"1064 1232 OFFCURVE",
"1038 1232 CURVE SMOOTH",
"936 1232 OFFCURVE",
"833 1185 OFFCURVE",
"745 1105 CURVE",
"710 1117 OFFCURVE",
"661 1130 OFFCURVE",
"586 1130 CURVE SMOOTH",
"408 1130 OFFCURVE",
"166 1040 OFFCURVE",
"166 774 CURVE SMOOTH",
"166 572 OFFCURVE",
"284 495 OFFCURVE",
"347 459 CURVE",
"257 387 OFFCURVE",
"188 288 OFFCURVE",
"188 212 CURVE SMOOTH",
"188 140 OFFCURVE",
"252 83 OFFCURVE",
"318 72 CURVE",
"208 18 OFFCURVE",
"128 -90 OFFCURVE",
"128 -234 CURVE SMOOTH",
"128 -454 OFFCURVE",
"350 -560 OFFCURVE",
"594 -560 CURVE SMOOTH"
);
},
{
closed = 1;
nodes = (
"416 -456 OFFCURVE",
"245 -386 OFFCURVE",
"245 -234 CURVE SMOOTH",
"245 -78 OFFCURVE",
"326 -9 OFFCURVE",
"424 47 CURVE",
"451 45 OFFCURVE",
"529 42 OFFCURVE",
"600 41 CURVE SMOOTH",
"904 36 OFFCURVE",
"1034 18 OFFCURVE",
"1034 -164 CURVE SMOOTH",
"1034 -344 OFFCURVE",
"900 -456 OFFCURVE",
"598 -456 CURVE SMOOTH"
);
},
{
closed = 1;
nodes = (
"470 500 OFFCURVE",
"286 550 OFFCURVE",
"286 774 CURVE SMOOTH",
"286 976 OFFCURVE",
"450 1038 OFFCURVE",
"586 1038 CURVE SMOOTH",
"722 1038 OFFCURVE",
"884 970 OFFCURVE",
"884 784 CURVE SMOOTH",
"884 560 OFFCURVE",
"713 500 OFFCURVE",
"586 500 CURVE SMOOTH"
);
}
);
width = 1198;
},
{
anchors = (
{
name = bottom;
position = "{618, -500}";
},
{
name = top;
position = "{618, 1100}";
}
);
layerId = master01;
paths = (
{
closed = 1;
nodes = (
"936 -514 OFFCURVE",
"1158 -356 OFFCURVE",
"1158 -78 CURVE SMOOTH",
"1158 178 OFFCURVE",
"921 227 OFFCURVE",
"682 227 CURVE SMOOTH",
"553 227 OFFCURVE",
"441 211 OFFCURVE",
"402 194 CURVE",
"402 235 OFFCURVE",
"416 314 OFFCURVE",
"470 374 CURVE",
"500 370 OFFCURVE",
"548 368 OFFCURVE",
"578 368 CURVE SMOOTH",
"752 368 OFFCURVE",
"1038 434 OFFCURVE",
"1038 762 CURVE SMOOTH",
"1038 860 OFFCURVE",
"986 954 OFFCURVE",
"922 992 CURVE",
"944 1004 OFFCURVE",
"980 1010 OFFCURVE",
"998 1010 CURVE SMOOTH",
"1036 1010 OFFCURVE",
"1070 1001 OFFCURVE",
"1120 980 CURVE",
"1158 1186 LINE",
"1112 1206 OFFCURVE",
"1051 1220 OFFCURVE",
"986 1220 CURVE SMOOTH",
"876 1220 OFFCURVE",
"768 1182 OFFCURVE",
"684 1114 CURVE",
"646 1122 OFFCURVE",
"610 1126 OFFCURVE",
"578 1126 CURVE SMOOTH {name = hr02;}",
"344 1126 OFFCURVE",
"116 1012 OFFCURVE",
"116 754 CURVE SMOOTH",
"116 606 OFFCURVE",
"180 516 OFFCURVE",
"258 454 CURVE",
"190 412 OFFCURVE",
"132 318 OFFCURVE",
"132 244 CURVE SMOOTH",
"132 154 OFFCURVE",
"180 118 OFFCURVE",
"228 88 CURVE",
"169 53 OFFCURVE",
"80 -46 OFFCURVE",
"80 -188 CURVE SMOOTH {name = hr01;}",
"80 -426 OFFCURVE",
"330 -514 OFFCURVE",
"586 -514 CURVE SMOOTH"
);
},
{
closed = 1;
nodes = (
"470 -296 OFFCURVE",
"346 -276 OFFCURVE",
"346 -168 CURVE SMOOTH",
"346 -89 OFFCURVE",
"377 -27 OFFCURVE",
"424 -11 CURVE",
"452 -6 OFFCURVE",
"508 4 OFFCURVE",
"584 4 CURVE SMOOTH",
"730 4 OFFCURVE",
"880 -1 OFFCURVE",
"880 -115 CURVE SMOOTH {name = hr03;}",
"880 -247 OFFCURVE",
"752 -296 OFFCURVE",
"586 -296 CURVE SMOOTH"
);
},
{
closed = 1;
nodes = (
"486 560 OFFCURVE",
"394 601 OFFCURVE",
"394 753 CURVE SMOOTH",
"394 879 OFFCURVE",
"486 936 OFFCURVE",
"578 936 CURVE SMOOTH",
"672 936 OFFCURVE",
"762 880 OFFCURVE",
"762 754 CURVE SMOOTH",
"762 616 OFFCURVE",
"672 560 OFFCURVE",
"578 560 CURVE SMOOTH"
);
}
);
width = 1236;
}
);
unicode = 0067;
},
{
glyphname = g.ss01;
lastChange = "2020-10-27 00:07:49 +0000";
layers = (
{
anchors = (
{
name = bottom;
position = "{600, 0}";
},
{
name = center;
position = "{600, 550}";
},
{
name = top;
position = "{608, 1100}";
}
);
layerId = "E12CB17E-1EC8-4945-BD17-D29BF6B71E7F";
paths = (
{
closed = 1;
nodes = (
"1025 254 LINE",
"1025 1100 LINE",
"905 1100 LINE",
"905 918 LINE",
"793 1042 OFFCURVE",
"652 1124 OFFCURVE",
"529 1124 CURVE SMOOTH",
"272 1124 OFFCURVE",
"100 906 OFFCURVE",
"100 532 CURVE SMOOTH",
"100 240 OFFCURVE",
"245 -20 OFFCURVE",
"509 -20 CURVE SMOOTH",
"625 -20 OFFCURVE",
"753 41 OFFCURVE",
"907 189 CURVE"
);
},
{
closed = 1;
nodes = (
"313 100 OFFCURVE",
"225 312 OFFCURVE",
"225 532 CURVE SMOOTH",
"225 824 OFFCURVE",
"346 996 OFFCURVE",
"529 996 CURVE SMOOTH",
"668 996 OFFCURVE",
"783 890 OFFCURVE",
"905 758 CURVE",
"905 346 LINE",
"793 224 OFFCURVE",
"658 100 OFFCURVE",
"507 100 CURVE SMOOTH"
);
},
{
closed = 1;
nodes = (
"259 -477 OFFCURVE",
"396 -501 OFFCURVE",
"517 -501 CURVE SMOOTH",
"829 -501 OFFCURVE",
"1025 -358 OFFCURVE",
"1025 -21 CURVE SMOOTH",
"1025 328 LINE",
"905 235 LINE",
"905 -34 LINE SMOOTH",
"905 -323 OFFCURVE",
"716 -390 OFFCURVE",
"512 -390 CURVE SMOOTH",
"422 -390 OFFCURVE",
"311 -369 OFFCURVE",
"227 -333 CURVE",
"177 -440 LINE"
);
}
);
width = 1115;
},
{
anchors = (
{
name = bottom;
position = "{620, 0}";
},
{
name = center;
position = "{620, 550}";
},
{
name = top;
position = "{638, 1100}";
}
);
layerId = master01;
paths = (
{
closed = 1;
nodes = (
"1096 308 LINE",
"1096 1100 LINE",
"816 1100 LINE",
"816 978 LINE",
"736 1062 OFFCURVE",
"650 1122 OFFCURVE",
"532 1122 CURVE SMOOTH",
"232 1122 OFFCURVE",
"60 906 OFFCURVE",
"60 534 CURVE SMOOTH",
"60 190 OFFCURVE",
"238 -14 OFFCURVE",
"490 -14 CURVE SMOOTH {name = hr00;}",
"632 -14 OFFCURVE",
"756 45 OFFCURVE",
"852 123 CURVE"
);
},
{
closed = 1;
nodes = (
"416 209 OFFCURVE",
"354 362 OFFCURVE",
"354 534 CURVE SMOOTH",
"354 764 OFFCURVE",
"410 896 OFFCURVE",
"542 896 CURVE SMOOTH",
"634 896 OFFCURVE",
"724 825 OFFCURVE",
"816 721 CURVE",
"816 404 LINE",
"758 314 OFFCURVE",
"650 209 OFFCURVE",
"514 209 CURVE SMOOTH"
);
},
{
closed = 1;
nodes = (
"289 -486 OFFCURVE",
"406 -501 OFFCURVE",
"517 -501 CURVE SMOOTH",
"829 -501 OFFCURVE",
"1096 -381 OFFCURVE",
"1096 -44 CURVE SMOOTH",
"1096 328 LINE",
"818 212 LINE {name = hr00;}",
"818 0 LINE SMOOTH",
"818 -141 OFFCURVE",
"716 -240 OFFCURVE",
"512 -240 CURVE SMOOTH",
"442 -240 OFFCURVE",
"361 -228 OFFCURVE",
"267 -203 CURVE",
"177 -460 LINE"
);
}
);
width = 1146;
}
);
leftKerningGroup = q;
leftMetricsKey = o;
rightMetricsKey = l;
},
{
glyphname = h;
lastChange = "2020-10-27 00:07:49 +0000";
layers = (
{
anchors = (
{
name = bottom;
position = "{596, 0}";
},
{
name = center;
position = "{237, 1363}";
},
{
name = top;
position = "{240, 1640}";
}
);
layerId = "E12CB17E-1EC8-4945-BD17-D29BF6B71E7F";
paths = (
{
closed = 1;
nodes = (
"300 0 LINE",
"300 731 LINE",
"448 862 OFFCURVE",
"618 1010 OFFCURVE",
"762 1010 CURVE SMOOTH",
"868 1010 OFFCURVE",
"922 966 OFFCURVE",
"922 800 CURVE SMOOTH",
"922 0 LINE",
"1042 0 LINE",
"1042 790 LINE SMOOTH",
"1042 1028 OFFCURVE",
"956 1124 OFFCURVE",
"790 1124 CURVE SMOOTH",
"622 1124 OFFCURVE",
"436 984 OFFCURVE",
"300 861 CURVE",
"300 1640 LINE",
"180 1640 LINE",
"180 0 LINE"
);
}
);
width = 1192;
},
{
anchors = (
{
name = bottom;
position = "{609, 0}";
},
{
name = center;
position = "{271, 1373}";
},
{
name = top;
position = "{262, 1640}";
}
);
layerId = master01;
paths = (
{
closed = 1;
nodes = (
"406 0 LINE {name = hr00;}",
"406 678 LINE",
"523 793 OFFCURVE",
"624 891 OFFCURVE",
"722 891 CURVE SMOOTH",
"790 891 OFFCURVE",
"814 849 OFFCURVE",
"814 758 CURVE SMOOTH",
"814 0 LINE",
"1094 0 LINE",
"1094 768 LINE SMOOTH",
"1094 988 OFFCURVE",
"998 1122 OFFCURVE",
"790 1122 CURVE SMOOTH",
"646 1122 OFFCURVE",
"516 1035 OFFCURVE",
"406 944 CURVE",
"406 1640 LINE",
"126 1640 LINE",
"126 0 LINE"
);
}
);
width = 1218;
}
);
leftKerningGroup = h;
rightKerningGroup = n;
unicode = 0068;
},
{
glyphname = hbar;
lastChange = "2020-10-27 00:07:49 +0000";
layers = (
{
components = (
{
name = h;
}
);
layerId = "E12CB17E-1EC8-4945-BD17-D29BF6B71E7F";
paths = (
{
closed = 1;
nodes = (
"22 1303 LINE",
"630 1303 LINE",
"630 1419 LINE",
"22 1419 LINE"
);
}
);
width = 1192;
},
{
components = (
{
name = h;
}
);
layerId = master01;
paths = (
{
closed = 1;
nodes = (
"-28 1268 LINE",
"778 1268 LINE",
"778 1480 LINE",
"-28 1480 LINE"
);
}
);
width = 1218;
}
);
unicode = 0127;
},
{
glyphname = i;
lastChange = "2020-10-27 00:07:49 +0000";
layers = (
{
anchors = (
{
name = bottom;
position = "{261, 0}";
}
);
layerId = "E12CB17E-1EC8-4945-BD17-D29BF6B71E7F";
paths = (
{
closed = 1;
nodes = (
"327 0 LINE",
"327 1100 LINE",
"207 1100 LINE",
"207 0 LINE"
);
},
{
closed = 1;
nodes = (
"308 1382 OFFCURVE",
"342 1414 OFFCURVE",
"342 1464 CURVE SMOOTH",
"342 1512 OFFCURVE",
"308 1542 OFFCURVE",
"268 1542 CURVE SMOOTH",
"224 1542 OFFCURVE",
"190 1512 OFFCURVE",
"190 1464 CURVE SMOOTH",
"190 1414 OFFCURVE",
"224 1382 OFFCURVE",
"268 1382 CURVE SMOOTH"
);
}
);
width = 502;
},
{
anchors = (
{
name = bottom;
position = "{299, 0}";
}
);
layerId = master01;
paths = (
{
closed = 1;
nodes = (
"440 0 LINE",
"440 1100 LINE",
"160 1100 LINE {name = hr00;}",
"160 0 LINE"
);
},
{
closed = 1;
nodes = (
"395 1265 OFFCURVE",
"464 1324 OFFCURVE",
"464 1408 CURVE SMOOTH",
"464 1490 OFFCURVE",
"395 1550 OFFCURVE",
"302 1550 CURVE SMOOTH",
"207 1550 OFFCURVE",
"136 1490 OFFCURVE",
"136 1408 CURVE SMOOTH",
"136 1325 OFFCURVE",
"207 1265 OFFCURVE",
"302 1265 CURVE SMOOTH"
);
}
);
width = 598;
}
);
leftKerningGroup = i;
leftMetricsKey = "=h+10";
rightKerningGroup = i;
rightMetricsKey = "=h+10";
unicode = 0069;
},
{
glyphname = idotless;
lastChange = "2020-10-27 00:07:49 +0000";
layers = (
{
anchors = (
{
name = bottom;
position = "{241, 0}";
},
{
name = ogonek;
position = "{300, 0}";
},
{
name = top;
position = "{241, 1100}";
}
);
layerId = "E12CB17E-1EC8-4945-BD17-D29BF6B71E7F";
paths = (
{
closed = 1;
nodes = (
"300 0 LINE",
"300 1100 LINE",
"190 1100 LINE",
"190 0 LINE"
);
}
);
width = 460;
},
{
anchors = (
{
name = bottom;
position = "{276, 0}";
},
{
name = ogonek;
position = "{402, 0}";
},
{
name = top;
position = "{276, 1100}";
}
);
layerId = master01;
paths = (
{
closed = 1;
nodes = (
"402 0 LINE",
"402 1100 LINE",
"136 1100 LINE {name = hr00;}",
"136 0 LINE"
);
}
);
width = 536;
}
);
leftKerningGroup = i;
leftMetricsKey = i;
rightKerningGroup = i;
rightMetricsKey = i;
unicode = 0131;
},
{
glyphname = j;
lastChange = "2020-10-27 00:07:49 +0000";
layers = (
{
layerId = "E12CB17E-1EC8-4945-BD17-D29BF6B71E7F";
paths = (
{
closed = 1;
nodes = (
"170 -433 OFFCURVE",
"280 -322 OFFCURVE",
"280 -60 CURVE SMOOTH",
"280 1100 LINE",
"160 1100 LINE",
"160 -70 LINE SMOOTH",
"160 -274 OFFCURVE",
"99 -356 OFFCURVE",
"-30 -469 CURVE",
"38 -560 LINE"
);
},
{
closed = 1;
nodes = (
"263 1382 OFFCURVE",
"297 1414 OFFCURVE",
"297 1464 CURVE SMOOTH",
"297 1512 OFFCURVE",
"263 1542 OFFCURVE",
"221 1542 CURVE SMOOTH",
"177 1542 OFFCURVE",
"145 1512 OFFCURVE",
"145 1464 CURVE SMOOTH",
"145 1414 OFFCURVE",
"177 1382 OFFCURVE",
"221 1382 CURVE SMOOTH"
);
}
);
width = 457;
},
{
layerId = master01;
paths = (
{
closed = 1;
nodes = (
"208 -411 OFFCURVE",
"371 -294 OFFCURVE",
"371 -44 CURVE SMOOTH",
"371 1100 LINE",
"93 1100 LINE {name = hr00;}",
"93 0 LINE SMOOTH",
"93 -132 OFFCURVE",
"21 -218 OFFCURVE",
"-115 -304 CURVE",
"38 -515 LINE"
);
},
{
closed = 1;
nodes = (
"328 1265 OFFCURVE",
"397 1324 OFFCURVE",
"397 1408 CURVE SMOOTH",
"397 1490 OFFCURVE",
"328 1550 OFFCURVE",
"235 1550 CURVE SMOOTH",
"140 1550 OFFCURVE",
"69 1490 OFFCURVE",
"69 1408 CURVE SMOOTH",
"69 1325 OFFCURVE",
"140 1265 OFFCURVE",
"235 1265 CURVE SMOOTH"
);
}
);
width = 531;
}
);
leftKerningGroup = j;
rightKerningGroup = i;
rightMetricsKey = i;
unicode = 006A;
},
{
glyphname = jdotless;
lastChange = "2020-10-27 00:07:49 +0000";
layers = (
{
layerId = "E12CB17E-1EC8-4945-BD17-D29BF6B71E7F";
paths = (
{
closed = 1;
nodes = (
"170 -433 OFFCURVE",
"280 -322 OFFCURVE",
"280 -60 CURVE SMOOTH",
"280 1100 LINE",
"160 1100 LINE",
"160 -70 LINE SMOOTH",
"160 -274 OFFCURVE",
"99 -356 OFFCURVE",
"-30 -469 CURVE",
"38 -560 LINE"
);
}
);
width = 440;
},
{
layerId = master01;
paths = (
{
closed = 1;
nodes = (
"208 -411 OFFCURVE",
"371 -294 OFFCURVE",
"371 -44 CURVE SMOOTH",
"371 1100 LINE",
"93 1100 LINE {name = hr00;}",
"93 0 LINE SMOOTH",
"93 -132 OFFCURVE",
"21 -218 OFFCURVE",
"-115 -304 CURVE",
"38 -515 LINE"
);
}
);
width = 505;
}
);
leftMetricsKey = j;
rightMetricsKey = j;
unicode = 0237;
},
{
glyphname = k;
lastChange = "2020-10-27 00:07:49 +0000";
layers = (
{
anchors = (
{
name = bottom;
position = "{544, 0}";
},
{
name = top;
position = "{238, 1640}";
}
);
layerId = "E12CB17E-1EC8-4945-BD17-D29BF6B71E7F";
paths = (
{
closed = 1;
nodes = (
"300 0 LINE",
"300 510 LINE",
"333 543 OFFCURVE",
"360 568 OFFCURVE",
"383 568 CURVE SMOOTH",
"422 568 OFFCURVE",
"431 560 OFFCURVE",
"472 511 CURVE SMOOTH",
"798 117 LINE SMOOTH",
"842 63 OFFCURVE",
"881 18 OFFCURVE",
"915 0 CURVE",
"1068 0 LINE",
"1030 24 OFFCURVE",
"979 73 OFFCURVE",
"946 113 CURVE SMOOTH",
"550 595 LINE SMOOTH",
"515 638 OFFCURVE",
"502 650 OFFCURVE",
"456 652 CURVE",
"932 1100 LINE",
"780 1100 LINE",
"300 651 LINE",
"300 1640 LINE",
"180 1640 LINE",
"180 0 LINE"
);
}
);
width = 1088;
},
{
anchors = (
{
name = bottom;
position = "{576, 0}";
},
{
name = top;
position = "{271, 1640}";
}
);
layerId = master01;
paths = (
{
closed = 1;
nodes = (
"406 0 LINE",
"406 453 LINE",
"410 459 OFFCURVE",
"420 468 OFFCURVE",
"434 468 CURVE SMOOTH",
"448 468 OFFCURVE",
"456 463 OFFCURVE",
"494 412 CURVE SMOOTH",
"729 97 LINE SMOOTH",
"764 50 OFFCURVE",
"800 9 OFFCURVE",
"828 0 CURVE",
"1148 0 LINE {name = hr00;}",
"1121 14 OFFCURVE",
"1088 51 OFFCURVE",
"1041 116 CURVE SMOOTH",
"723 551 LINE SMOOTH",
"685 602 OFFCURVE",
"649 632 OFFCURVE",
"595 635 CURVE",
"1046 1100 LINE",
"708 1100 LINE",
"406 774 LINE",
"406 1640 LINE",
"126 1640 LINE",
"126 0 LINE"
);
}
);
width = 1152;
}
);
leftKerningGroup = h;
leftMetricsKey = h;
unicode = 006B;
},
{
glyphname = l;
lastChange = "2020-10-27 00:07:49 +0000";
layers = (
{
anchors = (
{
name = bottom;
position = "{258, 0}";
},
{
name = center;
position = "{258, 820}";
},
{
name = top;
position = "{258, 1640}";
},
{
name = topright;
position = "{402, 1100}";
}
);
layerId = "E12CB17E-1EC8-4945-BD17-D29BF6B71E7F";
paths = (
{
closed = 1;
nodes = (
"458 80 LINE",
"354 105 OFFCURVE",
"300 160 OFFCURVE",
"300 292 CURVE SMOOTH",
"300 1640 LINE",
"180 1640 LINE",
"180 282 LINE SMOOTH",
"180 79 OFFCURVE",
"295 -3 OFFCURVE",
"404 -24 CURVE"
);
}
);
width = 548;
},
{
anchors = (
{
name = bottom;
position = "{291, 0}";
},
{
name = center;
position = "{291, 820}";
},
{
name = top;
position = "{291, 1640}";
},
{
name = topright;
position = "{492, 1100}";
}
);
layerId = master01;
paths = (
{
closed = 1;
nodes = (
"550 131 LINE",
"448 164 OFFCURVE",
"406 269 OFFCURVE",
"406 391 CURVE SMOOTH",
"406 1640 LINE",
"126 1640 LINE {name = hr00;}",
"126 308 LINE SMOOTH",
"126 83 OFFCURVE",
"278 0 OFFCURVE",
"370 -22 CURVE"
);
}
);
width = 600;
}
);
leftMetricsKey = h;
unicode = 006C;
},
{
glyphname = lslash;
lastChange = "2020-10-27 00:07:49 +0000";
layers = (
{
components = (
{
name = l;
}
);
layerId = "E12CB17E-1EC8-4945-BD17-D29BF6B71E7F";
paths = (
{
closed = 1;
nodes = (
"34 500 LINE",
"549 1015 LINE",
"479 1085 LINE",
"-36 570 LINE"
);
}
);
width = 548;
},
{
components = (
{
name = l;
}
);
layerId = master01;
paths = (
{
closed = 1;
nodes = (
"45 401 LINE",
"665 1021 LINE",
"511 1175 LINE",
"-109 555 LINE"
);
}
);
width = 600;
}
);
unicode = 0142;
},
{
glyphname = m;
lastChange = "2020-10-27 00:07:49 +0000";
layers = (
{
anchors = (
{
name = bottom;
position = "{907, 0}";
},
{
name = top;
position = "{907, 1100}";
}
);
layerId = "E12CB17E-1EC8-4945-BD17-D29BF6B71E7F";
paths = (
{
closed = 1;
nodes = (
"300 0 LINE",
"300 728 LINE",
"417 838 OFFCURVE",
"622 1004 OFFCURVE",
"742 1004 CURVE SMOOTH",
"830 1004 OFFCURVE",
"866 916 OFFCURVE",
"866 790 CURVE SMOOTH",
"866 0 LINE",
"986 0 LINE",
"986 728 LINE",
"1102 838 OFFCURVE",
"1306 1004 OFFCURVE",
"1428 1004 CURVE SMOOTH",
"1516 1004 OFFCURVE",
"1558 916 OFFCURVE",
"1558 790 CURVE SMOOTH",
"1558 0 LINE",
"1678 0 LINE",
"1678 790 LINE SMOOTH",
"1678 998 OFFCURVE",
"1604 1124 OFFCURVE",
"1438 1124 CURVE SMOOTH",
"1280 1124 OFFCURVE",
"1126 996 OFFCURVE",
"988 872 CURVE",
"972 1056 OFFCURVE",
"892 1124 OFFCURVE",
"752 1124 CURVE SMOOTH",
"596 1124 OFFCURVE",
"442 996 OFFCURVE",
"300 870 CURVE",
"300 1100 LINE",
"180 1100 LINE",
"180 0 LINE"
);
}
);
width = 1816;
},
{
anchors = (
{
name = bottom;
position = "{912, 0}";
},
{
name = top;
position = "{912, 1100}";
}
);
layerId = master01;
paths = (
{
closed = 1;
nodes = (
"406 0 LINE",
"406 672 LINE",
"486 777 OFFCURVE",
"595 890 OFFCURVE",
"672 890 CURVE SMOOTH",
"733 890 OFFCURVE",
"752 849 OFFCURVE",
"752 759 CURVE SMOOTH",
"752 0 LINE",
"1032 0 LINE",
"1032 672 LINE",
"1108 777 OFFCURVE",
"1224 891 OFFCURVE",
"1306 891 CURVE SMOOTH",
"1370 891 OFFCURVE",
"1390 849 OFFCURVE",
"1390 759 CURVE SMOOTH",
"1390 0 LINE",
"1670 0 LINE",
"1670 768 LINE SMOOTH",
"1670 988 OFFCURVE",
"1586 1122 OFFCURVE",
"1386 1122 CURVE SMOOTH",
"1234 1122 OFFCURVE",
"1110 1019 OFFCURVE",
"1004 922 CURVE",
"985 1024 OFFCURVE",
"900 1122 OFFCURVE",
"760 1122 CURVE SMOOTH",
"624 1122 OFFCURVE",
"506 1022 OFFCURVE",
"406 928 CURVE",
"406 1100 LINE {name = hr01;}",
"126 1100 LINE",
"126 0 LINE"
);
}
);
width = 1778;
}
);
leftKerningGroup = n;
leftMetricsKey = n;
rightKerningGroup = n;
rightMetricsKey = n;
unicode = 006D;
},
{
glyphname = n;
lastChange = "2020-10-27 00:07:49 +0000";
layers = (
{
anchors = (
{
name = bottom;
position = "{590, 0}";
},
{
name = top;
position = "{590, 1100}";
}
);
layerId = "E12CB17E-1EC8-4945-BD17-D29BF6B71E7F";
paths = (
{
closed = 1;
nodes = (
"300 0 LINE",
"300 731 LINE",
"448 862 OFFCURVE",
"618 1010 OFFCURVE",
"762 1010 CURVE SMOOTH",
"868 1010 OFFCURVE",
"922 966 OFFCURVE",
"922 800 CURVE SMOOTH",
"922 0 LINE",
"1042 0 LINE",
"1042 790 LINE SMOOTH",
"1042 1028 OFFCURVE",
"956 1124 OFFCURVE",
"790 1124 CURVE SMOOTH",
"622 1124 OFFCURVE",
"436 984 OFFCURVE",
"300 861 CURVE",
"300 1100 LINE",
"180 1100 LINE",
"180 0 LINE"
);
}
);
width = 1180;
},
{
anchors = (
{
name = bottom;
position = "{601, 0}";
},
{
name = top;
position = "{601, 1100}";
}
);
layerId = master01;
paths = (
{
closed = 1;
nodes = (
"406 0 LINE {name = hr00;}",
"406 678 LINE",
"523 793 OFFCURVE",
"624 891 OFFCURVE",
"722 891 CURVE SMOOTH",
"790 891 OFFCURVE",
"814 849 OFFCURVE",
"814 758 CURVE SMOOTH",
"814 0 LINE",
"1094 0 LINE",
"1094 768 LINE SMOOTH",
"1094 988 OFFCURVE",
"998 1122 OFFCURVE",
"790 1122 CURVE SMOOTH",
"646 1122 OFFCURVE",
"516 1035 OFFCURVE",
"406 944 CURVE",
"406 1100 LINE",
"126 1100 LINE",
"126 0 LINE"
);
}
);
width = 1202;
}
);
leftKerningGroup = n;
leftMetricsKey = h;
rightKerningGroup = n;
unicode = 006E;
},
{
glyphname = eng;
lastChange = "2020-10-27 00:07:49 +0000";
layers = (
{
components = (
{
name = n;
}
);
layerId = "E12CB17E-1EC8-4945-BD17-D29BF6B71E7F";
paths = (
{
closed = 1;
nodes = (
"854 -472 OFFCURVE",
"1042 -354 OFFCURVE",
"1042 -56 CURVE SMOOTH",
"1042 30 LINE",
"922 30 LINE",
"922 -56 LINE SMOOTH",
"922 -252 OFFCURVE",
"798 -358 OFFCURVE",
"672 -402 CURVE",
"724 -522 LINE"
);
}
);
width = 1180;
},
{
components = (
{
name = n;
}
);
layerId = master01;
paths = (
{
closed = 1;
nodes = (
"850 -433 OFFCURVE",
"1094 -297 OFFCURVE",
"1094 4 CURVE SMOOTH",
"1094 75 LINE",
"814 75 LINE {name = hr00;}",
"814 4 LINE SMOOTH",
"814 -92 OFFCURVE",
"733 -204 OFFCURVE",
"566 -286 CURVE",
"668 -514 LINE"
);
}
);
width = 1202;
}
);
leftKerningGroup = n;
leftMetricsKey = n;
rightKerningGroup = n;
rightMetricsKey = n;
unicode = 014B;
},
{
glyphname = o;
lastChange = "2020-10-27 00:07:49 +0000";
layers = (
{
anchors = (
{
name = bottom;
position = "{585, 0}";
},
{
name = center;
position = "{585, 550}";
},
{
name = ogonek;
position = "{901, 109}";
},
{
name = top;
position = "{585, 1100}";
},
{
name = topright;
position = "{895, 1000}";
}
);
layerId = "E12CB17E-1EC8-4945-BD17-D29BF6B71E7F";
paths = (
{
closed = 1;
nodes = (
"809 -24 OFFCURVE",
"1070 136 OFFCURVE",
"1070 550 CURVE SMOOTH",
"1070 964 OFFCURVE",
"809 1124 OFFCURVE",
"585 1124 CURVE SMOOTH",
"361 1124 OFFCURVE",
"100 964 OFFCURVE",
"100 550 CURVE SMOOTH",
"100 136 OFFCURVE",
"361 -24 OFFCURVE",
"585 -24 CURVE SMOOTH"
);
},
{
closed = 1;
nodes = (
"423 86 OFFCURVE",
"220 204 OFFCURVE",
"220 550 CURVE SMOOTH",
"220 896 OFFCURVE",
"423 1014 OFFCURVE",
"585 1014 CURVE SMOOTH",
"747 1014 OFFCURVE",
"950 896 OFFCURVE",
"950 550 CURVE SMOOTH",
"950 204 OFFCURVE",
"747 86 OFFCURVE",
"585 86 CURVE SMOOTH"
);
}
);
width = 1170;
},
{
anchors = (
{
name = bottom;
position = "{583, 0}";
},
{
name = center;
position = "{583, 550}";
},
{
name = ogonek;
position = "{923, 101}";
},
{
name = top;
position = "{583, 1100}";
},
{
name = topright;
position = "{916, 1000}";
}
);
layerId = master01;
paths = (
{
closed = 1;
nodes = (
"838 -22 OFFCURVE",
"1106 130 OFFCURVE",
"1106 550 CURVE SMOOTH",
"1106 970 OFFCURVE",
"838 1122 OFFCURVE",
"583 1122 CURVE SMOOTH",
"328 1122 OFFCURVE",
"60 970 OFFCURVE",
"60 550 CURVE SMOOTH {name = hr00;}",
"60 130 OFFCURVE",
"328 -22 OFFCURVE",
"583 -22 CURVE SMOOTH"
);
},
{
closed = 1;
nodes = (
"467 198 OFFCURVE",
"350 280 OFFCURVE",
"350 550 CURVE SMOOTH",
"350 820 OFFCURVE",
"467 902 OFFCURVE",
"583 902 CURVE SMOOTH",
"697 902 OFFCURVE",
"816 820 OFFCURVE",
"816 550 CURVE SMOOTH",
"816 280 OFFCURVE",
"696 198 OFFCURVE",
"583 198 CURVE SMOOTH"
);
}
);
width = 1166;
}
);
leftKerningGroup = o;
rightKerningGroup = o;
unicode = 006F;
},
{
glyphname = oslash;
lastChange = "2020-10-27 00:07:49 +0000";
layers = (
{
anchors = (
{
name = top;
position = "{585, 1100}";
}
);
components = (
{
name = o;
}
);
layerId = "E12CB17E-1EC8-4945-BD17-D29BF6B71E7F";
paths = (
{
closed = 1;
nodes = (
"294 -61 LINE",
"956 1111 LINE",
"878 1161 LINE",
"216 -11 LINE"
);
}
);
width = 1170;
},
{
anchors = (
{
name = top;
position = "{583, 1100}";
}
);
components = (
{
name = o;
}
);
layerId = master01;
paths = (
{
closed = 1;
nodes = (
"281 -41 LINE",
"1063 1009 LINE",
"876 1140 LINE {name = hr00;}",
"94 90 LINE"
);
}
);
width = 1166;
}
);
leftKerningGroup = o;
leftMetricsKey = o;
rightKerningGroup = o;
rightMetricsKey = o;
unicode = 00F8;
},
{
glyphname = oe;
lastChange = "2020-10-27 00:07:49 +0000";
layers = (
{
anchors = (
{
name = bottom;
position = "{970, 0}";
},
{
name = top;
position = "{970, 1100}";
}
);
components = (
{
alignment = -1;
name = e;
transform = "{1, 0, 0, 1, 852, 0}";
}
);
layerId = "E12CB17E-1EC8-4945-BD17-D29BF6B71E7F";
paths = (
{
closed = 1;
nodes = (
"809 -24 OFFCURVE",
"1070 136 OFFCURVE",
"1070 550 CURVE SMOOTH",
"1070 964 OFFCURVE",
"809 1124 OFFCURVE",
"585 1124 CURVE SMOOTH",
"361 1124 OFFCURVE",
"100 964 OFFCURVE",
"100 550 CURVE SMOOTH",
"100 136 OFFCURVE",
"361 -24 OFFCURVE",
"585 -24 CURVE SMOOTH"
);
},
{
closed = 1;
nodes = (
"423 86 OFFCURVE",
"220 204 OFFCURVE",
"220 550 CURVE SMOOTH",
"220 896 OFFCURVE",
"423 1014 OFFCURVE",
"585 1014 CURVE SMOOTH",
"747 1014 OFFCURVE",
"950 896 OFFCURVE",
"950 550 CURVE SMOOTH",
"950 204 OFFCURVE",
"747 86 OFFCURVE",
"585 86 CURVE SMOOTH"
);
}
);
width = 1940;
},
{
anchors = (
{
name = bottom;
position = "{929, 0}";
},
{
name = top;
position = "{929, 1100}";
}
);
components = (
{
alignment = -1;
name = e;
transform = "{1, 0, 0, 1, 762, 0}";
}
);
layerId = master01;
paths = (
{
closed = 1;
nodes = (
"838 -22 OFFCURVE",
"1106 130 OFFCURVE",
"1106 550 CURVE SMOOTH",
"1106 970 OFFCURVE",
"838 1122 OFFCURVE",
"583 1122 CURVE SMOOTH",
"328 1122 OFFCURVE",
"60 970 OFFCURVE",
"60 550 CURVE SMOOTH {name = hr00;}",
"60 130 OFFCURVE",
"328 -22 OFFCURVE",
"583 -22 CURVE SMOOTH"
);
},
{
closed = 1;
nodes = (
"467 198 OFFCURVE",
"350 280 OFFCURVE",
"350 550 CURVE SMOOTH",
"350 820 OFFCURVE",
"467 902 OFFCURVE",
"583 902 CURVE SMOOTH",
"697 902 OFFCURVE",
"816 820 OFFCURVE",
"816 550 CURVE SMOOTH",
"816 280 OFFCURVE",
"696 198 OFFCURVE",
"583 198 CURVE SMOOTH"
);
}
);
width = 1857;
}
);
leftKerningGroup = o;
leftMetricsKey = o;
rightKerningGroup = e;
rightMetricsKey = e;
unicode = 0153;
},
{
glyphname = p;
lastChange = "2020-10-27 00:07:49 +0000";
layers = (
{
anchors = (
{
name = bottom;
position = "{617, 0}";
},
{
name = top;
position = "{617, 1100}";
}
);
layerId = "E12CB17E-1EC8-4945-BD17-D29BF6B71E7F";
paths = (
{
closed = 1;
nodes = (
"926 -24 OFFCURVE",
"1124 194 OFFCURVE",
"1124 568 CURVE SMOOTH",
"1124 860 OFFCURVE",
"1004 1124 OFFCURVE",
"716 1124 CURVE SMOOTH",
"544 1124 OFFCURVE",
"410 1012 OFFCURVE",
"300 900 CURVE",
"300 1100 LINE",
"180 1100 LINE",
"180 -500 LINE",
"300 -500 LINE",
"300 158 LINE",
"424 40 OFFCURVE",
"510 -24 OFFCURVE",
"648 -24 CURVE SMOOTH"
);
},
{
closed = 1;
nodes = (
"502 92 OFFCURVE",
"408 183 OFFCURVE",
"300 296 CURVE",
"300 764 LINE",
"412 876 OFFCURVE",
"544 1004 OFFCURVE",
"716 1004 CURVE SMOOTH",
"920 1004 OFFCURVE",
"1004 788 OFFCURVE",
"1004 568 CURVE SMOOTH",
"1004 276 OFFCURVE",
"850 92 OFFCURVE",
"648 92 CURVE SMOOTH"
);
}
);
width = 1224;
},
{
anchors = (
{
name = bottom;
position = "{610, 0}";
},
{
name = top;
position = "{610, 1100}";
}
);
layerId = master01;
paths = (
{
closed = 1;
nodes = (
"944 -22 OFFCURVE",
"1160 194 OFFCURVE",
"1160 566 CURVE SMOOTH",
"1160 941 OFFCURVE",
"960 1122 OFFCURVE",
"718 1122 CURVE SMOOTH",
"598 1122 OFFCURVE",
"488 1035 OFFCURVE",
"406 967 CURVE",
"406 1100 LINE",
"126 1100 LINE",
"126 -500 LINE",
"406 -500 LINE",
"406 96 LINE",
"453 44 OFFCURVE",
"530 -22 OFFCURVE",
"662 -22 CURVE SMOOTH {name = hr01;}"
);
},
{
closed = 1;
nodes = (
"572 197 OFFCURVE",
"488 239 OFFCURVE",
"406 317 CURVE",
"406 716 LINE",
"482 796 OFFCURVE",
"582 898 OFFCURVE",
"688 898 CURVE SMOOTH",
"814 898 OFFCURVE",
"870 738 OFFCURVE",
"870 566 CURVE SMOOTH",
"870 336 OFFCURVE",
"784 197 OFFCURVE",
"652 197 CURVE SMOOTH"
);
}
);
width = 1220;
}
);
leftKerningGroup = n;
leftMetricsKey = h;
rightKerningGroup = o;
rightMetricsKey = o;
unicode = 0070;
},
{
glyphname = thorn;
lastChange = "2020-10-27 00:07:49 +0000";
layers = (
{
anchors = (
{
name = bottom;
position = "{608, 0}";
},
{
name = top;
position = "{608, 1100}";
}
);
layerId = "E12CB17E-1EC8-4945-BD17-D29BF6B71E7F";
paths = (
{
closed = 1;
nodes = (
"288 -500 LINE",
"288 188 LINE",
"358 84 OFFCURVE",
"480 -24 OFFCURVE",
"656 -24 CURVE SMOOTH",
"934 -24 OFFCURVE",
"1140 184 OFFCURVE",
"1140 558 CURVE SMOOTH",
"1140 920 OFFCURVE",
"946 1124 OFFCURVE",
"712 1124 CURVE SMOOTH",
"520 1124 OFFCURVE",
"368 1000 OFFCURVE",
"288 874 CURVE",
"288 1640 LINE",
"180 1640 LINE",
"180 -500 LINE"
);
},
{
closed = 1;
nodes = (
"514 92 OFFCURVE",
"378 206 OFFCURVE",
"288 326 CURVE",
"288 720 LINE",
"358 830 OFFCURVE",
"478 1001 OFFCURVE",
"712 1001 CURVE SMOOTH",
"876 1001 OFFCURVE",
"1010 848 OFFCURVE",
"1010 558 CURVE SMOOTH",
"1010 266 OFFCURVE",
"866 92 OFFCURVE",
"664 92 CURVE SMOOTH"
);
}
);
width = 1216;
},
{
anchors = (
{
name = bottom;
position = "{627, 0}";
},
{
name = top;
position = "{627, 1100}";
}
);
layerId = master01;
paths = (
{
closed = 1;
nodes = (
"394 -500 LINE",
"394 84 LINE",
"452 32 OFFCURVE",
"556 -22 OFFCURVE",
"658 -22 CURVE SMOOTH {name = hr01;}",
"960 -22 OFFCURVE",
"1156 204 OFFCURVE",
"1156 566 CURVE SMOOTH",
"1156 906 OFFCURVE",
"972 1122 OFFCURVE",
"710 1122 CURVE SMOOTH",
"564 1122 OFFCURVE",
"458 1052 OFFCURVE",
"394 966 CURVE",
"394 1640 LINE",
"128 1640 LINE",
"128 -500 LINE"
);
},
{
closed = 1;
nodes = (
"572 202 OFFCURVE",
"478 246 OFFCURVE",
"394 324 CURVE",
"394 716 LINE",
"454 814 OFFCURVE",
"547 898 OFFCURVE",
"663 898 CURVE SMOOTH",
"779 898 OFFCURVE",
"866 788 OFFCURVE",
"866 566 CURVE SMOOTH",
"866 326 OFFCURVE",
"780 202 OFFCURVE",
"648 202 CURVE SMOOTH"
);
}
);
width = 1254;
}
);
unicode = 00FE;
},
{
glyphname = q;
lastChange = "2020-10-27 00:07:49 +0000";
layers = (
{
anchors = (
{
name = bottom;
position = "{552, 0}";
},
{
name = top;
position = "{552, 1100}";
}
);
layerId = "E12CB17E-1EC8-4945-BD17-D29BF6B71E7F";
paths = (
{
closed = 1;
nodes = (
"1044 -500 LINE",
"1044 910 LINE",
"1044 973 OFFCURVE",
"1049 1027 OFFCURVE",
"1063 1100 CURVE",
"943 1100 LINE",
"929 1023 OFFCURVE",
"924 967 OFFCURVE",
"924 900 CURVE",
"814 1012 OFFCURVE",
"680 1124 OFFCURVE",
"508 1124 CURVE SMOOTH",
"220 1124 OFFCURVE",
"100 860 OFFCURVE",
"100 568 CURVE SMOOTH",
"100 194 OFFCURVE",
"298 -24 OFFCURVE",
"576 -24 CURVE SMOOTH",
"714 -24 OFFCURVE",
"800 40 OFFCURVE",
"924 158 CURVE",
"924 -500 LINE"
);
},
{
closed = 1;
nodes = (
"374 92 OFFCURVE",
"220 276 OFFCURVE",
"220 568 CURVE SMOOTH",
"220 788 OFFCURVE",
"304 1004 OFFCURVE",
"508 1004 CURVE SMOOTH",
"680 1004 OFFCURVE",
"812 876 OFFCURVE",
"924 764 CURVE",
"924 296 LINE",
"816 183 OFFCURVE",
"722 92 OFFCURVE",
"576 92 CURVE SMOOTH"
);
}
);
width = 1153;
},
{
anchors = (
{
name = bottom;
position = "{563, 0}";
},
{
name = top;
position = "{563, 1100}";
}
);
layerId = master01;
paths = (
{
closed = 1;
nodes = (
"1094 -500 LINE",
"1094 939 LINE",
"1094 993 OFFCURVE",
"1102 1046 OFFCURVE",
"1114 1100 CURVE",
"844 1100 LINE",
"824 1056 OFFCURVE",
"814 1009 OFFCURVE",
"814 967 CURVE",
"732 1035 OFFCURVE",
"622 1122 OFFCURVE",
"502 1122 CURVE SMOOTH",
"260 1122 OFFCURVE",
"60 941 OFFCURVE",
"60 566 CURVE SMOOTH",
"60 194 OFFCURVE",
"276 -22 OFFCURVE",
"558 -22 CURVE SMOOTH {name = hr01;}",
"690 -22 OFFCURVE",
"767 44 OFFCURVE",
"814 96 CURVE",
"814 -500 LINE"
);
},
{
closed = 1;
nodes = (
"436 197 OFFCURVE",
"350 336 OFFCURVE",
"350 566 CURVE SMOOTH",
"350 738 OFFCURVE",
"406 898 OFFCURVE",
"532 898 CURVE SMOOTH",
"638 898 OFFCURVE",
"738 796 OFFCURVE",
"814 716 CURVE",
"814 317 LINE",
"732 239 OFFCURVE",
"648 197 OFFCURVE",
"568 197 CURVE SMOOTH"
);
}
);
width = 1164;
}
);
leftKerningGroup = o;
leftMetricsKey = o;
rightKerningGroup = n;
rightMetricsKey = d;
unicode = 0071;
},
{
glyphname = r;
lastChange = "2020-10-27 00:07:49 +0000";
layers = (
{
anchors = (
{
name = bottom;
position = "{425, 0}";
},
{
name = top;
position = "{481, 1100}";
}
);
layerId = "E12CB17E-1EC8-4945-BD17-D29BF6B71E7F";
paths = (
{
closed = 1;
nodes = (
"300 0 LINE",
"300 776 LINE",
"405 891 OFFCURVE",
"532 1012 OFFCURVE",
"628 1012 CURVE SMOOTH",
"685 1012 OFFCURVE",
"713 995 OFFCURVE",
"758 950 CURVE",
"838 1032 LINE",
"781 1092 OFFCURVE",
"720 1124 OFFCURVE",
"640 1124 CURVE SMOOTH",
"516 1124 OFFCURVE",
"408 1028 OFFCURVE",
"300 914 CURVE",
"300 1100 LINE",
"180 1100 LINE",
"180 0 LINE"
);
}
);
width = 888;
},
{
anchors = (
{
name = bottom;
position = "{447, 0}";
},
{
name = top;
position = "{521, 1100}";
}
);
layerId = master01;
paths = (
{
closed = 1;
nodes = (
"406 0 LINE",
"406 698 LINE",
"497 788 OFFCURVE",
"591 862 OFFCURVE",
"644 862 CURVE SMOOTH",
"694 862 OFFCURVE",
"730 832 OFFCURVE",
"770 792 CURVE",
"922 1002 LINE",
"857 1064 OFFCURVE",
"789 1121 OFFCURVE",
"693 1121 CURVE SMOOTH",
"599 1121 OFFCURVE",
"490 1045 OFFCURVE",
"406 967 CURVE",
"406 1100 LINE {name = hr01;}",
"126 1100 LINE",
"126 0 LINE"
);
}
);
width = 922;
}
);
leftKerningGroup = n;
leftMetricsKey = n;
rightKerningGroup = r;
unicode = 0072;
},
{
glyphname = s;
lastChange = "2020-10-27 00:07:49 +0000";
layers = (
{
anchors = (
{
name = bottom;
position = "{501, 0}";
},
{
name = top;
position = "{501, 1100}";
}
);
layerId = "E12CB17E-1EC8-4945-BD17-D29BF6B71E7F";
paths = (
{
closed = 1;
nodes = (
"699 -24 OFFCURVE",
"895 77 OFFCURVE",
"895 293 CURVE SMOOTH",
"895 513 OFFCURVE",
"726 577 OFFCURVE",
"539 635 CURVE SMOOTH",
"375 686 OFFCURVE",
"273 732 OFFCURVE",
"273 852 CURVE SMOOTH",
"273 952 OFFCURVE",
"357 1012 OFFCURVE",
"503 1012 CURVE SMOOTH",
"633 1012 OFFCURVE",
"691 976 OFFCURVE",
"751 900 CURVE",
"844 973 LINE",
"783 1051 OFFCURVE",
"665 1124 OFFCURVE",
"503 1124 CURVE SMOOTH",
"353 1124 OFFCURVE",
"153 1045 OFFCURVE",
"153 835 CURVE SMOOTH",
"153 669 OFFCURVE",
"288 584 OFFCURVE",
"477 532 CURVE SMOOTH",
"639 487 OFFCURVE",
"775 429 OFFCURVE",
"775 285 CURVE SMOOTH",
"775 141 OFFCURVE",
"657 88 OFFCURVE",
"525 88 CURVE SMOOTH",
"367 88 OFFCURVE",
"261 166 OFFCURVE",
"189 266 CURVE",
"95 192 LINE",
"189 52 OFFCURVE",
"353 -24 OFFCURVE",
"515 -24 CURVE SMOOTH"
);
}
);
width = 990;
},
{
anchors = (
{
name = bottom;
position = "{502, 0}";
},
{
name = top;
position = "{502, 1100}";
}
);
layerId = master01;
paths = (
{
closed = 1;
nodes = (
"734 -22 OFFCURVE",
"944 86 OFFCURVE",
"944 318 CURVE SMOOTH",
"944 552 OFFCURVE",
"725 632 OFFCURVE",
"572 682 CURVE SMOOTH",
"457 720 OFFCURVE",
"388 748 OFFCURVE",
"388 814 CURVE SMOOTH {name = hr00;}",
"388 891 OFFCURVE",
"446 910 OFFCURVE",
"504 910 CURVE SMOOTH",
"576 910 OFFCURVE",
"640 886 OFFCURVE",
"704 814 CURVE",
"894 966 LINE",
"798 1060 OFFCURVE",
"658 1122 OFFCURVE",
"504 1122 CURVE SMOOTH",
"328 1122 OFFCURVE",
"110 1034 OFFCURVE",
"110 804 CURVE SMOOTH",
"110 608 OFFCURVE",
"267 511 OFFCURVE",
"414 464 CURVE SMOOTH",
"563 416 OFFCURVE",
"666 373 OFFCURVE",
"666 296 CURVE SMOOTH",
"666 212 OFFCURVE",
"604 190 OFFCURVE",
"528 190 CURVE SMOOTH",
"430 190 OFFCURVE",
"318 256 OFFCURVE",
"250 382 CURVE",
"60 230 LINE",
"158 62 OFFCURVE",
"314 -22 OFFCURVE",
"524 -22 CURVE SMOOTH"
);
}
);
width = 1004;
}
);
leftKerningGroup = s;
rightKerningGroup = s;
unicode = 0073;
},
{
glyphname = germandbls;
lastChange = "2020-10-27 00:07:49 +0000";
layers = (
{
anchors = (
{
name = bottom;
position = "{636, 0}";
},
{
name = top;
position = "{636, 1100}";
}
);
layerId = "E12CB17E-1EC8-4945-BD17-D29BF6B71E7F";
paths = (
{
closed = 1;
nodes = (
"330 0 LINE",
"330 1320 LINE",
"344 1492 OFFCURVE",
"458 1558 OFFCURVE",
"624 1558 CURVE SMOOTH",
"722 1558 OFFCURVE",
"918 1498 OFFCURVE",
"922 1294 CURVE SMOOTH",
"922 1010 OFFCURVE",
"694 944 OFFCURVE",
"536 932 CURVE",
"536 822 LINE",
"776 824 OFFCURVE",
"1058 776 OFFCURVE",
"1058 490 CURVE SMOOTH",
"1058 298 OFFCURVE",
"982 128 OFFCURVE",
"650 128 CURVE SMOOTH",
"620 128 OFFCURVE",
"574 132 OFFCURVE",
"540 136 CURVE",
"540 16 LINE",
"580 6 OFFCURVE",
"622 0 OFFCURVE",
"652 0 CURVE SMOOTH",
"1102 0 OFFCURVE",
"1170 270 OFFCURVE",
"1170 490 CURVE SMOOTH",
"1170 724 OFFCURVE",
"1016 856 OFFCURVE",
"846 906 CURVE",
"954 986 OFFCURVE",
"1032 1108 OFFCURVE",
"1034 1288 CURVE SMOOTH",
"1034 1596 OFFCURVE",
"780 1674 OFFCURVE",
"624 1674 CURVE SMOOTH",
"396 1674 OFFCURVE",
"220 1570 OFFCURVE",
"220 1320 CURVE SMOOTH",
"220 1100 LINE",
"72 1100 LINE",
"72 996 LINE",
"220 996 LINE",
"220 0 LINE"
);
}
);
width = 1272;
},
{
anchors = (
{
name = bottom;
position = "{655, 0}";
},
{
name = top;
position = "{655, 1100}";
}
);
layerId = master01;
paths = (
{
closed = 1;
nodes = (
"408 0 LINE",
"408 1242 LINE",
"418 1360 OFFCURVE",
"510 1404 OFFCURVE",
"612 1404 CURVE SMOOTH",
"672 1404 OFFCURVE",
"814 1362 OFFCURVE",
"816 1220 CURVE SMOOTH",
"816 996 OFFCURVE",
"640 950 OFFCURVE",
"508 944 CURVE",
"508 738 LINE",
"714 744 OFFCURVE",
"938 716 OFFCURVE",
"938 496 CURVE SMOOTH",
"938 352 OFFCURVE",
"906 224 OFFCURVE",
"676 224 CURVE SMOOTH",
"642 224 OFFCURVE",
"588 230 OFFCURVE",
"512 250 CURVE",
"512 26 LINE",
"582 2 OFFCURVE",
"636 0 OFFCURVE",
"678 0 CURVE SMOOTH",
"1154 0 OFFCURVE",
"1208 272 OFFCURVE",
"1208 496 CURVE SMOOTH",
"1208 704 OFFCURVE",
"1098 828 OFFCURVE",
"960 890 CURVE",
"1034 964 OFFCURVE",
"1084 1072 OFFCURVE",
"1086 1216 CURVE SMOOTH",
"1086 1536 OFFCURVE",
"784 1618 OFFCURVE",
"612 1618 CURVE SMOOTH",
"360 1618 OFFCURVE",
"142 1506 OFFCURVE",
"142 1244 CURVE SMOOTH",
"142 1100 LINE {name = hr01;}",
"10 1100 LINE",
"10 898 LINE",
"142 898 LINE",
"142 0 LINE"
);
}
);
width = 1310;
}
);
unicode = 00DF;
},
{
glyphname = t;
lastChange = "2020-10-27 00:07:49 +0000";
layers = (
{
anchors = (
{
name = bottom;
position = "{395, 0}";
},
{
name = center;
position = "{268, 610}";
},
{
name = top;
position = "{273, 1501}";
},
{
name = topright;
position = "{630, 1100}";
}
);
layerId = "E12CB17E-1EC8-4945-BD17-D29BF6B71E7F";
paths = (
{
closed = 1;
nodes = (
"540 -24 OFFCURVE",
"610 14 OFFCURVE",
"690 86 CURVE",
"612 171 LINE",
"559 115 OFFCURVE",
"516 91 OFFCURVE",
"444 91 CURVE SMOOTH",
"350 91 OFFCURVE",
"330 166 OFFCURVE",
"330 312 CURVE SMOOTH",
"330 980 LINE",
"604 980 LINE",
"604 1100 LINE",
"330 1100 LINE",
"330 1500 LINE",
"210 1500 LINE",
"210 1100 LINE",
"64 1100 LINE",
"64 980 LINE",
"210 980 LINE",
"210 282 LINE SMOOTH",
"210 78 OFFCURVE",
"282 -24 OFFCURVE",
"434 -24 CURVE SMOOTH"
);
}
);
width = 750;
},
{
anchors = (
{
name = bottom;
position = "{413, 0}";
},
{
name = center;
position = "{313, 580}";
},
{
name = top;
position = "{307, 1504}";
},
{
name = topright;
position = "{706, 1100}";
}
);
layerId = master01;
paths = (
{
closed = 1;
nodes = (
"593 -22 OFFCURVE",
"685 18 OFFCURVE",
"793 132 CURVE",
"631 286 LINE",
"569 224 OFFCURVE",
"523 194 OFFCURVE",
"487 194 CURVE SMOOTH",
"451 194 OFFCURVE",
"435 232 OFFCURVE",
"435 324 CURVE SMOOTH",
"435 878 LINE",
"683 878 LINE",
"683 1100 LINE",
"435 1100 LINE",
"435 1500 LINE",
"167 1500 LINE",
"167 1100 LINE",
"25 1100 LINE",
"25 878 LINE {name = hr00;}",
"167 878 LINE",
"167 304 LINE SMOOTH",
"167 73 OFFCURVE",
"289 -22 OFFCURVE",
"455 -22 CURVE SMOOTH"
);
}
);
width = 795;
}
);
leftKerningGroup = f;
leftMetricsKey = f;
unicode = 0074;
},
{
glyphname = tbar;
lastChange = "2020-10-27 00:07:49 +0000";
layers = (
{
components = (
{
name = t;
}
);
layerId = "E12CB17E-1EC8-4945-BD17-D29BF6B71E7F";
paths = (
{
closed = 1;
nodes = (
"68 531 LINE",
"515 531 LINE",
"515 647 LINE",
"68 647 LINE"
);
}
);
width = 750;
},
{
components = (
{
name = t;
}
);
layerId = master01;
paths = (
{
closed = 1;
nodes = (
"42 478 LINE",
"589 478 LINE",
"589 690 LINE",
"42 690 LINE"
);
}
);
width = 795;
}
);
leftKerningGroup = t;
rightKerningGroup = t;
unicode = 0167;
},
{
glyphname = u;
lastChange = "2020-10-27 00:07:49 +0000";
layers = (
{
anchors = (
{
name = bottom;
position = "{590, 0}";
},
{
name = ogonek;
position = "{1042, 0}";
},
{
name = top;
position = "{590, 1100}";
},
{
name = topright;
position = "{998, 1100}";
}
);
layerId = "E12CB17E-1EC8-4945-BD17-D29BF6B71E7F";
paths = (
{
closed = 1;
nodes = (
"600 -24 OFFCURVE",
"786 116 OFFCURVE",
"922 239 CURVE",
"922 0 LINE",
"1042 0 LINE",
"1042 1100 LINE",
"922 1100 LINE",
"922 369 LINE",
"774 238 OFFCURVE",
"604 90 OFFCURVE",
"460 90 CURVE SMOOTH",
"354 90 OFFCURVE",
"300 134 OFFCURVE",
"300 300 CURVE SMOOTH",
"300 1100 LINE",
"180 1100 LINE",
"180 310 LINE SMOOTH",
"180 72 OFFCURVE",
"266 -24 OFFCURVE",
"432 -24 CURVE SMOOTH"
);
}
);
width = 1180;
},
{
anchors = (
{
name = bottom;
position = "{601, 0}";
},
{
name = ogonek;
position = "{1094, 0}";
},
{
name = top;
position = "{601, 1100}";
},
{
name = topright;
position = "{1039, 1100}";
}
);
layerId = master01;
paths = (
{
closed = 1;
nodes = (
"574 -22 OFFCURVE",
"704 72 OFFCURVE",
"814 153 CURVE",
"814 0 LINE",
"1094 0 LINE",
"1094 1100 LINE",
"814 1100 LINE {name = hr00;}",
"814 402 LINE",
"697 297 OFFCURVE",
"596 209 OFFCURVE",
"498 209 CURVE SMOOTH",
"430 209 OFFCURVE",
"406 251 OFFCURVE",
"406 342 CURVE SMOOTH",
"406 1100 LINE",
"126 1100 LINE",
"126 332 LINE SMOOTH",
"126 112 OFFCURVE",
"222 -22 OFFCURVE",
"430 -22 CURVE SMOOTH"
);
}
);
width = 1202;
}
);
leftMetricsKey = h;
rightMetricsKey = n;
unicode = 0075;
},
{
glyphname = v;
lastChange = "2020-10-27 00:07:49 +0000";
layers = (
{
anchors = (
{
name = bottom;
position = "{502, 0}";
},
{
name = top;
position = "{502, 1100}";
}
);
layerId = "E12CB17E-1EC8-4945-BD17-D29BF6B71E7F";
paths = (
{
closed = 1;
nodes = (
"577 0 LINE",
"847 842 LINE SMOOTH",
"885 960 OFFCURVE",
"921 1070 OFFCURVE",
"956 1100 CURVE",
"831 1100 LINE",
"798 1070 OFFCURVE",
"774 998 OFFCURVE",
"736 875 CURVE SMOOTH",
"515 158 LINE SMOOTH",
"511 145 OFFCURVE",
"505 120 OFFCURVE",
"502 98 CURVE",
"499 121 OFFCURVE",
"493 144 OFFCURVE",
"489 157 CURVE SMOOTH",
"180 1100 LINE",
"50 1100 LINE",
"424 0 LINE"
);
}
);
width = 1006;
},
{
anchors = (
{
name = bottom;
position = "{554, 0}";
},
{
name = top;
position = "{554, 1100}";
}
);
layerId = master01;
paths = (
{
closed = 1;
nodes = (
"703 0 LINE",
"964 834 LINE SMOOTH",
"1003 960 OFFCURVE",
"1043 1050 OFFCURVE",
"1079 1100 CURVE {name = hr00;}",
"797 1100 LINE",
"772 1079 OFFCURVE",
"740 1005 OFFCURVE",
"711 897 CURVE SMOOTH",
"569 360 LINE SMOOTH",
"562 332 OFFCURVE",
"556 291 OFFCURVE",
"554 262 CURVE",
"552 292 OFFCURVE",
"546 333 OFFCURVE",
"538 362 CURVE SMOOTH",
"323 1100 LINE",
"25 1100 LINE {name = hr00;}",
"407 0 LINE"
);
}
);
width = 1104;
}
);
leftKerningGroup = v;
rightKerningGroup = v;
unicode = 0076;
},
{
glyphname = w;
lastChange = "2020-10-27 00:07:49 +0000";
layers = (
{
anchors = (
{
name = bottom;
position = "{764, 0}";
},
{
name = top;
position = "{759, 1100}";
}
);
layerId = "E12CB17E-1EC8-4945-BD17-D29BF6B71E7F";
paths = (
{
closed = 1;
nodes = (
"506 0 LINE",
"741 947 LINE",
"745 961 OFFCURVE",
"750 981 OFFCURVE",
"752 996 CURVE",
"754 981 OFFCURVE",
"759 961 OFFCURVE",
"763 946 CURVE",
"1010 0 LINE",
"1160 0 LINE",
"1424 937 LINE SMOOTH",
"1450 1028 OFFCURVE",
"1476 1088 OFFCURVE",
"1488 1100 CURVE",
"1358 1100 LINE",
"1348 1083 OFFCURVE",
"1330 1033 OFFCURVE",
"1310 958 CURVE SMOOTH",
"1094 161 LINE SMOOTH",
"1090 146 OFFCURVE",
"1086 128 OFFCURVE",
"1085 116 CURVE",
"1084 128 OFFCURVE",
"1080 146 OFFCURVE",
"1076 161 CURVE SMOOTH",
"831 1100 LINE",
"670 1100 LINE",
"442 161 LINE SMOOTH",
"438 146 OFFCURVE",
"434 128 OFFCURVE",
"433 116 CURVE",
"432 128 OFFCURVE",
"428 146 OFFCURVE",
"424 161 CURVE SMOOTH",
"180 1100 LINE",
"50 1100 LINE",
"356 0 LINE"
);
}
);
width = 1538;
},
{
anchors = (
{
name = bottom;
position = "{788, 0}";
},
{
name = top;
position = "{788, 1100}";
}
);
layerId = master01;
paths = (
{
closed = 1;
nodes = (
"583 0 LINE {name = hr00;}",
"755 653 LINE SMOOTH",
"760 673 OFFCURVE",
"764 696 OFFCURVE",
"765 716 CURVE",
"765 696 OFFCURVE",
"770 674 OFFCURVE",
"775 655 CURVE SMOOTH",
"947 0 LINE",
"1173 0 LINE",
"1440 856 LINE SMOOTH",
"1480 985 OFFCURVE",
"1526 1075 OFFCURVE",
"1551 1100 CURVE",
"1279 1100 LINE",
"1257 1088 OFFCURVE",
"1221 1027 OFFCURVE",
"1194 938 CURVE SMOOTH",
"1066 516 LINE SMOOTH",
"1061 500 OFFCURVE",
"1054 454 OFFCURVE",
"1053 438 CURVE",
"1052 454 OFFCURVE",
"1051 499 OFFCURVE",
"1046 515 CURVE SMOOTH",
"877 1100 LINE",
"649 1100 LINE",
"485 515 LINE SMOOTH",
"481 501 OFFCURVE",
"474 456 OFFCURVE",
"473 442 CURVE",
"472 456 OFFCURVE",
"472 501 OFFCURVE",
"468 515 CURVE SMOOTH",
"309 1100 LINE",
"25 1100 LINE",
"343 0 LINE"
);
}
);
width = 1576;
}
);
leftKerningGroup = v;
leftMetricsKey = v;
rightKerningGroup = v;
rightMetricsKey = v;
unicode = 0077;
},
{
glyphname = x;
lastChange = "2020-10-27 00:07:49 +0000";
layers = (
{
anchors = (
{
name = bottom;
position = "{556, 0}";
},
{
name = top;
position = "{556, 1100}";
}
);
layerId = "E12CB17E-1EC8-4945-BD17-D29BF6B71E7F";
paths = (
{
closed = 1;
nodes = (
"224 0 LINE",
"564 472 LINE",
"878 0 LINE",
"1032 0 LINE",
"642 564 LINE",
"801 798 OFFCURVE",
"934 992 OFFCURVE",
"1032 1100 CURVE",
"890 1100 LINE",
"856 1064 OFFCURVE",
"721 884 OFFCURVE",
"568 658 CURVE",
"264 1100 LINE",
"112 1100 LINE",
"490 562 LINE",
"80 0 LINE"
);
}
);
width = 1112;
},
{
anchors = (
{
name = bottom;
position = "{623, 0}";
},
{
name = top;
position = "{623, 1100}";
}
);
layerId = master01;
paths = (
{
closed = 1;
nodes = (
"366 0 LINE",
"623 362 LINE",
"858 0 LINE",
"1194 0 LINE",
"784 564 LINE",
"980 829 OFFCURVE",
"1128 1022 OFFCURVE",
"1236 1100 CURVE",
"914 1100 LINE",
"878 1073 OFFCURVE",
"779 962 OFFCURVE",
"635 772 CURVE",
"412 1100 LINE",
"76 1100 LINE {name = hr00;}",
"476 562 LINE",
"50 0 LINE"
);
}
);
width = 1246;
}
);
leftKerningGroup = x;
rightKerningGroup = x;
unicode = 0078;
},
{
glyphname = y;
lastChange = "2020-10-27 00:07:49 +0000";
layers = (
{
anchors = (
{
name = bottom;
position = "{742, 0}";
},
{
name = top;
position = "{518, 1100}";
}
);
layerId = "E12CB17E-1EC8-4945-BD17-D29BF6B71E7F";
paths = (
{
closed = 1;
nodes = (
"307 -521 OFFCURVE",
"406 -393 OFFCURVE",
"493 -164 CURVE SMOOTH",
"856 789 OFFCURVE",
"954 1036 OFFCURVE",
"1010 1100 CURVE",
"878 1100 LINE",
"838 1052 OFFCURVE",
"747 824 OFFCURVE",
"505 168 CURVE",
"170 1100 LINE",
"32 1100 LINE",
"442 14 LINE",
"382 -134 LINE SMOOTH",
"282 -381 OFFCURVE",
"219 -414 OFFCURVE",
"34 -458 CURVE",
"72 -568 LINE"
);
}
);
width = 1060;
},
{
anchors = (
{
name = bottom;
position = "{877, 0}";
},
{
name = top;
position = "{621, 1100}";
}
);
layerId = master01;
paths = (
{
closed = 1;
nodes = (
"419 -470 OFFCURVE",
"576 -302 OFFCURVE",
"689 0 CURVE SMOOTH",
"1025 894 OFFCURVE",
"1075 1008 OFFCURVE",
"1159 1100 CURVE",
"851 1100 LINE",
"786 1018 OFFCURVE",
"734 902 OFFCURVE",
"567 378 CURVE",
"329 1100 LINE",
"29 1100 LINE {name = hr00;}",
"421 40 LINE",
"376 -74 LINE SMOOTH",
"318 -222 OFFCURVE",
"217 -270 OFFCURVE",
"25 -300 CURVE",
"95 -510 LINE"
);
}
);
width = 1184;
}
);
leftKerningGroup = v;
rightKerningGroup = v;
rightMetricsKey = v;
unicode = 0079;
},
{
glyphname = z;
lastChange = "2020-10-27 00:07:49 +0000";
layers = (
{
anchors = (
{
name = bottom;
position = "{503, 0}";
},
{
name = center;
position = "{503, 550}";
},
{
name = top;
position = "{503, 1100}";
}
);
layerId = "E12CB17E-1EC8-4945-BD17-D29BF6B71E7F";
paths = (
{
closed = 1;
nodes = (
"776 0 LINE SMOOTH",
"816 0 OFFCURVE",
"872 5 OFFCURVE",
"896 20 CURVE",
"896 134 LINE",
"860 122 OFFCURVE",
"808 120 OFFCURVE",
"780 120 CURVE SMOOTH",
"224 120 LINE",
"862 974 LINE",
"862 1100 LINE",
"90 1100 LINE",
"90 980 LINE",
"728 980 LINE",
"90 122 LINE",
"90 0 LINE"
);
}
);
width = 986;
},
{
anchors = (
{
name = bottom;
position = "{528, 0}";
},
{
name = center;
position = "{528, 550}";
},
{
name = top;
position = "{528, 1100}";
}
);
layerId = master01;
paths = (
{
closed = 1;
nodes = (
"747 0 LINE SMOOTH",
"829 0 OFFCURVE",
"893 5 OFFCURVE",
"939 34 CURVE",
"939 258 LINE {name = hr00;}",
"875 226 OFFCURVE",
"829 220 OFFCURVE",
"749 220 CURVE SMOOTH",
"377 220 LINE",
"907 900 LINE",
"907 1100 LINE",
"65 1100 LINE",
"65 880 LINE",
"595 880 LINE",
"65 200 LINE",
"65 0 LINE"
);
}
);
width = 1004;
}
);
unicode = 007A;
},
{
glyphname = f_f;
lastChange = "2020-10-27 00:07:49 +0000";
layers = (
{
anchors = (
{
name = caret_1;
position = "{678.5, 0}";
}
);
layerId = "E12CB17E-1EC8-4945-BD17-D29BF6B71E7F";
paths = (
{
closed = 1;
nodes = (
"332 0 LINE",
"332 984 LINE",
"668 984 LINE",
"668 1100 LINE",
"332 1100 LINE",
"332 1300 LINE SMOOTH",
"332 1485 OFFCURVE",
"472 1542 OFFCURVE",
"588 1542 CURVE SMOOTH",
"676 1542 OFFCURVE",
"773 1487 OFFCURVE",
"842 1442 CURVE",
"914 1536 LINE",
"850 1577 OFFCURVE",
"718 1650 OFFCURVE",
"592 1650 CURVE SMOOTH",
"376 1650 OFFCURVE",
"212 1532 OFFCURVE",
"212 1310 CURVE SMOOTH",
"212 1100 LINE",
"64 1100 LINE",
"64 984 LINE",
"212 984 LINE",
"212 0 LINE"
);
},
{
closed = 1;
nodes = (
"901 0 LINE",
"901 984 LINE",
"1308 984 LINE",
"1308 1100 LINE",
"901 1100 LINE",
"901 1300 LINE SMOOTH",
"901 1440 OFFCURVE",
"933 1546 OFFCURVE",
"1099 1546 CURVE SMOOTH",
"1185 1546 OFFCURVE",
"1297 1491 OFFCURVE",
"1365 1438 CURVE",
"1437 1518 LINE",
"1381 1562 OFFCURVE",
"1267 1650 OFFCURVE",
"1097 1650 CURVE SMOOTH",
"881 1650 OFFCURVE",
"791 1502 OFFCURVE",
"791 1300 CURVE SMOOTH",
"791 1100 LINE",
"645 1100 LINE",
"645 984 LINE",
"791 984 LINE",
"791 0 LINE"
);
}
);
width = 1357;
},
{
anchors = (
{
name = caret_1;
position = "{768, 0}";
}
);
layerId = master01;
paths = (
{
closed = 1;
nodes = (
"439 0 LINE",
"439 880 LINE",
"741 880 LINE",
"741 1100 LINE",
"439 1100 LINE",
"439 1278 LINE SMOOTH {name = hr00;}",
"439 1380 OFFCURVE",
"496 1444 OFFCURVE",
"587 1444 CURVE SMOOTH",
"693 1444 OFFCURVE",
"797 1388 OFFCURVE",
"877 1334 CURVE",
"1008 1510 LINE",
"912 1575 OFFCURVE",
"763 1648 OFFCURVE",
"587 1648 CURVE SMOOTH",
"351 1648 OFFCURVE",
"159 1512 OFFCURVE",
"159 1288 CURVE SMOOTH",
"159 1100 LINE",
"25 1100 LINE",
"25 880 LINE",
"159 880 LINE",
"159 0 LINE"
);
},
{
closed = 1;
nodes = (
"1120 0 LINE",
"1120 880 LINE",
"1432 880 LINE",
"1432 1100 LINE",
"1120 1100 LINE",
"1120 1244 LINE SMOOTH",
"1120 1338 OFFCURVE",
"1134 1412 OFFCURVE",
"1212 1412 CURVE SMOOTH {name = hr01;}",
"1286 1412 OFFCURVE",
"1365 1360 OFFCURVE",
"1459 1295 CURVE",
"1613 1449 LINE",
"1503 1535 OFFCURVE",
"1370 1614 OFFCURVE",
"1210 1614 CURVE SMOOTH",
"956 1614 OFFCURVE",
"852 1458 OFFCURVE",
"852 1244 CURVE SMOOTH",
"852 1100 LINE",
"718 1100 LINE",
"718 880 LINE",
"852 880 LINE",
"852 0 LINE"
);
}
);
width = 1536;
}
);
leftKerningGroup = f;
leftMetricsKey = f;
rightKerningGroup = f;
rightMetricsKey = f;
},
{
glyphname = f_f_i;
lastChange = "2020-10-27 00:07:49 +0000";
layers = (
{
anchors = (
{
name = caret_1;
position = "{568.333, 0}";
},
{
name = caret_2;
position = "{1136.667, 0}";
}
);
layerId = "E12CB17E-1EC8-4945-BD17-D29BF6B71E7F";
paths = (
{
closed = 1;
nodes = (
"332 0 LINE",
"332 984 LINE",
"668 984 LINE",
"668 1100 LINE",
"332 1100 LINE",
"332 1300 LINE SMOOTH",
"332 1485 OFFCURVE",
"472 1542 OFFCURVE",
"588 1542 CURVE SMOOTH",
"676 1542 OFFCURVE",
"773 1487 OFFCURVE",
"842 1442 CURVE",
"914 1536 LINE",
"850 1577 OFFCURVE",
"718 1650 OFFCURVE",
"592 1650 CURVE SMOOTH",
"376 1650 OFFCURVE",
"212 1532 OFFCURVE",
"212 1310 CURVE SMOOTH",
"212 1100 LINE",
"64 1100 LINE",
"64 984 LINE",
"212 984 LINE",
"212 0 LINE"
);
},
{
closed = 1;
nodes = (
"901 0 LINE",
"901 984 LINE",
"1435 984 LINE",
"1435 0 LINE",
"1545 0 LINE",
"1545 1100 LINE",
"901 1100 LINE",
"901 1300 LINE SMOOTH",
"901 1440 OFFCURVE",
"933 1546 OFFCURVE",
"1099 1546 CURVE SMOOTH",
"1185 1546 OFFCURVE",
"1345 1461 OFFCURVE",
"1441 1404 CURVE",
"1513 1484 LINE",
"1455 1526 OFFCURVE",
"1267 1650 OFFCURVE",
"1097 1650 CURVE SMOOTH",
"881 1650 OFFCURVE",
"791 1502 OFFCURVE",
"791 1300 CURVE SMOOTH",
"791 1100 LINE",
"645 1100 LINE",
"645 984 LINE",
"791 984 LINE",
"791 0 LINE"
);
}
);
width = 1705;
},
{
anchors = (
{
name = caret_1;
position = "{611.333, 0}";
},
{
name = caret_2;
position = "{1222.667, 0}";
}
);
layerId = master01;
paths = (
{
closed = 1;
nodes = (
"439 0 LINE",
"439 880 LINE",
"741 880 LINE",
"741 1100 LINE",
"439 1100 LINE",
"439 1278 LINE SMOOTH {name = hr00;}",
"439 1380 OFFCURVE",
"496 1444 OFFCURVE",
"587 1444 CURVE SMOOTH",
"693 1444 OFFCURVE",
"797 1388 OFFCURVE",
"877 1334 CURVE",
"1008 1510 LINE",
"912 1575 OFFCURVE",
"763 1648 OFFCURVE",
"587 1648 CURVE SMOOTH",
"351 1648 OFFCURVE",
"159 1512 OFFCURVE",
"159 1288 CURVE SMOOTH",
"159 1100 LINE",
"25 1100 LINE",
"25 880 LINE",
"159 880 LINE",
"159 0 LINE"
);
},
{
closed = 1;
nodes = (
"1120 0 LINE",
"1120 880 LINE",
"1432 880 LINE",
"1432 0 LINE",
"1700 0 LINE",
"1700 1100 LINE",
"1120 1100 LINE",
"1120 1244 LINE SMOOTH",
"1120 1338 OFFCURVE",
"1134 1412 OFFCURVE",
"1212 1412 CURVE SMOOTH {name = hr01;}",
"1286 1412 OFFCURVE",
"1438 1325 OFFCURVE",
"1532 1260 CURVE",
"1686 1414 LINE",
"1576 1500 OFFCURVE",
"1370 1614 OFFCURVE",
"1210 1614 CURVE SMOOTH",
"956 1614 OFFCURVE",
"852 1458 OFFCURVE",
"852 1244 CURVE SMOOTH",
"852 1100 LINE",
"718 1100 LINE",
"718 880 LINE",
"852 880 LINE",
"852 0 LINE"
);
}
);
width = 1834;
}
);
leftKerningGroup = f;
leftMetricsKey = f;
rightKerningGroup = i;
rightMetricsKey = i;
},
{
glyphname = f_f_l;
lastChange = "2020-10-27 00:07:49 +0000";
layers = (
{
anchors = (
{
name = caret_1;
position = "{605.667, 0}";
},
{
name = caret_2;
position = "{1211.333, 0}";
}
);
components = (
{
name = fl;
transform = "{1, 0, 0, 1, 575, 0}";
}
);
layerId = "E12CB17E-1EC8-4945-BD17-D29BF6B71E7F";
paths = (
{
closed = 1;
nodes = (
"332 0 LINE",
"332 984 LINE",
"668 984 LINE",
"668 1100 LINE",
"332 1100 LINE",
"332 1300 LINE SMOOTH",
"332 1485 OFFCURVE",
"472 1542 OFFCURVE",
"588 1542 CURVE SMOOTH",
"676 1542 OFFCURVE",
"773 1487 OFFCURVE",
"842 1442 CURVE",
"914 1536 LINE",
"850 1577 OFFCURVE",
"718 1650 OFFCURVE",
"592 1650 CURVE SMOOTH",
"376 1650 OFFCURVE",
"212 1532 OFFCURVE",
"212 1310 CURVE SMOOTH",
"212 1100 LINE",
"64 1100 LINE",
"64 984 LINE",
"212 984 LINE",
"212 0 LINE"
);
}
);
width = 1817;
},
{
anchors = (
{
name = caret_1;
position = "{684, 0}";
},
{
name = caret_2;
position = "{1368, 0}";
}
);
components = (
{
name = fl;
transform = "{1, 0, 0, 1, 691, 0}";
}
);
layerId = master01;
paths = (
{
closed = 1;
nodes = (
"439 0 LINE",
"439 880 LINE",
"741 880 LINE",
"741 1100 LINE",
"439 1100 LINE",
"439 1278 LINE SMOOTH {name = hr00;}",
"439 1380 OFFCURVE",
"496 1444 OFFCURVE",
"587 1444 CURVE SMOOTH",
"693 1444 OFFCURVE",
"797 1388 OFFCURVE",
"877 1334 CURVE",
"1008 1510 LINE",
"912 1575 OFFCURVE",
"763 1648 OFFCURVE",
"587 1648 CURVE SMOOTH",
"351 1648 OFFCURVE",
"159 1512 OFFCURVE",
"159 1288 CURVE SMOOTH",
"159 1100 LINE",
"25 1100 LINE",
"25 880 LINE",
"159 880 LINE",
"159 0 LINE"
);
}
);
width = 2052;
}
);
leftKerningGroup = f;
leftMetricsKey = f;
rightKerningGroup = l;
rightMetricsKey = l;
},
{
glyphname = fi;
lastChange = "2020-10-27 00:07:49 +0000";
layers = (
{
anchors = (
{
name = caret_1;
position = "{562, 0}";
}
);
layerId = "E12CB17E-1EC8-4945-BD17-D29BF6B71E7F";
paths = (
{
closed = 1;
nodes = (
"320 0 LINE",
"320 996 LINE",
"854 996 LINE",
"854 0 LINE",
"964 0 LINE",
"964 1100 LINE",
"320 1100 LINE",
"320 1300 LINE SMOOTH",
"320 1440 OFFCURVE",
"352 1546 OFFCURVE",
"518 1546 CURVE SMOOTH",
"604 1546 OFFCURVE",
"764 1461 OFFCURVE",
"860 1404 CURVE",
"932 1484 LINE",
"874 1526 OFFCURVE",
"686 1650 OFFCURVE",
"516 1650 CURVE SMOOTH",
"300 1650 OFFCURVE",
"210 1502 OFFCURVE",
"210 1300 CURVE SMOOTH",
"210 1100 LINE",
"64 1100 LINE",
"64 996 LINE",
"210 996 LINE",
"210 0 LINE"
);
}
);
width = 1124;
},
{
anchors = (
{
name = caret_1;
position = "{570.5, 0}";
}
);
layerId = master01;
paths = (
{
closed = 1;
nodes = (
"427 0 LINE",
"427 898 LINE",
"739 898 LINE",
"739 0 LINE",
"1007 0 LINE",
"1007 1100 LINE",
"427 1100 LINE",
"427 1244 LINE SMOOTH",
"429 1338 OFFCURVE",
"441 1412 OFFCURVE",
"519 1412 CURVE SMOOTH {name = hr01;}",
"593 1412 OFFCURVE",
"745 1325 OFFCURVE",
"839 1260 CURVE",
"993 1414 LINE",
"883 1500 OFFCURVE",
"677 1614 OFFCURVE",
"517 1614 CURVE SMOOTH",
"263 1614 OFFCURVE",
"159 1458 OFFCURVE",
"159 1244 CURVE SMOOTH",
"159 1100 LINE",
"25 1100 LINE",
"25 898 LINE",
"159 898 LINE",
"159 0 LINE"
);
}
);
width = 1141;
}
);
leftKerningGroup = f;
leftMetricsKey = f;
rightKerningGroup = i;
rightMetricsKey = i;
unicode = FB01;
},
{
glyphname = fl;
lastChange = "2020-10-27 00:07:49 +0000";
layers = (
{
anchors = (
{
name = caret_1;
position = "{621, 0}";
}
);
layerId = "E12CB17E-1EC8-4945-BD17-D29BF6B71E7F";
paths = (
{
closed = 1;
nodes = (
"332 0 LINE",
"332 984 LINE",
"628 984 LINE",
"628 1100 LINE",
"332 1100 LINE",
"332 1300 LINE SMOOTH",
"332 1495 OFFCURVE",
"492 1542 OFFCURVE",
"608 1542 CURVE SMOOTH",
"736 1542 OFFCURVE",
"839 1493 OFFCURVE",
"908 1448 CURVE",
"994 1538 LINE",
"930 1579 OFFCURVE",
"788 1650 OFFCURVE",
"622 1650 CURVE SMOOTH",
"406 1650 OFFCURVE",
"212 1542 OFFCURVE",
"212 1310 CURVE SMOOTH",
"212 1100 LINE",
"64 1100 LINE",
"64 984 LINE",
"212 984 LINE",
"212 0 LINE"
);
},
{
closed = 1;
nodes = (
"1152 80 LINE",
"1048 105 OFFCURVE",
"994 160 OFFCURVE",
"994 292 CURVE SMOOTH",
"994 1538 LINE",
"874 1490 LINE",
"874 282 LINE SMOOTH",
"874 79 OFFCURVE",
"989 -3 OFFCURVE",
"1098 -24 CURVE"
);
}
);
width = 1242;
},
{
anchors = (
{
name = caret_1;
position = "{680.5, 0}";
}
);
layerId = master01;
paths = (
{
closed = 1;
nodes = (
"439 0 LINE",
"439 880 LINE",
"691 880 LINE",
"691 1100 LINE",
"439 1100 LINE",
"439 1258 LINE SMOOTH {name = hr00;}",
"439 1420 OFFCURVE",
"559 1444 OFFCURVE",
"668 1444 CURVE SMOOTH",
"770 1444 OFFCURVE",
"860 1397 OFFCURVE",
"940 1323 CURVE",
"1167 1469 LINE",
"1091 1544 OFFCURVE",
"897 1648 OFFCURVE",
"668 1648 CURVE SMOOTH",
"412 1648 OFFCURVE",
"159 1532 OFFCURVE",
"159 1268 CURVE SMOOTH",
"159 1100 LINE",
"25 1100 LINE",
"25 880 LINE",
"159 880 LINE",
"159 0 LINE"
);
},
{
closed = 1;
nodes = (
"1311 131 LINE",
"1209 164 OFFCURVE",
"1167 269 OFFCURVE",
"1167 391 CURVE SMOOTH",
"1167 1469 LINE",
"887 1405 LINE {name = hr00;}",
"887 308 LINE SMOOTH",
"887 83 OFFCURVE",
"1039 0 OFFCURVE",
"1131 -22 CURVE"
);
}
);
width = 1361;
}
);
leftKerningGroup = f;
leftMetricsKey = f;
rightKerningGroup = l;
rightMetricsKey = l;
unicode = FB02;
},
{
glyphname = ordmasculine;
lastChange = "2020-10-27 00:07:49 +0000";
layers = (
{
layerId = "E12CB17E-1EC8-4945-BD17-D29BF6B71E7F";
paths = (
{
closed = 1;
nodes = (
"541 844 OFFCURVE",
"718 948 OFFCURVE",
"718 1212 CURVE SMOOTH",
"718 1475 OFFCURVE",
"541 1577 OFFCURVE",
"399 1577 CURVE SMOOTH",
"257 1577 OFFCURVE",
"80 1475 OFFCURVE",
"80 1212 CURVE SMOOTH",
"80 948 OFFCURVE",
"257 844 OFFCURVE",
"399 844 CURVE SMOOTH"
);
},
{
closed = 1;
nodes = (
"304 940 OFFCURVE",
"180 1011 OFFCURVE",
"180 1212 CURVE SMOOTH",
"180 1411 OFFCURVE",
"305 1482 OFFCURVE",
"399 1482 CURVE SMOOTH",
"493 1482 OFFCURVE",
"618 1411 OFFCURVE",
"618 1212 CURVE SMOOTH",
"618 1011 OFFCURVE",
"493 940 OFFCURVE",
"399 940 CURVE SMOOTH"
);
}
);
width = 798;
},
{
layerId = master01;
paths = (
{
closed = 1;
nodes = (
"589 844 OFFCURVE",
"792 941 OFFCURVE",
"792 1211 CURVE SMOOTH",
"792 1480 OFFCURVE",
"589 1577 OFFCURVE",
"426 1577 CURVE SMOOTH",
"263 1577 OFFCURVE",
"60 1480 OFFCURVE",
"60 1211 CURVE SMOOTH {name = hr00;}",
"60 941 OFFCURVE",
"263 844 OFFCURVE",
"426 844 CURVE SMOOTH"
);
},
{
closed = 1;
nodes = (
"358 1005 OFFCURVE",
"281 1054 OFFCURVE",
"281 1211 CURVE SMOOTH",
"281 1367 OFFCURVE",
"359 1416 OFFCURVE",
"426 1416 CURVE SMOOTH",
"492 1416 OFFCURVE",
"571 1367 OFFCURVE",
"571 1211 CURVE SMOOTH",
"571 1053 OFFCURVE",
"491 1005 OFFCURVE",
"426 1005 CURVE SMOOTH"
);
}
);
width = 852;
}
);
unicode = 00BA;
},
{
glyphname = zero;
lastChange = "2020-10-27 00:40:55 +0000";
layers = (
{
layerId = "E12CB17E-1EC8-4945-BD17-D29BF6B71E7F";
paths = (
{
closed = 1;
nodes = (
"914 -32 OFFCURVE",
"1224 158 OFFCURVE",
"1224 758 CURVE SMOOTH",
"1224 1358 OFFCURVE",
"914 1546 OFFCURVE",
"678 1546 CURVE SMOOTH",
"434 1546 OFFCURVE",
"126 1358 OFFCURVE",
"126 758 CURVE SMOOTH",
"126 158 OFFCURVE",
"434 -32 OFFCURVE",
"678 -32 CURVE SMOOTH"
);
},
{
closed = 1;
nodes = (
"492 96 OFFCURVE",
"248 250 OFFCURVE",
"248 758 CURVE SMOOTH",
"248 1266 OFFCURVE",
"480 1428 OFFCURVE",
"678 1428 CURVE SMOOTH",
"874 1428 OFFCURVE",
"1104 1266 OFFCURVE",
"1104 758 CURVE SMOOTH",
"1104 250 OFFCURVE",
"858 96 OFFCURVE",
"678 96 CURVE SMOOTH"
);
}
);
width = 1326;
},
{
layerId = master01;
paths = (
{
closed = 1;
nodes = (
"926 -28 OFFCURVE",
"1220 156 OFFCURVE",
"1220 738 CURVE SMOOTH",
"1220 1318 OFFCURVE",
"926 1502 OFFCURVE",
"664 1502 CURVE SMOOTH",
"404 1502 OFFCURVE",
"102 1318 OFFCURVE",
"102 738 CURVE SMOOTH {name = hr00;}",
"102 156 OFFCURVE",
"404 -28 OFFCURVE",
"664 -28 CURVE SMOOTH"
);
},
{
closed = 1;
nodes = (
"524 194 OFFCURVE",
"378 346 OFFCURVE",
"378 738 CURVE SMOOTH",
"378 1130 OFFCURVE",
"516 1288 OFFCURVE",
"664 1288 CURVE SMOOTH",
"816 1288 OFFCURVE",
"944 1130 OFFCURVE",
"944 738 CURVE SMOOTH",
"944 346 OFFCURVE",
"804 194 OFFCURVE",
"664 194 CURVE SMOOTH"
);
}
);
width = 1364;
}
);
unicode = 0030;
},
{
glyphname = zero.osf;
lastChange = "2020-10-27 00:40:11 +0000";
layers = (
{
layerId = "E12CB17E-1EC8-4945-BD17-D29BF6B71E7F";
paths = (
{
closed = 1;
nodes = (
"832 -30 OFFCURVE",
"1078 106 OFFCURVE",
"1078 552 CURVE SMOOTH",
"1078 998 OFFCURVE",
"832 1136 OFFCURVE",
"604 1136 CURVE SMOOTH",
"376 1136 OFFCURVE",
"130 998 OFFCURVE",
"130 552 CURVE SMOOTH",
"130 106 OFFCURVE",
"376 -30 OFFCURVE",
"604 -30 CURVE SMOOTH"
);
},
{
closed = 1;
nodes = (
"430 80 OFFCURVE",
"240 188 OFFCURVE",
"240 552 CURVE SMOOTH",
"240 916 OFFCURVE",
"430 1024 OFFCURVE",
"604 1024 CURVE SMOOTH",
"778 1024 OFFCURVE",
"968 916 OFFCURVE",
"968 552 CURVE SMOOTH",
"968 188 OFFCURVE",
"778 80 OFFCURVE",
"604 80 CURVE SMOOTH"
);
}
);
width = 1192;
},
{
layerId = master01;
paths = (
{
closed = 1;
nodes = (
"854 -28 OFFCURVE",
"1128 110 OFFCURVE",
"1128 568 CURVE SMOOTH",
"1128 1026 OFFCURVE",
"854 1164 OFFCURVE",
"602 1164 CURVE SMOOTH",
"350 1164 OFFCURVE",
"76 1026 OFFCURVE",
"76 568 CURVE SMOOTH {name = hr00;}",
"76 110 OFFCURVE",
"350 -28 OFFCURVE",
"602 -28 CURVE SMOOTH"
);
},
{
closed = 1;
nodes = (
"480 184 OFFCURVE",
"350 274 OFFCURVE",
"350 568 CURVE SMOOTH",
"350 862 OFFCURVE",
"480 952 OFFCURVE",
"602 952 CURVE SMOOTH",
"724 952 OFFCURVE",
"854 862 OFFCURVE",
"854 568 CURVE SMOOTH",
"854 274 OFFCURVE",
"724 184 OFFCURVE",
"602 184 CURVE SMOOTH"
);
}
);
width = 1230;
}
);
},
{
glyphname = one;
lastChange = "2020-10-27 00:40:55 +0000";
layers = (
{
layerId = "E12CB17E-1EC8-4945-BD17-D29BF6B71E7F";
paths = (
{
closed = 1;
nodes = (
"532 0 LINE",
"532 1516 LINE",
"390 1516 LINE",
"118 1310 LINE",
"196 1220 LINE",
"410 1400 LINE",
"410 0 LINE"
);
}
);
width = 698;
},
{
layerId = master01;
paths = (
{
closed = 1;
nodes = (
"598 0 LINE {name = hr00;}",
"598 1474 LINE",
"352 1474 LINE",
"42 1240 LINE",
"204 1056 LINE",
"320 1154 LINE",
"320 0 LINE"
);
}
);
width = 736;
}
);
unicode = 0031;
},
{
glyphname = one.osf;
lastChange = "2020-10-27 00:40:22 +0000";
layers = (
{
layerId = "E12CB17E-1EC8-4945-BD17-D29BF6B71E7F";
paths = (
{
closed = 1;
nodes = (
"528 0 LINE",
"528 1120 LINE",
"388 1120 LINE",
"120 916 LINE",
"196 828 LINE",
"406 1006 LINE",
"406 0 LINE"
);
}
);
width = 698;
},
{
layerId = master01;
paths = (
{
closed = 1;
nodes = (
"606 0 LINE {name = hr00;}",
"606 1150 LINE",
"354 1150 LINE",
"40 912 LINE",
"204 724 LINE",
"322 824 LINE",
"322 0 LINE"
);
}
);
width = 736;
}
);
},
{
glyphname = two;
lastChange = "2020-10-27 00:40:55 +0000";
layers = (
{
layerId = "E12CB17E-1EC8-4945-BD17-D29BF6B71E7F";
paths = (
{
closed = 1;
nodes = (
"946 0 LINE",
"946 116 LINE",
"259 116 LINE",
"513 390 OFFCURVE",
"911 854 OFFCURVE",
"911 1160 CURVE SMOOTH",
"911 1414 OFFCURVE",
"738 1546 OFFCURVE",
"516 1546 CURVE SMOOTH",
"314 1546 OFFCURVE",
"180 1393 OFFCURVE",
"124 1306 CURVE",
"216 1226 LINE",
"258 1298 OFFCURVE",
"358 1428 OFFCURVE",
"514 1428 CURVE SMOOTH",
"650 1428 OFFCURVE",
"786 1344 OFFCURVE",
"786 1156 CURVE SMOOTH",
"786 880 OFFCURVE",
"521 574 OFFCURVE",
"108 106 CURVE",
"108 0 LINE"
);
}
);
width = 1044;
},
{
layerId = master01;
paths = (
{
closed = 1;
nodes = (
"980 0 LINE",
"980 214 LINE",
"422 214 LINE",
"646 446 OFFCURVE",
"956 856 OFFCURVE",
"956 1098 CURVE SMOOTH",
"956 1352 OFFCURVE",
"766 1502 OFFCURVE",
"520 1502 CURVE SMOOTH",
"274 1502 OFFCURVE",
"120 1338 OFFCURVE",
"70 1236 CURVE",
"273 1064 LINE",
"333 1194 OFFCURVE",
"434 1288 OFFCURVE",
"525 1288 CURVE SMOOTH",
"617 1288 OFFCURVE",
"678 1240 OFFCURVE",
"678 1094 CURVE SMOOTH",
"678 899 OFFCURVE",
"334 462 OFFCURVE",
"58 172 CURVE",
"58 0 LINE"
);
}
);
width = 1082;
}
);
unicode = 0032;
},
{
glyphname = two.osf;
lastChange = "2020-10-27 00:40:24 +0000";
layers = (
{
layerId = "E12CB17E-1EC8-4945-BD17-D29BF6B71E7F";
paths = (
{
closed = 1;
nodes = (
"938 0 LINE",
"938 114 LINE",
"282 114 LINE",
"438 218 OFFCURVE",
"868 512 OFFCURVE",
"868 792 CURVE SMOOTH",
"868 1020 OFFCURVE",
"726 1144 OFFCURVE",
"508 1144 CURVE SMOOTH",
"310 1144 OFFCURVE",
"190 1010 OFFCURVE",
"130 916 CURVE",
"202 846 LINE",
"244 908 OFFCURVE",
"342 1036 OFFCURVE",
"506 1036 CURVE SMOOTH",
"644 1036 OFFCURVE",
"756 966 OFFCURVE",
"756 802 CURVE SMOOTH",
"756 525 OFFCURVE",
"241 192 OFFCURVE",
"110 111 CURVE",
"110 0 LINE"
);
}
);
width = 1044;
},
{
layerId = master01;
paths = (
{
closed = 1;
nodes = (
"994 0 LINE",
"994 218 LINE",
"486 218 LINE",
"664 338 OFFCURVE",
"930 545 OFFCURVE",
"930 790 CURVE SMOOTH",
"930 1038 OFFCURVE",
"764 1172 OFFCURVE",
"510 1172 CURVE SMOOTH",
"268 1172 OFFCURVE",
"124 1035 OFFCURVE",
"62 892 CURVE",
"250 718 LINE",
"330 878 OFFCURVE",
"401 952 OFFCURVE",
"508 952 CURVE SMOOTH",
"586 952 OFFCURVE",
"654 903 OFFCURVE",
"654 790 CURVE SMOOTH",
"654 562 OFFCURVE",
"140 242 OFFCURVE",
"54 194 CURVE",
"54 0 LINE"
);
}
);
width = 1082;
}
);
},
{
glyphname = three;
lastChange = "2020-10-27 00:40:55 +0000";
layers = (
{
layerId = "E12CB17E-1EC8-4945-BD17-D29BF6B71E7F";
paths = (
{
closed = 1;
nodes = (
"674 -19 OFFCURVE",
"962 110 OFFCURVE",
"962 541 CURVE SMOOTH",
"962 797 OFFCURVE",
"782 938 OFFCURVE",
"584 938 CURVE",
"697 1000 OFFCURVE",
"793 1125 OFFCURVE",
"793 1248 CURVE SMOOTH",
"793 1457 OFFCURVE",
"650 1552 OFFCURVE",
"467 1552 CURVE SMOOTH",
"312 1552 OFFCURVE",
"177 1444 OFFCURVE",
"126 1363 CURVE",
"207 1308 LINE",
"241 1363 OFFCURVE",
"319 1459 OFFCURVE",
"469 1459 CURVE SMOOTH",
"575 1459 OFFCURVE",
"684 1395 OFFCURVE",
"684 1264 CURVE SMOOTH",
"684 1091 OFFCURVE",
"507 968 OFFCURVE",
"314 891 CURVE",
"314 795 LINE",
"362 812 OFFCURVE",
"461 843 OFFCURVE",
"573 843 CURVE SMOOTH",
"724 843 OFFCURVE",
"848 740 OFFCURVE",
"848 523 CURVE SMOOTH",
"848 184 OFFCURVE",
"636 88 OFFCURVE",
"432 88 CURVE SMOOTH",
"318 88 OFFCURVE",
"211 135 OFFCURVE",
"162 178 CURVE",
"88 96 LINE",
"126 58 OFFCURVE",
"253 -19 OFFCURVE",
"432 -19 CURVE SMOOTH"
);
}
);
width = 1058;
},
{
layerId = master01;
paths = (
{
closed = 1;
nodes = (
"685 -27 OFFCURVE",
"994 125 OFFCURVE",
"994 523 CURVE SMOOTH",
"994 788 OFFCURVE",
"830 907 OFFCURVE",
"656 921 CURVE",
"738 978 OFFCURVE",
"838 1085 OFFCURVE",
"838 1215 CURVE SMOOTH",
"838 1443 OFFCURVE",
"654 1531 OFFCURVE",
"452 1531 CURVE SMOOTH",
"254 1531 OFFCURVE",
"100 1398 OFFCURVE",
"48 1297 CURVE",
"214 1133 LINE",
"254 1209 OFFCURVE",
"344 1309 OFFCURVE",
"444 1309 CURVE SMOOTH",
"518 1309 OFFCURVE",
"560 1265 OFFCURVE",
"560 1195 CURVE SMOOTH",
"560 1055 OFFCURVE",
"432 955 OFFCURVE",
"256 889 CURVE",
"256 681 LINE",
"319 707 OFFCURVE",
"400 739 OFFCURVE",
"522 739 CURVE SMOOTH {name = hr01;}",
"614 739 OFFCURVE",
"714 690 OFFCURVE",
"714 522 CURVE SMOOTH",
"714 270 OFFCURVE",
"567 197 OFFCURVE",
"435 197 CURVE SMOOTH",
"301 197 OFFCURVE",
"222 264 OFFCURVE",
"178 313 CURVE",
"0 125 LINE",
"76 49 OFFCURVE",
"235 -27 OFFCURVE",
"437 -27 CURVE SMOOTH"
);
}
);
width = 1096;
}
);
unicode = 0033;
},
{
glyphname = three.osf;
lastChange = "2020-10-27 00:40:26 +0000";
layers = (
{
layerId = "E12CB17E-1EC8-4945-BD17-D29BF6B71E7F";
paths = (
{
closed = 1;
nodes = (
"658 -418 OFFCURVE",
"944 -290 OFFCURVE",
"944 138 CURVE SMOOTH",
"944 392 OFFCURVE",
"765 532 OFFCURVE",
"569 532 CURVE",
"681 594 OFFCURVE",
"776 718 OFFCURVE",
"776 840 CURVE SMOOTH",
"776 1048 OFFCURVE",
"634 1142 OFFCURVE",
"452 1142 CURVE SMOOTH",
"298 1142 OFFCURVE",
"164 1035 OFFCURVE",
"114 954 CURVE",
"194 900 LINE",
"228 954 OFFCURVE",
"301 1050 OFFCURVE",
"454 1050 CURVE SMOOTH",
"560 1050 OFFCURVE",
"668 986 OFFCURVE",
"668 856 CURVE SMOOTH",
"668 684 OFFCURVE",
"492 562 OFFCURVE",
"300 486 CURVE",
"300 390 LINE",
"348 407 OFFCURVE",
"446 438 OFFCURVE",
"558 438 CURVE SMOOTH",
"708 438 OFFCURVE",
"831 336 OFFCURVE",
"831 120 CURVE SMOOTH",
"831 -216 OFFCURVE",
"620 -312 OFFCURVE",
"418 -312 CURVE SMOOTH",
"304 -312 OFFCURVE",
"198 -265 OFFCURVE",
"150 -222 CURVE",
"76 -304 LINE",
"114 -342 OFFCURVE",
"240 -418 OFFCURVE",
"418 -418 CURVE SMOOTH"
);
}
);
width = 1058;
},
{
layerId = master01;
paths = (
{
closed = 1;
nodes = (
"699 -388 OFFCURVE",
"1008 -236 OFFCURVE",
"1008 162 CURVE SMOOTH",
"1008 427 OFFCURVE",
"844 546 OFFCURVE",
"670 560 CURVE",
"752 617 OFFCURVE",
"852 724 OFFCURVE",
"852 854 CURVE SMOOTH",
"852 1082 OFFCURVE",
"668 1170 OFFCURVE",
"466 1170 CURVE SMOOTH",
"268 1170 OFFCURVE",
"114 1037 OFFCURVE",
"62 936 CURVE",
"228 772 LINE",
"268 848 OFFCURVE",
"358 948 OFFCURVE",
"458 948 CURVE SMOOTH",
"532 948 OFFCURVE",
"574 904 OFFCURVE",
"574 834 CURVE SMOOTH",
"574 694 OFFCURVE",
"446 594 OFFCURVE",
"270 528 CURVE",
"270 320 LINE",
"333 346 OFFCURVE",
"414 378 OFFCURVE",
"536 378 CURVE SMOOTH {name = hr01;}",
"628 378 OFFCURVE",
"728 329 OFFCURVE",
"728 161 CURVE SMOOTH",
"728 -91 OFFCURVE",
"581 -164 OFFCURVE",
"449 -164 CURVE SMOOTH",
"315 -164 OFFCURVE",
"236 -97 OFFCURVE",
"192 -48 CURVE",
"14 -236 LINE",
"90 -312 OFFCURVE",
"249 -388 OFFCURVE",
"451 -388 CURVE SMOOTH"
);
}
);
width = 1096;
}
);
},
{
glyphname = four;
lastChange = "2020-10-27 00:40:55 +0000";
layers = (
{
layerId = "E12CB17E-1EC8-4945-BD17-D29BF6B71E7F";
paths = (
{
closed = 1;
nodes = (
"952 0 LINE",
"952 418 LINE",
"1168 418 LINE",
"1168 532 LINE",
"952 532 LINE",
"952 1540 LINE",
"876 1540 LINE",
"104 490 LINE",
"104 418 LINE",
"832 418 LINE",
"832 0 LINE"
);
},
{
closed = 1;
nodes = (
"832 1310 LINE",
"832 532 LINE",
"270 532 LINE"
);
}
);
width = 1214;
},
{
layerId = master01;
paths = (
{
closed = 1;
nodes = (
"994 0 LINE",
"994 388 LINE",
"1194 388 LINE",
"1194 606 LINE {name = hr00;}",
"994 606 LINE",
"994 1500 LINE",
"766 1500 LINE",
"66 520 LINE",
"66 388 LINE",
"710 388 LINE",
"710 0 LINE"
);
},
{
closed = 1;
nodes = (
"710 1020 LINE",
"710 606 LINE",
"422 606 LINE"
);
}
);
width = 1252;
}
);
unicode = 0034;
},
{
glyphname = four.osf;
lastChange = "2020-10-27 00:40:28 +0000";
layers = (
{
layerId = "E12CB17E-1EC8-4945-BD17-D29BF6B71E7F";
paths = (
{
closed = 1;
nodes = (
"946 -418 LINE",
"946 0 LINE",
"1162 0 LINE",
"1162 114 LINE",
"946 114 LINE",
"946 1122 LINE",
"870 1122 LINE",
"98 72 LINE",
"98 0 LINE",
"826 0 LINE",
"826 -418 LINE"
);
},
{
closed = 1;
nodes = (
"826 892 LINE",
"826 114 LINE",
"264 114 LINE"
);
}
);
width = 1214;
},
{
layerId = master01;
paths = (
{
closed = 1;
nodes = (
"1006 -388 LINE",
"1006 0 LINE",
"1206 0 LINE",
"1206 218 LINE {name = hr00;}",
"1006 218 LINE",
"1006 1152 LINE",
"778 1152 LINE",
"78 132 LINE",
"78 0 LINE",
"722 0 LINE",
"722 -388 LINE"
);
},
{
closed = 1;
nodes = (
"722 662 LINE",
"722 218 LINE",
"434 218 LINE"
);
}
);
width = 1252;
}
);
},
{
glyphname = five;
lastChange = "2020-10-27 00:40:55 +0000";
layers = (
{
layerId = "E12CB17E-1EC8-4945-BD17-D29BF6B71E7F";
paths = (
{
closed = 1;
nodes = (
"798 -31 OFFCURVE",
"1030 111 OFFCURVE",
"1030 537 CURVE SMOOTH",
"1030 821 OFFCURVE",
"838 975 OFFCURVE",
"580 975 CURVE SMOOTH",
"460 975 OFFCURVE",
"374 943 OFFCURVE",
"300 879 CURVE",
"356 1393 LINE",
"932 1393 LINE",
"932 1507 LINE",
"255 1507 LINE",
"179 783 LINE",
"290 753 LINE",
"370 834 OFFCURVE",
"462 865 OFFCURVE",
"580 865 CURVE SMOOTH",
"748 865 OFFCURVE",
"914 797 OFFCURVE",
"914 521 CURVE SMOOTH",
"914 193 OFFCURVE",
"744 77 OFFCURVE",
"536 77 CURVE SMOOTH",
"372 77 OFFCURVE",
"294 119 OFFCURVE",
"223 200 CURVE",
"145 115 LINE",
"208 52 OFFCURVE",
"322 -31 OFFCURVE",
"536 -31 CURVE SMOOTH"
);
}
);
width = 1164;
},
{
layerId = master01;
paths = (
{
closed = 1;
nodes = (
"830 -24 OFFCURVE",
"1085 132 OFFCURVE",
"1085 534 CURVE SMOOTH",
"1085 911 OFFCURVE",
"833 1026 OFFCURVE",
"601 1026 CURVE SMOOTH",
"499 1026 OFFCURVE",
"430 1002 OFFCURVE",
"401 978 CURVE",
"444 1268 LINE {name = hr00;}",
"972 1268 LINE",
"972 1484 LINE",
"232 1484 LINE",
"130 780 LINE",
"340 698 LINE",
"380 776 OFFCURVE",
"476 808 OFFCURVE",
"558 808 CURVE SMOOTH",
"692 808 OFFCURVE",
"808 728 OFFCURVE",
"808 530 CURVE SMOOTH",
"808 302 OFFCURVE",
"662 200 OFFCURVE",
"532 200 CURVE SMOOTH",
"396 200 OFFCURVE",
"316 268 OFFCURVE",
"270 313 CURVE",
"94 128 LINE",
"172 52 OFFCURVE",
"325 -24 OFFCURVE",
"538 -24 CURVE SMOOTH"
);
}
);
width = 1202;
}
);
unicode = 0035;
},
{
glyphname = five.osf;
lastChange = "2020-10-27 00:40:30 +0000";
layers = (
{
layerId = "E12CB17E-1EC8-4945-BD17-D29BF6B71E7F";
paths = (
{
closed = 1;
nodes = (
"810 -418 OFFCURVE",
"1042 -276 OFFCURVE",
"1042 150 CURVE SMOOTH",
"1042 434 OFFCURVE",
"850 588 OFFCURVE",
"592 588 CURVE SMOOTH",
"472 588 OFFCURVE",
"386 556 OFFCURVE",
"312 492 CURVE",
"368 1006 LINE",
"944 1006 LINE",
"944 1120 LINE",
"267 1120 LINE",
"191 396 LINE",
"302 366 LINE",
"382 447 OFFCURVE",
"474 478 OFFCURVE",
"592 478 CURVE SMOOTH",
"760 478 OFFCURVE",
"926 410 OFFCURVE",
"926 134 CURVE SMOOTH",
"926 -194 OFFCURVE",
"756 -310 OFFCURVE",
"548 -310 CURVE SMOOTH",
"384 -310 OFFCURVE",
"306 -268 OFFCURVE",
"235 -187 CURVE",
"157 -272 LINE",
"220 -335 OFFCURVE",
"334 -418 OFFCURVE",
"548 -418 CURVE SMOOTH"
);
}
);
width = 1164;
},
{
layerId = master01;
paths = (
{
closed = 1;
nodes = (
"842 -388 OFFCURVE",
"1097 -232 OFFCURVE",
"1097 170 CURVE SMOOTH",
"1097 547 OFFCURVE",
"845 662 OFFCURVE",
"613 662 CURVE SMOOTH",
"511 662 OFFCURVE",
"442 638 OFFCURVE",
"413 614 CURVE",
"456 934 LINE {name = hr00;}",
"984 934 LINE",
"984 1150 LINE",
"244 1150 LINE",
"142 416 LINE",
"352 334 LINE",
"392 412 OFFCURVE",
"488 444 OFFCURVE",
"570 444 CURVE SMOOTH",
"704 444 OFFCURVE",
"820 364 OFFCURVE",
"820 166 CURVE SMOOTH",
"820 -62 OFFCURVE",
"674 -164 OFFCURVE",
"544 -164 CURVE SMOOTH",
"408 -164 OFFCURVE",
"328 -96 OFFCURVE",
"282 -51 CURVE",
"106 -236 LINE",
"184 -312 OFFCURVE",
"337 -388 OFFCURVE",
"550 -388 CURVE SMOOTH"
);
}
);
width = 1202;
}
);
},
{
glyphname = six;
lastChange = "2020-10-27 00:40:55 +0000";
layers = (
{
layerId = "E12CB17E-1EC8-4945-BD17-D29BF6B71E7F";
paths = (
{
closed = 1;
nodes = (
"904 -27 OFFCURVE",
"1082 193 OFFCURVE",
"1082 469 CURVE SMOOTH",
"1082 795 OFFCURVE",
"870 929 OFFCURVE",
"656 929 CURVE SMOOTH",
"484 929 OFFCURVE",
"289 812 OFFCURVE",
"250 680 CURVE",
"250 1126 OFFCURVE",
"452 1431 OFFCURVE",
"690 1431 CURVE SMOOTH",
"790 1431 OFFCURVE",
"880 1391 OFFCURVE",
"928 1341 CURVE",
"1004 1417 LINE",
"958 1459 OFFCURVE",
"866 1533 OFFCURVE",
"688 1533 CURVE SMOOTH",
"370 1533 OFFCURVE",
"138 1143 OFFCURVE",
"138 689 CURVE SMOOTH",
"138 229 OFFCURVE",
"336 -27 OFFCURVE",
"626 -27 CURVE SMOOTH"
);
},
{
closed = 1;
nodes = (
"436 77 OFFCURVE",
"282 231 OFFCURVE",
"266 540 CURVE",
"342 728 OFFCURVE",
"488 817 OFFCURVE",
"656 817 CURVE SMOOTH",
"810 817 OFFCURVE",
"966 717 OFFCURVE",
"966 469 CURVE SMOOTH",
"966 224 OFFCURVE",
"834 77 OFFCURVE",
"626 77 CURVE SMOOTH"
);
}
);
width = 1188;
},
{
layerId = master01;
paths = (
{
closed = 1;
nodes = (
"883 -28 OFFCURVE",
"1120 126 OFFCURVE",
"1120 484 CURVE SMOOTH",
"1120 823 OFFCURVE",
"894 944 OFFCURVE",
"687 944 CURVE SMOOTH {name = hr00;}",
"526 944 OFFCURVE",
"397 856 OFFCURVE",
"364 785 CURVE",
"384 1007 OFFCURVE",
"491 1297 OFFCURVE",
"687 1297 CURVE SMOOTH",
"761 1297 OFFCURVE",
"858 1237 OFFCURVE",
"909 1192 CURVE",
"1072 1362 LINE",
"1037 1391 OFFCURVE",
"870 1517 OFFCURVE",
"679 1517 CURVE SMOOTH",
"336 1517 OFFCURVE",
"88 1132 OFFCURVE",
"88 686 CURVE SMOOTH",
"88 228 OFFCURVE",
"283 -28 OFFCURVE",
"622 -28 CURVE SMOOTH"
);
},
{
closed = 1;
nodes = (
"487 180 OFFCURVE",
"378 347 OFFCURVE",
"372 527 CURVE",
"424 642 OFFCURVE",
"564 732 OFFCURVE",
"658 732 CURVE SMOOTH",
"755 732 OFFCURVE",
"850 670 OFFCURVE",
"850 484 CURVE SMOOTH",
"850 255 OFFCURVE",
"736 180 OFFCURVE",
"622 180 CURVE SMOOTH"
);
}
);
width = 1226;
}
);
unicode = 0036;
},
{
glyphname = six.osf;
lastChange = "2020-10-27 00:40:32 +0000";
layers = (
{
layerId = "E12CB17E-1EC8-4945-BD17-D29BF6B71E7F";
paths = (
{
closed = 1;
nodes = (
"904 -30 OFFCURVE",
"1082 190 OFFCURVE",
"1082 466 CURVE SMOOTH",
"1082 792 OFFCURVE",
"870 926 OFFCURVE",
"656 926 CURVE SMOOTH",
"484 926 OFFCURVE",
"289 809 OFFCURVE",
"250 677 CURVE",
"250 1123 OFFCURVE",
"452 1428 OFFCURVE",
"690 1428 CURVE SMOOTH",
"790 1428 OFFCURVE",
"880 1388 OFFCURVE",
"928 1338 CURVE",
"1004 1414 LINE",
"958 1456 OFFCURVE",
"866 1530 OFFCURVE",
"688 1530 CURVE SMOOTH",
"370 1530 OFFCURVE",
"138 1140 OFFCURVE",
"138 686 CURVE SMOOTH",
"138 226 OFFCURVE",
"336 -30 OFFCURVE",
"626 -30 CURVE SMOOTH"
);
},
{
closed = 1;
nodes = (
"436 74 OFFCURVE",
"282 228 OFFCURVE",
"266 537 CURVE",
"342 725 OFFCURVE",
"488 814 OFFCURVE",
"656 814 CURVE SMOOTH",
"810 814 OFFCURVE",
"966 714 OFFCURVE",
"966 466 CURVE SMOOTH",
"966 221 OFFCURVE",
"834 74 OFFCURVE",
"626 74 CURVE SMOOTH"
);
}
);
width = 1188;
},
{
layerId = master01;
paths = (
{
closed = 1;
nodes = (
"885 -28 OFFCURVE",
"1124 127 OFFCURVE",
"1124 488 CURVE SMOOTH",
"1124 830 OFFCURVE",
"896 952 OFFCURVE",
"688 952 CURVE SMOOTH {name = hr00;}",
"525 952 OFFCURVE",
"395 864 OFFCURVE",
"362 792 CURVE",
"382 1016 OFFCURVE",
"490 1308 OFFCURVE",
"688 1308 CURVE SMOOTH",
"762 1308 OFFCURVE",
"860 1248 OFFCURVE",
"912 1202 CURVE",
"1076 1374 LINE",
"1041 1403 OFFCURVE",
"872 1530 OFFCURVE",
"680 1530 CURVE SMOOTH",
"334 1530 OFFCURVE",
"84 1142 OFFCURVE",
"84 692 CURVE SMOOTH",
"84 230 OFFCURVE",
"280 -28 OFFCURVE",
"622 -28 CURVE SMOOTH"
);
},
{
closed = 1;
nodes = (
"486 182 OFFCURVE",
"376 350 OFFCURVE",
"370 532 CURVE",
"422 648 OFFCURVE",
"564 738 OFFCURVE",
"658 738 CURVE SMOOTH",
"756 738 OFFCURVE",
"852 676 OFFCURVE",
"852 488 CURVE SMOOTH",
"852 257 OFFCURVE",
"737 182 OFFCURVE",
"622 182 CURVE SMOOTH"
);
}
);
width = 1226;
}
);
},
{
glyphname = seven;
lastChange = "2020-10-27 00:40:55 +0000";
layers = (
{
layerId = "E12CB17E-1EC8-4945-BD17-D29BF6B71E7F";
paths = (
{
closed = 1;
nodes = (
"286 120 OFFCURVE",
"774 1078 OFFCURVE",
"936 1418 CURVE",
"936 1516 LINE",
"102 1516 LINE",
"102 1384 LINE",
"786 1384 LINE",
"588 974 OFFCURVE",
"172 188 OFFCURVE",
"24 74 CURVE",
"108 -4 LINE"
);
}
);
width = 984;
},
{
layerId = master01;
paths = (
{
closed = 1;
nodes = (
"334 66 OFFCURVE",
"818 1004 OFFCURVE",
"970 1324 CURVE",
"970 1474 LINE",
"50 1474 LINE",
"50 1248 LINE {name = hr00;}",
"658 1248 LINE",
"470 870 OFFCURVE",
"84 204 OFFCURVE",
"-42 128 CURVE",
"132 -22 LINE"
);
}
);
width = 1022;
}
);
unicode = 0037;
},
{
glyphname = seven.osf;
lastChange = "2020-10-27 00:40:35 +0000";
layers = (
{
layerId = "E12CB17E-1EC8-4945-BD17-D29BF6B71E7F";
paths = (
{
closed = 1;
nodes = (
"286 -258 OFFCURVE",
"768 688 OFFCURVE",
"928 1024 CURVE",
"928 1122 LINE",
"102 1122 LINE",
"102 992 LINE",
"780 992 LINE",
"584 586 OFFCURVE",
"172 -190 OFFCURVE",
"26 -304 CURVE",
"108 -382 LINE"
);
}
);
width = 984;
},
{
layerId = master01;
paths = (
{
closed = 1;
nodes = (
"394 -284 OFFCURVE",
"888 672 OFFCURVE",
"1042 998 CURVE",
"1042 1152 LINE",
"104 1152 LINE",
"104 920 LINE {name = hr00;}",
"724 920 LINE",
"532 536 OFFCURVE",
"140 -142 OFFCURVE",
"10 -222 CURVE",
"188 -374 LINE"
);
}
);
width = 1087;
}
);
},
{
glyphname = eight;
lastChange = "2020-10-27 00:40:55 +0000";
layers = (
{
layerId = "E12CB17E-1EC8-4945-BD17-D29BF6B71E7F";
paths = (
{
closed = 1;
nodes = (
"701 -30 OFFCURVE",
"962 33 OFFCURVE",
"962 320 CURVE SMOOTH",
"962 503 OFFCURVE",
"782 653 OFFCURVE",
"596 786 CURVE",
"714 859 OFFCURVE",
"922 1021 OFFCURVE",
"922 1227 CURVE SMOOTH",
"922 1467 OFFCURVE",
"710 1546 OFFCURVE",
"524 1546 CURVE SMOOTH",
"336 1546 OFFCURVE",
"130 1467 OFFCURVE",
"130 1227 CURVE SMOOTH",
"130 1059 OFFCURVE",
"258 914 OFFCURVE",
"416 784 CURVE",
"278 697 OFFCURVE",
"90 526 OFFCURVE",
"90 320 CURVE SMOOTH",
"90 37 OFFCURVE",
"347 -30 OFFCURVE",
"524 -30 CURVE SMOOTH"
);
},
{
closed = 1;
nodes = (
"366 73 OFFCURVE",
"196 146 OFFCURVE",
"196 320 CURVE SMOOTH",
"196 507 OFFCURVE",
"362 651 OFFCURVE",
"488 734 CURVE",
"680 592 OFFCURVE",
"852 451 OFFCURVE",
"852 320 CURVE SMOOTH",
"852 144 OFFCURVE",
"682 73 OFFCURVE",
"524 73 CURVE SMOOTH"
);
},
{
closed = 1;
nodes = (
"304 1027 OFFCURVE",
"236 1113 OFFCURVE",
"236 1227 CURVE SMOOTH",
"236 1405 OFFCURVE",
"388 1453 OFFCURVE",
"524 1453 CURVE SMOOTH",
"662 1453 OFFCURVE",
"812 1405 OFFCURVE",
"812 1227 CURVE SMOOTH",
"812 1085 OFFCURVE",
"705 952 OFFCURVE",
"514 845 CURVE"
);
}
);
width = 1052;
},
{
layerId = master01;
paths = (
{
closed = 1;
nodes = (
"751 -28 OFFCURVE",
"1050 41 OFFCURVE",
"1050 344 CURVE SMOOTH {name = hr01;}",
"1050 514 OFFCURVE",
"907 657 OFFCURVE",
"745 776 CURVE",
"860 855 OFFCURVE",
"1014 984 OFFCURVE",
"1014 1170 CURVE SMOOTH",
"1014 1429 OFFCURVE",
"775 1514 OFFCURVE",
"563 1514 CURVE SMOOTH",
"351 1514 OFFCURVE",
"116 1429 OFFCURVE",
"116 1170 CURVE SMOOTH",
"116 1017 OFFCURVE",
"223 875 OFFCURVE",
"353 762 CURVE",
"228 673 OFFCURVE",
"80 530 OFFCURVE",
"80 344 CURVE SMOOTH",
"80 47 OFFCURVE",
"375 -28 OFFCURVE",
"563 -28 CURVE SMOOTH"
);
},
{
closed = 1;
nodes = (
"431 176 OFFCURVE",
"347 235 OFFCURVE",
"347 342 CURVE SMOOTH",
"347 475 OFFCURVE",
"439 582 OFFCURVE",
"522 645 CURVE",
"665 540 OFFCURVE",
"781 441 OFFCURVE",
"781 344 CURVE SMOOTH",
"781 227 OFFCURVE",
"695 176 OFFCURVE",
"563 176 CURVE SMOOTH"
);
},
{
closed = 1;
nodes = (
"473 982 OFFCURVE",
"385 1067 OFFCURVE",
"385 1170 CURVE SMOOTH",
"385 1288 OFFCURVE",
"478 1320 OFFCURVE",
"563 1320 CURVE SMOOTH",
"650 1320 OFFCURVE",
"743 1288 OFFCURVE",
"743 1170 CURVE SMOOTH",
"743 1039 OFFCURVE",
"639 946 OFFCURVE",
"568 900 CURVE"
);
}
);
width = 1130;
}
);
unicode = 0038;
},
{
glyphname = eight.osf;
lastChange = "2020-10-27 00:40:37 +0000";
layers = (
{
layerId = "E12CB17E-1EC8-4945-BD17-D29BF6B71E7F";
paths = (
{
closed = 1;
nodes = (
"701 -30 OFFCURVE",
"962 32 OFFCURVE",
"962 316 CURVE SMOOTH",
"962 498 OFFCURVE",
"782 646 OFFCURVE",
"596 778 CURVE",
"714 850 OFFCURVE",
"922 1010 OFFCURVE",
"922 1214 CURVE SMOOTH",
"922 1452 OFFCURVE",
"710 1530 OFFCURVE",
"524 1530 CURVE SMOOTH",
"336 1530 OFFCURVE",
"130 1452 OFFCURVE",
"130 1214 CURVE SMOOTH",
"130 1048 OFFCURVE",
"258 904 OFFCURVE",
"416 776 CURVE",
"278 690 OFFCURVE",
"90 520 OFFCURVE",
"90 316 CURVE SMOOTH",
"90 36 OFFCURVE",
"347 -30 OFFCURVE",
"524 -30 CURVE SMOOTH"
);
},
{
closed = 1;
nodes = (
"366 72 OFFCURVE",
"196 144 OFFCURVE",
"196 316 CURVE SMOOTH",
"196 502 OFFCURVE",
"362 644 OFFCURVE",
"488 726 CURVE",
"680 586 OFFCURVE",
"852 446 OFFCURVE",
"852 316 CURVE SMOOTH",
"852 142 OFFCURVE",
"682 72 OFFCURVE",
"524 72 CURVE SMOOTH"
);
},
{
closed = 1;
nodes = (
"304 1016 OFFCURVE",
"236 1101 OFFCURVE",
"236 1214 CURVE SMOOTH",
"236 1390 OFFCURVE",
"388 1438 OFFCURVE",
"524 1438 CURVE SMOOTH",
"662 1438 OFFCURVE",
"812 1390 OFFCURVE",
"812 1214 CURVE SMOOTH",
"812 1074 OFFCURVE",
"705 942 OFFCURVE",
"514 836 CURVE"
);
}
);
width = 1052;
},
{
layerId = master01;
paths = (
{
closed = 1;
nodes = (
"758 -28 OFFCURVE",
"1060 42 OFFCURVE",
"1060 348 CURVE SMOOTH {name = hr01;}",
"1060 520 OFFCURVE",
"916 664 OFFCURVE",
"752 784 CURVE",
"868 864 OFFCURVE",
"1024 994 OFFCURVE",
"1024 1182 CURVE SMOOTH",
"1024 1444 OFFCURVE",
"782 1530 OFFCURVE",
"568 1530 CURVE SMOOTH",
"354 1530 OFFCURVE",
"116 1444 OFFCURVE",
"116 1182 CURVE SMOOTH",
"116 1028 OFFCURVE",
"224 884 OFFCURVE",
"356 770 CURVE",
"230 680 OFFCURVE",
"80 536 OFFCURVE",
"80 348 CURVE SMOOTH",
"80 48 OFFCURVE",
"378 -28 OFFCURVE",
"568 -28 CURVE SMOOTH"
);
},
{
closed = 1;
nodes = (
"435 178 OFFCURVE",
"350 238 OFFCURVE",
"350 346 CURVE SMOOTH",
"350 480 OFFCURVE",
"443 588 OFFCURVE",
"527 652 CURVE",
"671 546 OFFCURVE",
"788 446 OFFCURVE",
"788 348 CURVE SMOOTH",
"788 230 OFFCURVE",
"701 178 OFFCURVE",
"568 178 CURVE SMOOTH"
);
},
{
closed = 1;
nodes = (
"477 992 OFFCURVE",
"388 1078 OFFCURVE",
"388 1182 CURVE SMOOTH",
"388 1302 OFFCURVE",
"482 1334 OFFCURVE",
"568 1334 CURVE SMOOTH",
"656 1334 OFFCURVE",
"750 1302 OFFCURVE",
"750 1182 CURVE SMOOTH",
"750 1050 OFFCURVE",
"645 956 OFFCURVE",
"573 910 CURVE"
);
}
);
width = 1140;
}
);
},
{
glyphname = nine;
lastChange = "2020-10-27 00:40:55 +0000";
layers = (
{
layerId = "E12CB17E-1EC8-4945-BD17-D29BF6B71E7F";
paths = (
{
closed = 1;
nodes = (
"316 1539 OFFCURVE",
"138 1319 OFFCURVE",
"138 1043 CURVE SMOOTH",
"138 717 OFFCURVE",
"350 583 OFFCURVE",
"564 583 CURVE SMOOTH",
"736 583 OFFCURVE",
"931 700 OFFCURVE",
"970 832 CURVE",
"970 386 OFFCURVE",
"768 81 OFFCURVE",
"530 81 CURVE SMOOTH",
"430 81 OFFCURVE",
"340 121 OFFCURVE",
"292 171 CURVE",
"216 95 LINE",
"262 53 OFFCURVE",
"354 -21 OFFCURVE",
"532 -21 CURVE SMOOTH",
"850 -21 OFFCURVE",
"1082 369 OFFCURVE",
"1082 823 CURVE SMOOTH",
"1082 1283 OFFCURVE",
"884 1539 OFFCURVE",
"594 1539 CURVE SMOOTH"
);
},
{
closed = 1;
nodes = (
"784 1435 OFFCURVE",
"938 1281 OFFCURVE",
"954 972 CURVE",
"878 784 OFFCURVE",
"732 695 OFFCURVE",
"564 695 CURVE SMOOTH",
"410 695 OFFCURVE",
"254 795 OFFCURVE",
"254 1043 CURVE SMOOTH",
"254 1288 OFFCURVE",
"386 1435 OFFCURVE",
"594 1435 CURVE SMOOTH"
);
}
);
width = 1188;
},
{
layerId = master01;
paths = (
{
closed = 1;
nodes = (
"325 1517 OFFCURVE",
"88 1363 OFFCURVE",
"88 1005 CURVE SMOOTH",
"88 666 OFFCURVE",
"314 545 OFFCURVE",
"521 545 CURVE SMOOTH {name = hr00;}",
"682 545 OFFCURVE",
"811 633 OFFCURVE",
"844 704 CURVE",
"824 482 OFFCURVE",
"717 192 OFFCURVE",
"521 192 CURVE SMOOTH",
"447 192 OFFCURVE",
"350 252 OFFCURVE",
"299 297 CURVE",
"136 127 LINE",
"171 98 OFFCURVE",
"338 -28 OFFCURVE",
"529 -28 CURVE SMOOTH",
"872 -28 OFFCURVE",
"1120 357 OFFCURVE",
"1120 803 CURVE SMOOTH",
"1120 1261 OFFCURVE",
"925 1517 OFFCURVE",
"586 1517 CURVE SMOOTH"
);
},
{
closed = 1;
nodes = (
"721 1309 OFFCURVE",
"830 1142 OFFCURVE",
"836 962 CURVE",
"784 847 OFFCURVE",
"644 757 OFFCURVE",
"550 757 CURVE SMOOTH",
"453 757 OFFCURVE",
"358 819 OFFCURVE",
"358 1005 CURVE SMOOTH",
"358 1234 OFFCURVE",
"472 1309 OFFCURVE",
"586 1309 CURVE SMOOTH"
);
}
);
width = 1226;
}
);
unicode = 0039;
},
{
glyphname = nine.osf;
lastChange = "2020-10-27 00:40:39 +0000";
layers = (
{
layerId = "E12CB17E-1EC8-4945-BD17-D29BF6B71E7F";
paths = (
{
closed = 1;
nodes = (
"842 -430 OFFCURVE",
"1074 -40 OFFCURVE",
"1074 414 CURVE SMOOTH",
"1074 874 OFFCURVE",
"876 1130 OFFCURVE",
"586 1130 CURVE SMOOTH",
"308 1130 OFFCURVE",
"130 910 OFFCURVE",
"130 634 CURVE SMOOTH",
"130 308 OFFCURVE",
"342 174 OFFCURVE",
"556 174 CURVE SMOOTH",
"728 174 OFFCURVE",
"923 291 OFFCURVE",
"962 423 CURVE",
"962 -23 OFFCURVE",
"760 -328 OFFCURVE",
"522 -328 CURVE SMOOTH",
"422 -328 OFFCURVE",
"332 -288 OFFCURVE",
"284 -238 CURVE",
"208 -314 LINE",
"254 -356 OFFCURVE",
"346 -430 OFFCURVE",
"524 -430 CURVE SMOOTH"
);
},
{
closed = 1;
nodes = (
"402 286 OFFCURVE",
"246 386 OFFCURVE",
"246 634 CURVE SMOOTH",
"246 879 OFFCURVE",
"378 1026 OFFCURVE",
"586 1026 CURVE SMOOTH",
"776 1026 OFFCURVE",
"930 872 OFFCURVE",
"946 563 CURVE",
"870 375 OFFCURVE",
"724 286 OFFCURVE",
"556 286 CURVE SMOOTH"
);
}
);
width = 1188;
},
{
layerId = master01;
paths = (
{
closed = 1;
nodes = (
"874 -408 OFFCURVE",
"1124 -20 OFFCURVE",
"1124 430 CURVE SMOOTH",
"1124 892 OFFCURVE",
"928 1150 OFFCURVE",
"586 1150 CURVE SMOOTH",
"323 1150 OFFCURVE",
"84 995 OFFCURVE",
"84 634 CURVE SMOOTH",
"84 292 OFFCURVE",
"312 170 OFFCURVE",
"520 170 CURVE SMOOTH {name = hr00;}",
"683 170 OFFCURVE",
"813 258 OFFCURVE",
"846 330 CURVE",
"826 106 OFFCURVE",
"718 -186 OFFCURVE",
"520 -186 CURVE SMOOTH",
"446 -186 OFFCURVE",
"348 -126 OFFCURVE",
"296 -80 CURVE",
"132 -252 LINE",
"167 -281 OFFCURVE",
"336 -408 OFFCURVE",
"528 -408 CURVE SMOOTH"
);
},
{
closed = 1;
nodes = (
"452 384 OFFCURVE",
"356 446 OFFCURVE",
"356 634 CURVE SMOOTH",
"356 865 OFFCURVE",
"471 940 OFFCURVE",
"586 940 CURVE SMOOTH",
"722 940 OFFCURVE",
"832 772 OFFCURVE",
"838 590 CURVE",
"786 474 OFFCURVE",
"644 384 OFFCURVE",
"550 384 CURVE SMOOTH"
);
}
);
width = 1226;
}
);
},
{
glyphname = period;
lastChange = "2020-10-27 00:07:49 +0000";
layers = (
{
layerId = "E12CB17E-1EC8-4945-BD17-D29BF6B71E7F";
paths = (
{
closed = 1;
nodes = (
"246 -14 OFFCURVE",
"284 26 OFFCURVE",
"284 82 CURVE SMOOTH",
"284 135 OFFCURVE",
"246 178 OFFCURVE",
"196 178 CURVE SMOOTH",
"144 178 OFFCURVE",
"104 135 OFFCURVE",
"104 82 CURVE SMOOTH",
"104 26 OFFCURVE",
"144 -14 OFFCURVE",
"196 -14 CURVE SMOOTH"
);
}
);
width = 382;
},
{
layerId = master01;
paths = (
{
closed = 1;
nodes = (
"304 -14 OFFCURVE",
"364 52 OFFCURVE",
"364 138 CURVE SMOOTH",
"364 224 OFFCURVE",
"304 290 OFFCURVE",
"210 290 CURVE SMOOTH",
"108 290 OFFCURVE",
"48 224 OFFCURVE",
"48 138 CURVE SMOOTH {name = hr00;}",
"48 52 OFFCURVE",
"108 -14 OFFCURVE",
"210 -14 CURVE SMOOTH"
);
}
);
width = 420;
}
);
unicode = 002E;
},
{
glyphname = comma;
lastChange = "2020-10-27 00:07:49 +0000";
layers = (
{
layerId = "E12CB17E-1EC8-4945-BD17-D29BF6B71E7F";
paths = (
{
closed = 1;
nodes = (
"174 -294 OFFCURVE",
"284 -79 OFFCURVE",
"284 44 CURVE SMOOTH",
"284 136 OFFCURVE",
"248 172 OFFCURVE",
"184 172 CURVE SMOOTH",
"129 172 OFFCURVE",
"94 137 OFFCURVE",
"94 80 CURVE SMOOTH",
"94 26 OFFCURVE",
"136 -11 OFFCURVE",
"202 -11 CURVE",
"200 -100 OFFCURVE",
"119 -251 OFFCURVE",
"75 -312 CURVE",
"132 -344 LINE"
);
}
);
width = 372;
},
{
layerId = master01;
paths = (
{
closed = 1;
nodes = (
"305 -192 OFFCURVE",
"381 -30 OFFCURVE",
"381 98 CURVE SMOOTH",
"381 216 OFFCURVE",
"320 283 OFFCURVE",
"207 283 CURVE SMOOTH",
"104 283 OFFCURVE",
"45 213 OFFCURVE",
"45 130 CURVE SMOOTH {name = hr00;}",
"45 44 OFFCURVE",
"113 5 OFFCURVE",
"183 -4 CURVE",
"167 -68 OFFCURVE",
"121 -130 OFFCURVE",
"65 -198 CURVE",
"201 -302 LINE"
);
}
);
width = 441;
}
);
unicode = 002C;
},
{
glyphname = ellipsis;
lastChange = "2020-10-27 00:07:49 +0000";
layers = (
{
layerId = "E12CB17E-1EC8-4945-BD17-D29BF6B71E7F";
paths = (
{
closed = 1;
nodes = (
"1076 -14 OFFCURVE",
"1118 32 OFFCURVE",
"1118 94 CURVE SMOOTH",
"1118 154 OFFCURVE",
"1076 200 OFFCURVE",
"1022 200 CURVE SMOOTH",
"968 200 OFFCURVE",
"924 154 OFFCURVE",
"924 94 CURVE SMOOTH",
"924 32 OFFCURVE",
"968 -14 OFFCURVE",
"1022 -14 CURVE SMOOTH"
);
},
{
closed = 1;
nodes = (
"250 -14 OFFCURVE",
"292 32 OFFCURVE",
"292 94 CURVE SMOOTH",
"292 154 OFFCURVE",
"250 200 OFFCURVE",
"198 200 CURVE SMOOTH",
"142 200 OFFCURVE",
"98 154 OFFCURVE",
"98 94 CURVE SMOOTH",
"98 32 OFFCURVE",
"142 -14 OFFCURVE",
"198 -14 CURVE SMOOTH"
);
},
{
closed = 1;
nodes = (
"664 -14 OFFCURVE",
"704 32 OFFCURVE",
"704 94 CURVE SMOOTH",
"704 154 OFFCURVE",
"664 200 OFFCURVE",
"610 200 CURVE SMOOTH",
"554 200 OFFCURVE",
"512 154 OFFCURVE",
"512 94 CURVE SMOOTH",
"512 32 OFFCURVE",
"554 -14 OFFCURVE",
"610 -14 CURVE SMOOTH"
);
}
);
width = 1200;
},
{
layerId = master01;
paths = (
{
closed = 1;
nodes = (
"1090 -14 OFFCURVE",
"1164 54 OFFCURVE",
"1164 142 CURVE SMOOTH",
"1164 230 OFFCURVE",
"1090 296 OFFCURVE",
"990 296 CURVE SMOOTH",
"890 296 OFFCURVE",
"814 230 OFFCURVE",
"814 142 CURVE SMOOTH",
"814 54 OFFCURVE",
"890 -14 OFFCURVE",
"990 -14 CURVE SMOOTH"
);
},
{
closed = 1;
nodes = (
"324 -14 OFFCURVE",
"398 54 OFFCURVE",
"398 142 CURVE SMOOTH",
"398 230 OFFCURVE",
"324 296 OFFCURVE",
"224 296 CURVE SMOOTH",
"124 296 OFFCURVE",
"48 230 OFFCURVE",
"48 142 CURVE SMOOTH {name = hr00;}",
"48 54 OFFCURVE",
"124 -14 OFFCURVE",
"224 -14 CURVE SMOOTH"
);
},
{
closed = 1;
nodes = (
"706 -14 OFFCURVE",
"780 54 OFFCURVE",
"780 142 CURVE SMOOTH",
"780 230 OFFCURVE",
"706 296 OFFCURVE",
"608 296 CURVE SMOOTH",
"506 296 OFFCURVE",
"430 230 OFFCURVE",
"430 142 CURVE SMOOTH",
"430 54 OFFCURVE",
"506 -14 OFFCURVE",
"608 -14 CURVE SMOOTH"
);
}
);
width = 1238;
}
);
unicode = 2026;
},
{
glyphname = exclam;
lastChange = "2020-10-27 00:07:49 +0000";
layers = (
{
layerId = "E12CB17E-1EC8-4945-BD17-D29BF6B71E7F";
paths = (
{
closed = 1;
nodes = (
"324 378 LINE",
"352 1642 LINE",
"210 1642 LINE",
"238 378 LINE"
);
},
{
closed = 1;
nodes = (
"333 -14 OFFCURVE",
"371 26 OFFCURVE",
"371 82 CURVE SMOOTH",
"371 135 OFFCURVE",
"333 178 OFFCURVE",
"283 178 CURVE SMOOTH",
"231 178 OFFCURVE",
"191 135 OFFCURVE",
"191 82 CURVE SMOOTH",
"191 26 OFFCURVE",
"231 -14 OFFCURVE",
"283 -14 CURVE SMOOTH"
);
}
);
width = 556;
},
{
layerId = master01;
paths = (
{
closed = 1;
nodes = (
"406 410 LINE {name = hr00;}",
"442 1636 LINE",
"138 1636 LINE",
"174 410 LINE"
);
},
{
closed = 1;
nodes = (
"387 -14 OFFCURVE",
"447 52 OFFCURVE",
"447 138 CURVE SMOOTH",
"447 224 OFFCURVE",
"387 290 OFFCURVE",
"293 290 CURVE SMOOTH",
"191 290 OFFCURVE",
"131 224 OFFCURVE",
"131 138 CURVE SMOOTH {name = hr00;}",
"131 52 OFFCURVE",
"191 -14 OFFCURVE",
"293 -14 CURVE SMOOTH"
);
}
);
width = 594;
}
);
unicode = 0021;
},
{
glyphname = exclamdown;
lastChange = "2020-10-27 00:07:49 +0000";
layers = (
{
layerId = "E12CB17E-1EC8-4945-BD17-D29BF6B71E7F";
paths = (
{
closed = 1;
nodes = (
"211 -536 LINE",
"353 -536 LINE",
"325 728 LINE",
"239 728 LINE"
);
},
{
closed = 1;
nodes = (
"232 1120 OFFCURVE",
"192 1080 OFFCURVE",
"192 1024 CURVE SMOOTH",
"192 971 OFFCURVE",
"232 928 OFFCURVE",
"284 928 CURVE SMOOTH",
"334 928 OFFCURVE",
"372 971 OFFCURVE",
"372 1024 CURVE SMOOTH",
"372 1080 OFFCURVE",
"334 1120 OFFCURVE",
"284 1120 CURVE SMOOTH"
);
}
);
width = 556;
},
{
layerId = master01;
paths = (
{
closed = 1;
nodes = (
"138 -530 LINE",
"442 -530 LINE",
"406 696 LINE {name = hr00;}",
"174 696 LINE"
);
},
{
closed = 1;
nodes = (
"191 1120 OFFCURVE",
"131 1054 OFFCURVE",
"131 968 CURVE SMOOTH {name = hr00;}",
"131 882 OFFCURVE",
"191 816 OFFCURVE",
"293 816 CURVE SMOOTH",
"387 816 OFFCURVE",
"447 882 OFFCURVE",
"447 968 CURVE SMOOTH",
"447 1054 OFFCURVE",
"387 1120 OFFCURVE",
"293 1120 CURVE SMOOTH"
);
}
);
width = 594;
}
);
unicode = 00A1;
},
{
glyphname = exclamdown.case;
lastChange = "2020-10-27 00:07:49 +0000";
layers = (
{
layerId = "E12CB17E-1EC8-4945-BD17-D29BF6B71E7F";
paths = (
{
closed = 1;
nodes = (
"211 0 LINE",
"353 0 LINE",
"325 1264 LINE",
"239 1264 LINE"
);
},
{
closed = 1;
nodes = (
"232 1656 OFFCURVE",
"192 1616 OFFCURVE",
"192 1560 CURVE SMOOTH",
"192 1507 OFFCURVE",
"232 1464 OFFCURVE",
"284 1464 CURVE SMOOTH",
"334 1464 OFFCURVE",
"372 1507 OFFCURVE",
"372 1560 CURVE SMOOTH",
"372 1616 OFFCURVE",
"334 1656 OFFCURVE",
"284 1656 CURVE SMOOTH"
);
}
);
width = 556;
},
{
layerId = master01;
paths = (
{
closed = 1;
nodes = (
"138 0 LINE",
"442 0 LINE",
"406 1226 LINE {name = hr00;}",
"174 1226 LINE"
);
},
{
closed = 1;
nodes = (
"191 1650 OFFCURVE",
"131 1584 OFFCURVE",
"131 1498 CURVE SMOOTH {name = hr00;}",
"131 1412 OFFCURVE",
"191 1346 OFFCURVE",
"293 1346 CURVE SMOOTH",
"387 1346 OFFCURVE",
"447 1412 OFFCURVE",
"447 1498 CURVE SMOOTH",
"447 1584 OFFCURVE",
"387 1650 OFFCURVE",
"293 1650 CURVE SMOOTH"
);
}
);
width = 594;
}
);
},
{
glyphname = question;
lastChange = "2020-10-27 00:07:49 +0000";
layers = (
{
layerId = "E12CB17E-1EC8-4945-BD17-D29BF6B71E7F";
paths = (
{
closed = 1;
nodes = (
"520 416 LINE",
"488 462 OFFCURVE",
"455 548 OFFCURVE",
"455 612 CURVE SMOOTH",
"455 674 OFFCURVE",
"507 763 OFFCURVE",
"604 850 CURVE SMOOTH",
"746 978 OFFCURVE",
"908 1136 OFFCURVE",
"908 1304 CURVE SMOOTH",
"908 1460 OFFCURVE",
"812 1642 OFFCURVE",
"522 1642 CURVE SMOOTH",
"298 1642 OFFCURVE",
"152 1502 OFFCURVE",
"76 1378 CURVE",
"162 1314 LINE",
"204 1388 OFFCURVE",
"312 1540 OFFCURVE",
"520 1540 CURVE SMOOTH",
"760 1540 OFFCURVE",
"791 1394 OFFCURVE",
"791 1294 CURVE SMOOTH",
"791 1166 OFFCURVE",
"667 1045 OFFCURVE",
"536 934 CURVE SMOOTH",
"417 833 OFFCURVE",
"339 718 OFFCURVE",
"339 594 CURVE SMOOTH",
"339 492 OFFCURVE",
"381 400 OFFCURVE",
"420 352 CURVE"
);
},
{
closed = 1;
nodes = (
"540 -14 OFFCURVE",
"574 26 OFFCURVE",
"574 80 CURVE SMOOTH",
"574 134 OFFCURVE",
"540 172 OFFCURVE",
"492 172 CURVE SMOOTH",
"446 172 OFFCURVE",
"408 134 OFFCURVE",
"408 80 CURVE SMOOTH",
"408 26 OFFCURVE",
"446 -14 OFFCURVE",
"492 -14 CURVE SMOOTH"
);
}
);
width = 976;
},
{
layerId = master01;
paths = (
{
closed = 1;
nodes = (
"568 444 LINE",
"551 480 OFFCURVE",
"531 544 OFFCURVE",
"531 584 CURVE SMOOTH",
"531 638 OFFCURVE",
"560 702 OFFCURVE",
"653 777 CURVE SMOOTH",
"804 899 OFFCURVE",
"966 1050 OFFCURVE",
"966 1256 CURVE SMOOTH",
"966 1406 OFFCURVE",
"882 1636 OFFCURVE",
"512 1636 CURVE SMOOTH",
"268 1636 OFFCURVE",
"86 1469 OFFCURVE",
"32 1346 CURVE",
"222 1204 LINE",
"284 1323 OFFCURVE",
"400 1425 OFFCURVE",
"522 1425 CURVE SMOOTH",
"654 1425 OFFCURVE",
"690 1349 OFFCURVE",
"690 1248 CURVE SMOOTH",
"690 1136 OFFCURVE",
"595 1027 OFFCURVE",
"448 914 CURVE SMOOTH",
"329 823 OFFCURVE",
"270 736 OFFCURVE",
"270 616 CURVE SMOOTH",
"270 531 OFFCURVE",
"315 410 OFFCURVE",
"334 366 CURVE"
);
},
{
closed = 1;
nodes = (
"588 -14 OFFCURVE",
"656 48 OFFCURVE",
"656 130 CURVE SMOOTH",
"656 212 OFFCURVE",
"588 270 OFFCURVE",
"494 270 CURVE SMOOTH",
"400 270 OFFCURVE",
"330 212 OFFCURVE",
"330 130 CURVE SMOOTH {name = hr01;}",
"330 48 OFFCURVE",
"400 -14 OFFCURVE",
"494 -14 CURVE SMOOTH"
);
}
);
width = 1014;
}
);
unicode = 003F;
},
{
glyphname = questiondown;
lastChange = "2020-10-27 00:07:49 +0000";
layers = (
{
layerId = "E12CB17E-1EC8-4945-BD17-D29BF6B71E7F";
paths = (
{
closed = 1;
nodes = (
"472 678 LINE",
"504 632 OFFCURVE",
"537 546 OFFCURVE",
"537 482 CURVE SMOOTH",
"537 420 OFFCURVE",
"485 331 OFFCURVE",
"388 244 CURVE SMOOTH",
"246 116 OFFCURVE",
"84 -42 OFFCURVE",
"84 -210 CURVE SMOOTH",
"84 -366 OFFCURVE",
"180 -548 OFFCURVE",
"470 -548 CURVE SMOOTH",
"694 -548 OFFCURVE",
"840 -408 OFFCURVE",
"916 -284 CURVE",
"830 -220 LINE",
"788 -294 OFFCURVE",
"680 -446 OFFCURVE",
"472 -446 CURVE SMOOTH",
"232 -446 OFFCURVE",
"201 -300 OFFCURVE",
"201 -200 CURVE SMOOTH",
"201 -72 OFFCURVE",
"325 49 OFFCURVE",
"456 160 CURVE SMOOTH",
"575 261 OFFCURVE",
"653 376 OFFCURVE",
"653 500 CURVE SMOOTH",
"653 602 OFFCURVE",
"611 694 OFFCURVE",
"572 742 CURVE"
);
},
{
closed = 1;
nodes = (
"452 1108 OFFCURVE",
"418 1068 OFFCURVE",
"418 1014 CURVE SMOOTH",
"418 960 OFFCURVE",
"452 922 OFFCURVE",
"500 922 CURVE SMOOTH",
"546 922 OFFCURVE",
"584 960 OFFCURVE",
"584 1014 CURVE SMOOTH",
"584 1068 OFFCURVE",
"546 1108 OFFCURVE",
"500 1108 CURVE SMOOTH"
);
}
);
width = 976;
},
{
layerId = master01;
paths = (
{
closed = 1;
nodes = (
"430 662 LINE",
"447 626 OFFCURVE",
"467 562 OFFCURVE",
"467 522 CURVE SMOOTH",
"467 468 OFFCURVE",
"438 404 OFFCURVE",
"345 329 CURVE SMOOTH",
"194 207 OFFCURVE",
"32 56 OFFCURVE",
"32 -150 CURVE SMOOTH",
"32 -300 OFFCURVE",
"116 -530 OFFCURVE",
"486 -530 CURVE SMOOTH",
"730 -530 OFFCURVE",
"912 -363 OFFCURVE",
"966 -240 CURVE",
"776 -98 LINE",
"714 -217 OFFCURVE",
"598 -319 OFFCURVE",
"476 -319 CURVE SMOOTH",
"344 -319 OFFCURVE",
"308 -243 OFFCURVE",
"308 -142 CURVE SMOOTH",
"308 -30 OFFCURVE",
"403 79 OFFCURVE",
"550 192 CURVE SMOOTH",
"669 283 OFFCURVE",
"728 370 OFFCURVE",
"728 490 CURVE SMOOTH",
"728 575 OFFCURVE",
"683 696 OFFCURVE",
"664 740 CURVE"
);
},
{
closed = 1;
nodes = (
"410 1120 OFFCURVE",
"342 1058 OFFCURVE",
"342 976 CURVE SMOOTH",
"342 894 OFFCURVE",
"410 836 OFFCURVE",
"504 836 CURVE SMOOTH",
"598 836 OFFCURVE",
"668 894 OFFCURVE",
"668 976 CURVE SMOOTH {name = hr01;}",
"668 1058 OFFCURVE",
"598 1120 OFFCURVE",
"504 1120 CURVE SMOOTH"
);
}
);
width = 1014;
}
);
unicode = 00BF;
},
{
glyphname = questiondown.case;
lastChange = "2020-10-27 00:07:49 +0000";
layers = (
{
layerId = "E12CB17E-1EC8-4945-BD17-D29BF6B71E7F";
paths = (
{
closed = 1;
nodes = (
"472 1200 LINE",
"504 1154 OFFCURVE",
"537 1068 OFFCURVE",
"537 1004 CURVE SMOOTH",
"537 942 OFFCURVE",
"485 853 OFFCURVE",
"388 766 CURVE SMOOTH",
"246 638 OFFCURVE",
"84 480 OFFCURVE",
"84 312 CURVE SMOOTH",
"84 156 OFFCURVE",
"180 -26 OFFCURVE",
"470 -26 CURVE SMOOTH",
"694 -26 OFFCURVE",
"840 114 OFFCURVE",
"916 238 CURVE",
"830 302 LINE",
"788 228 OFFCURVE",
"680 76 OFFCURVE",
"472 76 CURVE SMOOTH",
"232 76 OFFCURVE",
"201 222 OFFCURVE",
"201 322 CURVE SMOOTH",
"201 450 OFFCURVE",
"325 571 OFFCURVE",
"456 682 CURVE SMOOTH",
"575 783 OFFCURVE",
"653 898 OFFCURVE",
"653 1022 CURVE SMOOTH",
"653 1124 OFFCURVE",
"611 1216 OFFCURVE",
"572 1264 CURVE"
);
},
{
closed = 1;
nodes = (
"452 1630 OFFCURVE",
"418 1590 OFFCURVE",
"418 1536 CURVE SMOOTH",
"418 1482 OFFCURVE",
"452 1444 OFFCURVE",
"500 1444 CURVE SMOOTH",
"546 1444 OFFCURVE",
"584 1482 OFFCURVE",
"584 1536 CURVE SMOOTH",
"584 1590 OFFCURVE",
"546 1630 OFFCURVE",
"500 1630 CURVE SMOOTH"
);
}
);
width = 976;
},
{
layerId = master01;
paths = (
{
closed = 1;
nodes = (
"430 1171 LINE",
"447 1135 OFFCURVE",
"467 1071 OFFCURVE",
"467 1031 CURVE SMOOTH",
"467 977 OFFCURVE",
"438 913 OFFCURVE",
"345 838 CURVE SMOOTH",
"194 716 OFFCURVE",
"32 565 OFFCURVE",
"32 359 CURVE SMOOTH",
"32 209 OFFCURVE",
"116 -21 OFFCURVE",
"486 -21 CURVE SMOOTH",
"730 -21 OFFCURVE",
"912 146 OFFCURVE",
"966 269 CURVE",
"776 411 LINE",
"714 292 OFFCURVE",
"598 190 OFFCURVE",
"476 190 CURVE SMOOTH",
"344 190 OFFCURVE",
"308 266 OFFCURVE",
"308 367 CURVE SMOOTH",
"308 479 OFFCURVE",
"403 588 OFFCURVE",
"550 701 CURVE SMOOTH",
"669 792 OFFCURVE",
"728 879 OFFCURVE",
"728 999 CURVE SMOOTH",
"728 1084 OFFCURVE",
"683 1205 OFFCURVE",
"664 1249 CURVE"
);
},
{
closed = 1;
nodes = (
"410 1629 OFFCURVE",
"342 1567 OFFCURVE",
"342 1485 CURVE SMOOTH",
"342 1403 OFFCURVE",
"410 1345 OFFCURVE",
"504 1345 CURVE SMOOTH",
"598 1345 OFFCURVE",
"668 1403 OFFCURVE",
"668 1485 CURVE SMOOTH {name = hr01;}",
"668 1567 OFFCURVE",
"598 1629 OFFCURVE",
"504 1629 CURVE SMOOTH"
);
}
);
width = 1014;
}
);
},
{
glyphname = periodcentered;
lastChange = "2020-10-27 00:07:49 +0000";
layers = (
{
layerId = "E12CB17E-1EC8-4945-BD17-D29BF6B71E7F";
paths = (
{
closed = 1;
nodes = (
"286 442 OFFCURVE",
"324 484 OFFCURVE",
"324 544 CURVE SMOOTH",
"324 600 OFFCURVE",
"286 640 OFFCURVE",
"238 640 CURVE SMOOTH",
"184 640 OFFCURVE",
"144 600 OFFCURVE",
"144 544 CURVE SMOOTH",
"144 484 OFFCURVE",
"184 442 OFFCURVE",
"238 442 CURVE SMOOTH"
);
}
);
width = 462;
},
{
layerId = master01;
paths = (
{
closed = 1;
nodes = (
"344 410 OFFCURVE",
"414 472 OFFCURVE",
"414 560 CURVE SMOOTH",
"414 644 OFFCURVE",
"344 706 OFFCURVE",
"248 706 CURVE SMOOTH",
"148 706 OFFCURVE",
"76 644 OFFCURVE",
"76 560 CURVE SMOOTH {name = hr00;}",
"76 472 OFFCURVE",
"148 410 OFFCURVE",
"248 410 CURVE SMOOTH"
);
}
);
width = 500;
}
);
unicode = 00B7;
},
{
glyphname = bullet;
lastChange = "2020-10-27 00:07:49 +0000";
layers = (
{
layerId = "E12CB17E-1EC8-4945-BD17-D29BF6B71E7F";
paths = (
{
closed = 1;
nodes = (
"448 248 OFFCURVE",
"534 342 OFFCURVE",
"534 468 CURVE SMOOTH",
"534 590 OFFCURVE",
"448 680 OFFCURVE",
"332 680 CURVE SMOOTH",
"214 680 OFFCURVE",
"124 590 OFFCURVE",
"124 468 CURVE SMOOTH",
"124 342 OFFCURVE",
"214 248 OFFCURVE",
"332 248 CURVE SMOOTH"
);
}
);
width = 648;
},
{
layerId = master01;
paths = (
{
closed = 1;
nodes = (
"496 230 OFFCURVE",
"612 342 OFFCURVE",
"612 490 CURVE SMOOTH",
"612 634 OFFCURVE",
"496 742 OFFCURVE",
"340 742 CURVE SMOOTH",
"180 742 OFFCURVE",
"60 634 OFFCURVE",
"60 490 CURVE SMOOTH {name = hr00;}",
"60 342 OFFCURVE",
"180 230 OFFCURVE",
"340 230 CURVE SMOOTH"
);
}
);
width = 686;
}
);
unicode = 2022;
},
{
glyphname = asterisk;
lastChange = "2020-10-27 00:07:49 +0000";
layers = (
{
layerId = "E12CB17E-1EC8-4945-BD17-D29BF6B71E7F";
paths = (
{
closed = 1;
nodes = (
"610 944 LINE",
"902 586 LINE",
"976 650 LINE",
"678 994 LINE",
"1110 1152 LINE",
"1072 1244 LINE",
"652 1080 LINE",
"656 1540 LINE",
"566 1540 LINE",
"570 1080 LINE",
"146 1246 LINE",
"112 1154 LINE",
"540 994 LINE",
"240 650 LINE",
"320 584 LINE"
);
}
);
width = 1204;
},
{
layerId = master01;
paths = (
{
closed = 1;
nodes = (
"608 814 LINE",
"862 498 LINE",
"1050 656 LINE",
"774 950 LINE",
"1168 1100 LINE",
"1092 1298 LINE",
"728 1152 LINE",
"732 1540 LINE",
"484 1540 LINE",
"488 1152 LINE",
"124 1298 LINE",
"48 1100 LINE {name = hr00;}",
"438 952 LINE",
"162 654 LINE",
"354 500 LINE"
);
}
);
width = 1242;
}
);
unicode = 002A;
},
{
glyphname = numbersign;
lastChange = "2020-10-27 00:07:49 +0000";
layers = (
{
layerId = "E12CB17E-1EC8-4945-BD17-D29BF6B71E7F";
paths = (
{
closed = 1;
nodes = (
"396 0 LINE",
"517 490 LINE",
"942 490 LINE",
"822 0 LINE",
"912 0 LINE",
"1030 490 LINE",
"1410 490 LINE",
"1438 598 LINE",
"1056 598 LINE",
"1156 1002 LINE",
"1524 1002 LINE",
"1550 1108 LINE",
"1182 1108 LINE",
"1290 1540 LINE",
"1200 1540 LINE",
"1094 1108 LINE",
"668 1108 LINE",
"778 1540 LINE",
"688 1540 LINE",
"580 1108 LINE",
"230 1108 LINE",
"202 1002 LINE",
"554 1002 LINE",
"456 598 LINE",
"116 598 LINE",
"90 490 LINE",
"429 490 LINE",
"306 0 LINE"
);
},
{
closed = 1;
nodes = (
"642 1002 LINE",
"1068 1002 LINE",
"968 598 LINE",
"544 598 LINE"
);
}
);
width = 1618;
},
{
layerId = master01;
paths = (
{
closed = 1;
nodes = (
"480 0 LINE",
"592 456 LINE",
"834 456 LINE",
"724 0 LINE",
"976 0 LINE",
"1090 456 LINE",
"1402 456 LINE",
"1450 666 LINE",
"1138 666 LINE",
"1206 930 LINE",
"1506 930 LINE",
"1554 1140 LINE",
"1256 1140 LINE",
"1354 1540 LINE",
"1100 1540 LINE",
"1000 1140 LINE",
"758 1140 LINE",
"858 1540 LINE",
"604 1540 LINE",
"504 1140 LINE",
"188 1140 LINE",
"140 930 LINE {name = hr00;}",
"454 930 LINE",
"386 666 LINE",
"82 666 LINE",
"34 456 LINE",
"338 456 LINE",
"226 0 LINE"
);
},
{
closed = 1;
nodes = (
"710 930 LINE",
"950 930 LINE",
"884 666 LINE",
"642 666 LINE"
);
}
);
width = 1656;
}
);
unicode = 0023;
},
{
glyphname = slash;
lastChange = "2020-10-27 00:07:49 +0000";
layers = (
{
layerId = "E12CB17E-1EC8-4945-BD17-D29BF6B71E7F";
paths = (
{
closed = 1;
nodes = (
"166 0 LINE",
"628 1540 LINE",
"520 1540 LINE",
"58 0 LINE"
);
}
);
width = 676;
},
{
layerId = master01;
paths = (
{
closed = 1;
nodes = (
"256 0 LINE",
"718 1540 LINE",
"444 1540 LINE {name = hr00;}",
"-18 0 LINE"
);
}
);
width = 714;
}
);
unicode = 002F;
},
{
glyphname = backslash;
lastChange = "2020-10-27 00:07:49 +0000";
layers = (
{
layerId = "E12CB17E-1EC8-4945-BD17-D29BF6B71E7F";
paths = (
{
closed = 1;
nodes = (
"638 0 LINE",
"176 1540 LINE",
"68 1540 LINE",
"530 0 LINE"
);
}
);
width = 696;
},
{
layerId = master01;
paths = (
{
closed = 1;
nodes = (
"728 0 LINE",
"266 1540 LINE",
"-8 1540 LINE {name = hr00;}",
"452 0 LINE"
);
}
);
width = 734;
}
);
unicode = 005C;
},
{
glyphname = parenleft;
lastChange = "2020-10-27 00:07:49 +0000";
layers = (
{
layerId = "E12CB17E-1EC8-4945-BD17-D29BF6B71E7F";
paths = (
{
closed = 1;
nodes = (
"588 -432 LINE",
"406 -304 OFFCURVE",
"244 102 OFFCURVE",
"244 552 CURVE SMOOTH",
"244 1008 OFFCURVE",
"390 1426 OFFCURVE",
"590 1538 CURVE",
"550 1636 LINE",
"336 1520 OFFCURVE",
"134 1062 OFFCURVE",
"134 552 CURVE SMOOTH",
"134 38 OFFCURVE",
"330 -406 OFFCURVE",
"548 -530 CURVE"
);
}
);
width = 644;
},
{
layerId = master01;
paths = (
{
closed = 1;
nodes = (
"658 -306 LINE",
"494 -220 OFFCURVE",
"344 34 OFFCURVE",
"344 550 CURVE SMOOTH",
"344 1072 OFFCURVE",
"494 1320 OFFCURVE",
"658 1410 CURVE",
"602 1606 LINE {name = hr00;}",
"340 1538 OFFCURVE",
"70 1166 OFFCURVE",
"70 550 CURVE SMOOTH",
"70 -64 OFFCURVE",
"338 -426 OFFCURVE",
"602 -504 CURVE"
);
}
);
width = 682;
}
);
unicode = 0028;
},
{
glyphname = parenright;
lastChange = "2020-10-27 00:07:49 +0000";
layers = (
{
layerId = "E12CB17E-1EC8-4945-BD17-D29BF6B71E7F";
paths = (
{
closed = 1;
nodes = (
"324 -406 OFFCURVE",
"520 38 OFFCURVE",
"520 552 CURVE SMOOTH",
"520 1062 OFFCURVE",
"318 1520 OFFCURVE",
"104 1636 CURVE",
"64 1538 LINE",
"264 1426 OFFCURVE",
"410 1008 OFFCURVE",
"410 552 CURVE SMOOTH",
"410 102 OFFCURVE",
"248 -304 OFFCURVE",
"66 -432 CURVE",
"106 -530 LINE"
);
}
);
width = 644;
},
{
layerId = master01;
paths = (
{
closed = 1;
nodes = (
"331 -426 OFFCURVE",
"599 -64 OFFCURVE",
"599 550 CURVE SMOOTH",
"599 1166 OFFCURVE",
"329 1538 OFFCURVE",
"67 1606 CURVE {name = hr00;}",
"11 1410 LINE",
"175 1320 OFFCURVE",
"325 1072 OFFCURVE",
"325 550 CURVE SMOOTH",
"325 34 OFFCURVE",
"175 -220 OFFCURVE",
"11 -306 CURVE",
"67 -504 LINE"
);
}
);
width = 682;
}
);
unicode = 0029;
},
{
glyphname = braceleft;
lastChange = "2020-10-27 00:07:49 +0000";
layers = (
{
layerId = "E12CB17E-1EC8-4945-BD17-D29BF6B71E7F";
paths = (
{
closed = 1;
nodes = (
"628 -546 OFFCURVE",
"718 -515 OFFCURVE",
"766 -492 CURVE",
"722 -390 LINE",
"680 -412 OFFCURVE",
"618 -424 OFFCURVE",
"563 -424 CURVE SMOOTH",
"495 -424 OFFCURVE",
"480 -348 OFFCURVE",
"480 -254 CURVE SMOOTH",
"480 360 LINE SMOOTH",
"480 458 OFFCURVE",
"434 518 OFFCURVE",
"332 558 CURVE",
"434 598 OFFCURVE",
"480 662 OFFCURVE",
"480 758 CURVE SMOOTH",
"480 1372 LINE SMOOTH",
"480 1466 OFFCURVE",
"492 1542 OFFCURVE",
"560 1542 CURVE SMOOTH",
"614 1542 OFFCURVE",
"684 1523 OFFCURVE",
"722 1508 CURVE",
"766 1610 LINE",
"732 1628 OFFCURVE",
"650 1664 OFFCURVE",
"560 1664 CURVE SMOOTH",
"398 1664 OFFCURVE",
"370 1540 OFFCURVE",
"370 1402 CURVE SMOOTH",
"370 750 LINE SMOOTH",
"370 677 OFFCURVE",
"298 594 OFFCURVE",
"172 594 CURVE",
"172 524 LINE",
"299 524 OFFCURVE",
"370 436 OFFCURVE",
"370 368 CURVE SMOOTH",
"370 -284 LINE SMOOTH",
"370 -424 OFFCURVE",
"398 -546 OFFCURVE",
"560 -546 CURVE SMOOTH"
);
}
);
width = 908;
},
{
layerId = master01;
paths = (
{
closed = 1;
nodes = (
"666 -512 OFFCURVE",
"784 -473 OFFCURVE",
"840 -444 CURVE",
"754 -208 LINE",
"754 -209 OFFCURVE",
"678 -278 OFFCURVE",
"623 -278 CURVE SMOOTH",
"592 -278 OFFCURVE",
"568 -256 OFFCURVE",
"568 -188 CURVE SMOOTH",
"568 364 LINE SMOOTH",
"568 486 OFFCURVE",
"466 554 OFFCURVE",
"366 572 CURVE",
"467 590 OFFCURVE",
"568 652 OFFCURVE",
"568 774 CURVE SMOOTH",
"568 1322 LINE SMOOTH",
"568 1391 OFFCURVE",
"593 1414 OFFCURVE",
"624 1414 CURVE SMOOTH",
"660 1414 OFFCURVE",
"723 1368 OFFCURVE",
"754 1344 CURVE",
"840 1570 LINE",
"784 1608 OFFCURVE",
"666 1648 OFFCURVE",
"556 1648 CURVE SMOOTH {name = hr00;}",
"332 1648 OFFCURVE",
"294 1432 OFFCURVE",
"294 1322 CURVE SMOOTH",
"294 776 LINE SMOOTH",
"294 712 OFFCURVE",
"246 654 OFFCURVE",
"110 654 CURVE",
"110 486 LINE",
"244 486 OFFCURVE",
"294 427 OFFCURVE",
"294 362 CURVE SMOOTH",
"294 -188 LINE SMOOTH",
"294 -296 OFFCURVE",
"332 -512 OFFCURVE",
"556 -512 CURVE SMOOTH {name = hr00;}"
);
}
);
width = 946;
}
);
unicode = 007B;
},
{
glyphname = braceright;
lastChange = "2020-10-27 00:07:49 +0000";
layers = (
{
layerId = "E12CB17E-1EC8-4945-BD17-D29BF6B71E7F";
paths = (
{
closed = 1;
nodes = (
"520 -546 OFFCURVE",
"548 -424 OFFCURVE",
"548 -284 CURVE SMOOTH",
"548 368 LINE SMOOTH",
"548 436 OFFCURVE",
"619 524 OFFCURVE",
"746 524 CURVE",
"746 594 LINE",
"620 594 OFFCURVE",
"548 677 OFFCURVE",
"548 750 CURVE SMOOTH",
"548 1402 LINE SMOOTH",
"548 1540 OFFCURVE",
"520 1664 OFFCURVE",
"358 1664 CURVE SMOOTH",
"268 1664 OFFCURVE",
"186 1628 OFFCURVE",
"152 1610 CURVE",
"196 1508 LINE",
"234 1523 OFFCURVE",
"304 1542 OFFCURVE",
"358 1542 CURVE SMOOTH",
"426 1542 OFFCURVE",
"438 1466 OFFCURVE",
"438 1372 CURVE SMOOTH",
"438 758 LINE SMOOTH",
"438 662 OFFCURVE",
"484 598 OFFCURVE",
"586 558 CURVE",
"484 518 OFFCURVE",
"438 458 OFFCURVE",
"438 360 CURVE SMOOTH",
"438 -254 LINE SMOOTH",
"438 -348 OFFCURVE",
"423 -424 OFFCURVE",
"355 -424 CURVE SMOOTH",
"300 -424 OFFCURVE",
"238 -412 OFFCURVE",
"196 -390 CURVE",
"152 -492 LINE",
"200 -515 OFFCURVE",
"290 -546 OFFCURVE",
"358 -546 CURVE SMOOTH"
);
}
);
width = 908;
},
{
layerId = master01;
paths = (
{
closed = 1;
nodes = (
"598 -512 OFFCURVE",
"636 -296 OFFCURVE",
"636 -188 CURVE SMOOTH",
"636 362 LINE SMOOTH",
"636 427 OFFCURVE",
"686 486 OFFCURVE",
"820 486 CURVE",
"820 654 LINE",
"684 654 OFFCURVE",
"636 712 OFFCURVE",
"636 776 CURVE SMOOTH",
"636 1322 LINE SMOOTH",
"636 1432 OFFCURVE",
"598 1648 OFFCURVE",
"374 1648 CURVE SMOOTH {name = hr00;}",
"264 1648 OFFCURVE",
"146 1608 OFFCURVE",
"90 1570 CURVE",
"176 1344 LINE",
"207 1368 OFFCURVE",
"270 1414 OFFCURVE",
"306 1414 CURVE SMOOTH",
"337 1414 OFFCURVE",
"362 1391 OFFCURVE",
"362 1322 CURVE SMOOTH",
"362 774 LINE SMOOTH",
"362 652 OFFCURVE",
"463 590 OFFCURVE",
"564 572 CURVE",
"464 554 OFFCURVE",
"362 486 OFFCURVE",
"362 364 CURVE SMOOTH",
"362 -188 LINE SMOOTH",
"362 -256 OFFCURVE",
"338 -278 OFFCURVE",
"307 -278 CURVE SMOOTH",
"252 -278 OFFCURVE",
"176 -209 OFFCURVE",
"176 -208 CURVE",
"90 -444 LINE",
"146 -473 OFFCURVE",
"264 -512 OFFCURVE",
"374 -512 CURVE SMOOTH {name = hr00;}"
);
}
);
width = 946;
}
);
unicode = 007D;
},
{
glyphname = bracketleft;
lastChange = "2020-10-27 00:07:49 +0000";
layers = (
{
layerId = "E12CB17E-1EC8-4945-BD17-D29BF6B71E7F";
paths = (
{
closed = 1;
nodes = (
"542 -534 LINE",
"542 -452 LINE",
"296 -452 LINE",
"296 1458 LINE",
"542 1458 LINE",
"542 1540 LINE",
"184 1540 LINE",
"184 -534 LINE"
);
}
);
width = 686;
},
{
layerId = master01;
paths = (
{
closed = 1;
nodes = (
"620 -496 LINE {name = hr01;}",
"620 -308 LINE",
"392 -308 LINE {name = hr02;}",
"392 1354 LINE",
"620 1354 LINE {name = hr03;}",
"620 1540 LINE",
"118 1540 LINE",
"118 -496 LINE"
);
}
);
width = 724;
}
);
unicode = 005B;
},
{
glyphname = bracketright;
lastChange = "2020-10-27 00:07:49 +0000";
layers = (
{
layerId = "E12CB17E-1EC8-4945-BD17-D29BF6B71E7F";
paths = (
{
closed = 1;
nodes = (
"512 -534 LINE",
"512 1540 LINE",
"154 1540 LINE",
"154 1458 LINE",
"400 1458 LINE",
"400 -452 LINE",
"154 -452 LINE",
"154 -534 LINE"
);
}
);
width = 686;
},
{
layerId = master01;
paths = (
{
closed = 1;
nodes = (
"592 -496 LINE",
"592 1540 LINE",
"88 1540 LINE",
"88 1354 LINE",
"318 1354 LINE {name = hr01;}",
"318 -308 LINE",
"88 -308 LINE {name = hr02;}",
"88 -496 LINE"
);
}
);
width = 724;
}
);
unicode = 005D;
},
{
glyphname = hyphen;
lastChange = "2020-10-27 00:07:49 +0000";
layers = (
{
layerId = "E12CB17E-1EC8-4945-BD17-D29BF6B71E7F";
paths = (
{
closed = 1;
nodes = (
"546 492 LINE",
"546 596 LINE",
"124 596 LINE",
"124 492 LINE"
);
}
);
width = 660;
},
{
layerId = master01;
paths = (
{
closed = 1;
nodes = (
"624 458 LINE",
"624 664 LINE {name = hr00;}",
"60 664 LINE",
"60 458 LINE"
);
}
);
width = 698;
}
);
unicode = 002D;
},
{
glyphname = endash;
lastChange = "2020-10-27 00:07:49 +0000";
layers = (
{
layerId = "E12CB17E-1EC8-4945-BD17-D29BF6B71E7F";
paths = (
{
closed = 1;
nodes = (
"1188 498 LINE",
"1188 592 LINE",
"118 592 LINE",
"118 498 LINE"
);
}
);
width = 1290;
},
{
layerId = master01;
paths = (
{
closed = 1;
nodes = (
"1232 464 LINE",
"1232 660 LINE {name = hr00;}",
"68 660 LINE",
"68 464 LINE"
);
}
);
width = 1328;
}
);
unicode = 2013;
},
{
glyphname = emdash;
lastChange = "2020-10-27 00:07:49 +0000";
layers = (
{
layerId = "E12CB17E-1EC8-4945-BD17-D29BF6B71E7F";
paths = (
{
closed = 1;
nodes = (
"1454 498 LINE",
"1454 592 LINE",
"118 592 LINE",
"118 498 LINE"
);
}
);
width = 1550;
},
{
layerId = master01;
paths = (
{
closed = 1;
nodes = (
"1482 464 LINE",
"1482 660 LINE {name = hr00;}",
"70 660 LINE",
"70 464 LINE"
);
}
);
width = 1588;
}
);
unicode = 2014;
},
{
glyphname = underscore;
lastChange = "2020-10-27 00:07:49 +0000";
layers = (
{
layerId = "E12CB17E-1EC8-4945-BD17-D29BF6B71E7F";
paths = (
{
closed = 1;
nodes = (
"1188 -132 LINE",
"1188 -42 LINE",
"118 -42 LINE",
"118 -132 LINE"
);
}
);
width = 1290;
},
{
layerId = master01;
paths = (
{
closed = 1;
nodes = (
"1232 -196 LINE",
"1232 -2 LINE {name = hr00;}",
"68 -2 LINE",
"68 -196 LINE"
);
}
);
width = 1328;
}
);
unicode = 005F;
},
{
glyphname = quoteleft;
lastChange = "2020-10-27 00:07:49 +0000";
layers = (
{
layerId = "E12CB17E-1EC8-4945-BD17-D29BF6B71E7F";
paths = (
{
closed = 1;
nodes = (
"188 1509 OFFCURVE",
"98 1354 OFFCURVE",
"98 1231 CURVE SMOOTH",
"98 1139 OFFCURVE",
"134 1103 OFFCURVE",
"198 1103 CURVE SMOOTH",
"253 1103 OFFCURVE",
"288 1138 OFFCURVE",
"288 1195 CURVE SMOOTH",
"288 1249 OFFCURVE",
"246 1286 OFFCURVE",
"180 1286 CURVE",
"182 1375 OFFCURVE",
"243 1466 OFFCURVE",
"287 1527 CURVE",
"230 1559 LINE"
);
}
);
width = 382;
},
{
layerId = master01;
paths = (
{
closed = 1;
nodes = (
"116 1448 OFFCURVE",
"40 1286 OFFCURVE",
"40 1158 CURVE SMOOTH",
"40 1040 OFFCURVE",
"101 973 OFFCURVE",
"214 973 CURVE SMOOTH",
"317 973 OFFCURVE",
"376 1043 OFFCURVE",
"376 1126 CURVE SMOOTH {name = hr00;}",
"376 1212 OFFCURVE",
"308 1251 OFFCURVE",
"238 1260 CURVE",
"254 1324 OFFCURVE",
"300 1386 OFFCURVE",
"356 1454 CURVE",
"220 1558 LINE"
);
}
);
width = 420;
}
);
leftKerningGroup = quote;
leftMetricsKey = quoteright;
rightKerningGroup = quote;
rightMetricsKey = quoteright;
unicode = 2018;
},
{
glyphname = quoteright;
lastChange = "2020-10-27 00:07:49 +0000";
layers = (
{
layerId = "E12CB17E-1EC8-4945-BD17-D29BF6B71E7F";
paths = (
{
closed = 1;
nodes = (
"198 1132 OFFCURVE",
"288 1287 OFFCURVE",
"288 1410 CURVE SMOOTH",
"288 1502 OFFCURVE",
"252 1538 OFFCURVE",
"188 1538 CURVE SMOOTH",
"133 1538 OFFCURVE",
"98 1503 OFFCURVE",
"98 1446 CURVE SMOOTH",
"98 1392 OFFCURVE",
"140 1355 OFFCURVE",
"206 1355 CURVE",
"204 1266 OFFCURVE",
"143 1175 OFFCURVE",
"99 1114 CURVE",
"156 1082 LINE"
);
}
);
width = 382;
},
{
layerId = master01;
paths = (
{
closed = 1;
nodes = (
"300 1063 OFFCURVE",
"376 1225 OFFCURVE",
"376 1353 CURVE SMOOTH",
"376 1471 OFFCURVE",
"315 1538 OFFCURVE",
"202 1538 CURVE SMOOTH",
"99 1538 OFFCURVE",
"40 1468 OFFCURVE",
"40 1385 CURVE SMOOTH {name = hr00;}",
"40 1299 OFFCURVE",
"108 1260 OFFCURVE",
"178 1251 CURVE",
"162 1187 OFFCURVE",
"116 1125 OFFCURVE",
"60 1057 CURVE",
"196 953 LINE"
);
}
);
width = 420;
}
);
leftKerningGroup = quote;
rightKerningGroup = quote;
unicode = 2019;
},
{
glyphname = quotesingle;
lastChange = "2020-10-27 00:07:49 +0000";
layers = (
{
layerId = "E12CB17E-1EC8-4945-BD17-D29BF6B71E7F";
paths = (
{
closed = 1;
nodes = (
"140 1540 LINE",
"140 1096 LINE",
"221 1096 LINE",
"221 1540 LINE"
);
}
);
width = 382;
},
{
layerId = master01;
paths = (
{
closed = 1;
nodes = (
"67 1540 LINE",
"106 1037 LINE",
"305 1037 LINE",
"345 1540 LINE"
);
}
);
width = 420;
}
);
unicode = 0027;
},
{
glyphname = cent;
lastChange = "2020-10-27 00:07:49 +0000";
layers = (
{
components = (
{
name = c;
}
);
layerId = "E12CB17E-1EC8-4945-BD17-D29BF6B71E7F";
paths = (
{
closed = 1;
nodes = (
"351 -74 LINE",
"744 1238 LINE",
"653 1238 LINE",
"259 -74 LINE"
);
}
);
width = 990;
},
{
components = (
{
name = c;
}
);
layerId = master01;
paths = (
{
closed = 1;
nodes = (
"369 -61 LINE",
"922 1250 LINE",
"728 1250 LINE {name = hr00;}",
"176 -61 LINE"
);
}
);
width = 1053;
}
);
unicode = 00A2;
},
{
glyphname = dollar;
lastChange = "2020-10-27 00:07:49 +0000";
layers = (
{
components = (
{
alignment = -1;
name = S;
transform = "{0.89621, 0, 0, 0.89621, 8, 90}";
}
);
layerId = "E12CB17E-1EC8-4945-BD17-D29BF6B71E7F";
paths = (
{
closed = 1;
nodes = (
"569 -28 LINE",
"569 1563 LINE",
"489 1563 LINE",
"489 -28 LINE"
);
}
);
width = 1061;
},
{
components = (
{
alignment = -1;
name = S;
transform = "{0.89621, 0, 0, 0.89621, 5, 90}";
}
);
layerId = master01;
paths = (
{
closed = 1;
nodes = (
"655 -39 LINE {name = hr00;}",
"655 1577 LINE",
"481 1577 LINE",
"481 -39 LINE"
);
}
);
width = 1096;
}
);
leftMetricsKey = S;
rightMetricsKey = S;
unicode = 0024;
},
{
glyphname = sterling;
lastChange = "2020-10-27 00:07:49 +0000";
layers = (
{
layerId = "E12CB17E-1EC8-4945-BD17-D29BF6B71E7F";
paths = (
{
closed = 1;
nodes = (
"178 36 OFFCURVE",
"236 108 OFFCURVE",
"330 108 CURVE SMOOTH",
"473 108 OFFCURVE",
"628 -24 OFFCURVE",
"784 -24 CURVE SMOOTH",
"906 -24 OFFCURVE",
"1008 54 OFFCURVE",
"1066 119 CURVE",
"990 194 LINE",
"952 148 OFFCURVE",
"866 86 OFFCURVE",
"784 86 CURVE SMOOTH",
"685 86 OFFCURVE",
"514 202 OFFCURVE",
"392 216 CURVE",
"454 546 LINE",
"782 546 LINE",
"782 648 LINE",
"478 648 LINE",
"633 1421 LINE SMOOTH",
"654 1527 OFFCURVE",
"734 1550 OFFCURVE",
"799 1550 CURVE SMOOTH",
"875 1550 OFFCURVE",
"946 1496 OFFCURVE",
"992 1426 CURVE",
"1072 1492 LINE",
"1004 1586 OFFCURVE",
"918 1652 OFFCURVE",
"808 1652 CURVE SMOOTH",
"685 1652 OFFCURVE",
"554 1593 OFFCURVE",
"517 1408 CURVE SMOOTH",
"366 648 LINE",
"194 648 LINE",
"194 546 LINE",
"346 546 LINE",
"284 216 LINE",
"196 188 OFFCURVE",
"100 97 OFFCURVE",
"68 36 CURVE",
"156 -6 LINE"
);
}
);
width = 1150;
},
{
layerId = master01;
paths = (
{
closed = 1;
nodes = (
"246 20 OFFCURVE",
"292 95 OFFCURVE",
"366 95 CURVE SMOOTH {name = hr00;}",
"471 95 OFFCURVE",
"599 -22 OFFCURVE",
"768 -22 CURVE SMOOTH",
"890 -22 OFFCURVE",
"1040 90 OFFCURVE",
"1120 174 CURVE",
"958 326 LINE",
"908 253 OFFCURVE",
"826 190 OFFCURVE",
"758 190 CURVE SMOOTH",
"698 190 OFFCURVE",
"554 255 OFFCURVE",
"496 286 CURVE",
"538 506 LINE",
"850 506 LINE",
"850 712 LINE",
"580 712 LINE",
"697 1322 LINE SMOOTH",
"715 1418 OFFCURVE",
"762 1438 OFFCURVE",
"790 1438 CURVE SMOOTH",
"832 1438 OFFCURVE",
"904 1372 OFFCURVE",
"960 1294 CURVE",
"1138 1438 LINE",
"1020 1560 OFFCURVE",
"938 1644 OFFCURVE",
"790 1644 CURVE SMOOTH",
"653 1644 OFFCURVE",
"473 1585 OFFCURVE",
"426 1338 CURVE SMOOTH",
"306 712 LINE",
"134 712 LINE",
"134 506 LINE",
"266 506 LINE",
"224 290 LINE",
"130 262 OFFCURVE",
"58 152 OFFCURVE",
"32 76 CURVE",
"214 -42 LINE"
);
}
);
width = 1188;
}
);
unicode = 00A3;
},
{
glyphname = yen;
lastChange = "2020-10-27 00:07:49 +0000";
layers = (
{
layerId = "E12CB17E-1EC8-4945-BD17-D29BF6B71E7F";
paths = (
{
closed = 1;
nodes = (
"670 0 LINE",
"670 344 LINE",
"1042 344 LINE",
"1042 442 LINE",
"670 442 LINE",
"670 674 LINE",
"1042 674 LINE",
"1042 770 LINE",
"686 770 LINE",
"1176 1540 LINE",
"1040 1540 LINE",
"612 874 LINE",
"188 1540 LINE",
"42 1540 LINE",
"198 1292 OFFCURVE",
"376 1016 OFFCURVE",
"532 770 CURVE",
"176 770 LINE",
"176 674 LINE",
"552 674 LINE",
"552 442 LINE",
"176 442 LINE",
"176 344 LINE",
"552 344 LINE",
"552 0 LINE"
);
}
);
width = 1202;
},
{
layerId = master01;
paths = (
{
closed = 1;
nodes = (
"748 0 LINE",
"748 320 LINE",
"1094 320 LINE",
"1094 520 LINE {name = hr00;}",
"748 520 LINE",
"748 626 LINE",
"1094 626 LINE",
"1094 826 LINE",
"804 826 LINE",
"1258 1540 LINE",
"950 1540 LINE",
"610 1010 LINE",
"270 1540 LINE",
"-44 1540 LINE",
"90 1324 OFFCURVE",
"270 1048 OFFCURVE",
"412 826 CURVE",
"120 826 LINE",
"120 626 LINE",
"468 626 LINE",
"468 520 LINE",
"120 520 LINE",
"120 320 LINE",
"468 320 LINE",
"468 0 LINE"
);
}
);
width = 1240;
}
);
unicode = 00A5;
},
{
glyphname = plus;
lastChange = "2020-10-27 00:07:49 +0000";
layers = (
{
layerId = "E12CB17E-1EC8-4945-BD17-D29BF6B71E7F";
paths = (
{
closed = 1;
nodes = (
"670 0 LINE",
"670 496 LINE",
"1176 496 LINE",
"1176 594 LINE",
"670 594 LINE",
"670 1088 LINE",
"594 1088 LINE",
"594 594 LINE",
"108 594 LINE",
"108 496 LINE",
"594 496 LINE",
"594 0 LINE"
);
}
);
width = 1268;
},
{
layerId = master01;
paths = (
{
closed = 1;
nodes = (
"750 0 LINE {name = hr00;}",
"750 462 LINE",
"1220 462 LINE",
"1220 662 LINE",
"750 662 LINE",
"750 1120 LINE",
"508 1120 LINE",
"508 662 LINE",
"58 662 LINE",
"58 462 LINE",
"508 462 LINE",
"508 0 LINE"
);
}
);
width = 1306;
}
);
unicode = 002B;
},
{
glyphname = minus;
lastChange = "2020-10-27 00:07:49 +0000";
layers = (
{
layerId = "E12CB17E-1EC8-4945-BD17-D29BF6B71E7F";
paths = (
{
closed = 1;
nodes = (
"1186 496 LINE",
"1186 594 LINE",
"118 594 LINE",
"118 496 LINE"
);
}
);
width = 1288;
},
{
layerId = master01;
paths = (
{
closed = 1;
nodes = (
"1230 462 LINE",
"1230 662 LINE {name = hr00;}",
"68 662 LINE",
"68 462 LINE"
);
}
);
width = 1326;
}
);
unicode = 2212;
},
{
glyphname = equal;
lastChange = "2020-10-27 00:36:25 +0000";
layers = (
{
layerId = "E12CB17E-1EC8-4945-BD17-D29BF6B71E7F";
paths = (
{
closed = 1;
nodes = (
"1188 344 LINE",
"1188 442 LINE",
"118 442 LINE",
"118 344 LINE"
);
},
{
closed = 1;
nodes = (
"1188 674 LINE",
"1188 770 LINE",
"118 770 LINE",
"118 674 LINE"
);
}
);
width = 1290;
},
{
layerId = master01;
paths = (
{
closed = 1;
nodes = (
"1232 320 LINE",
"1232 520 LINE",
"68 520 LINE",
"68 320 LINE"
);
},
{
closed = 1;
nodes = (
"1232 626 LINE",
"1232 826 LINE {name = hr00;}",
"68 826 LINE",
"68 626 LINE"
);
}
);
width = 1328;
}
);
unicode = 003D;
},
{
glyphname = greater;
lastChange = "2020-10-27 00:07:49 +0000";
layers = (
{
layerId = "E12CB17E-1EC8-4945-BD17-D29BF6B71E7F";
paths = (
{
closed = 1;
nodes = (
"1228 490 LINE",
"1228 618 LINE",
"150 1106 LINE",
"150 1006 LINE",
"1158 554 LINE",
"150 102 LINE",
"150 2 LINE"
);
}
);
width = 1368;
},
{
layerId = master01;
paths = (
{
closed = 1;
nodes = (
"1268 484 LINE",
"1268 656 LINE {name = hr00;}",
"96 1186 LINE",
"96 962 LINE",
"1004 570 LINE",
"96 178 LINE",
"96 -46 LINE"
);
}
);
width = 1406;
}
);
unicode = 003E;
},
{
glyphname = less;
lastChange = "2020-10-27 00:07:49 +0000";
layers = (
{
layerId = "E12CB17E-1EC8-4945-BD17-D29BF6B71E7F";
paths = (
{
closed = 1;
nodes = (
"1238 102 LINE",
"238 554 LINE",
"1238 1006 LINE",
"1238 1106 LINE",
"160 618 LINE",
"160 490 LINE",
"1238 2 LINE"
);
}
);
width = 1368;
},
{
layerId = master01;
paths = (
{
closed = 1;
nodes = (
"1278 178 LINE",
"410 570 LINE",
"1278 962 LINE",
"1278 1186 LINE",
"106 656 LINE",
"106 484 LINE {name = hr00;}",
"1278 -46 LINE"
);
}
);
width = 1406;
}
);
unicode = 003C;
},
{
glyphname = asciitilde;
lastChange = "2020-10-27 00:07:49 +0000";
layers = (
{
layerId = "E12CB17E-1EC8-4945-BD17-D29BF6B71E7F";
paths = (
{
closed = 1;
nodes = (
"241 660 OFFCURVE",
"345 683 OFFCURVE",
"421 683 CURVE SMOOTH",
"567 683 OFFCURVE",
"712 612 OFFCURVE",
"876 612 CURVE SMOOTH",
"968 612 OFFCURVE",
"1097 638 OFFCURVE",
"1176 686 CURVE",
"1124 772 LINE",
"1054 737 OFFCURVE",
"948 710 OFFCURVE",
"869 710 CURVE SMOOTH",
"720 710 OFFCURVE",
"550 784 OFFCURVE",
"414 784 CURVE SMOOTH",
"327 784 OFFCURVE",
"188 751 OFFCURVE",
"114 704 CURVE",
"170 622 LINE"
);
}
);
width = 1272;
},
{
layerId = master01;
paths = (
{
closed = 1;
nodes = (
"239 577 OFFCURVE",
"353 633 OFFCURVE",
"435 633 CURVE SMOOTH",
"561 633 OFFCURVE",
"704 568 OFFCURVE",
"858 568 CURVE SMOOTH",
"973 568 OFFCURVE",
"1112 620 OFFCURVE",
"1198 692 CURVE",
"1116 876 LINE",
"1055 831 OFFCURVE",
"936 772 OFFCURVE",
"862 772 CURVE SMOOTH",
"717 772 OFFCURVE",
"570 838 OFFCURVE",
"425 838 CURVE SMOOTH",
"315 838 OFFCURVE",
"139 780 OFFCURVE",
"60 704 CURVE",
"182 524 LINE"
);
}
);
width = 1310;
}
);
unicode = 007E;
},
{
glyphname = asciicircum;
lastChange = "2020-10-27 00:07:49 +0000";
layers = (
{
layerId = "E12CB17E-1EC8-4945-BD17-D29BF6B71E7F";
paths = (
{
closed = 1;
nodes = (
"200 452 LINE",
"646 1454 LINE",
"1090 452 LINE",
"1194 452 LINE",
"698 1540 LINE",
"596 1540 LINE",
"98 452 LINE"
);
}
);
width = 1276;
},
{
layerId = master01;
paths = (
{
closed = 1;
nodes = (
"274 420 LINE",
"642 1224 LINE",
"1010 420 LINE",
"1264 420 LINE",
"754 1540 LINE",
"532 1540 LINE {name = hr00;}",
"22 420 LINE"
);
}
);
width = 1314;
}
);
unicode = 005E;
},
{
glyphname = percent;
lastChange = "2020-10-27 00:07:49 +0000";
layers = (
{
components = (
{
name = ordmasculine;
transform = "{1, 0, 0, 1, 1068, -873}";
},
{
name = ordmasculine;
transform = "{1, 0, 0, 1, 20, 0}";
}
);
layerId = "E12CB17E-1EC8-4945-BD17-D29BF6B71E7F";
paths = (
{
closed = 1;
nodes = (
"416 -96 LINE",
"1580 1630 LINE",
"1466 1630 LINE",
"302 -96 LINE"
);
}
);
width = 1886;
},
{
components = (
{
name = ordmasculine;
transform = "{1, 0, 0, 1, 1068, -873}";
},
{
name = ordmasculine;
transform = "{1, 0, 0, 1, 20, 0}";
}
);
layerId = master01;
paths = (
{
closed = 1;
nodes = (
"516 -90 LINE",
"1668 1624 LINE",
"1422 1624 LINE",
"268 -90 LINE"
);
}
);
width = 1940;
}
);
unicode = 0025;
},
{
glyphname = at;
lastChange = "2020-10-27 00:07:49 +0000";
layers = (
{
layerId = "E12CB17E-1EC8-4945-BD17-D29BF6B71E7F";
paths = (
{
closed = 1;
nodes = (
"1314 -404 OFFCURVE",
"1562 -310 OFFCURVE",
"1758 -120 CURVE",
"1683 -34 LINE",
"1517 -202 OFFCURVE",
"1292 -287 OFFCURVE",
"1028 -287 CURVE SMOOTH",
"568 -287 OFFCURVE",
"236 -4 OFFCURVE",
"236 518 CURVE SMOOTH",
"236 1060 OFFCURVE",
"648 1422 OFFCURVE",
"1118 1422 CURVE SMOOTH",
"1628 1422 OFFCURVE",
"1884 1086 OFFCURVE",
"1884 744 CURVE SMOOTH",
"1884 246 OFFCURVE",
"1433 142 OFFCURVE",
"1376 142 CURVE",
"1582 1076 LINE",
"1474 1096 LINE",
"1440 926 LINE",
"1421 1015 OFFCURVE",
"1323 1148 OFFCURVE",
"1124 1148 CURVE SMOOTH",
"908 1148 OFFCURVE",
"578 952 OFFCURVE",
"578 452 CURVE SMOOTH",
"578 236 OFFCURVE",
"680 40 OFFCURVE",
"914 40 CURVE SMOOTH",
"1086 40 OFFCURVE",
"1206 134 OFFCURVE",
"1292 264 CURVE",
"1266 154 OFFCURVE",
"1263 117 OFFCURVE",
"1263 95 CURVE SMOOTH",
"1263 58 OFFCURVE",
"1290 40 OFFCURVE",
"1374 40 CURVE SMOOTH",
"1522 40 OFFCURVE",
"2006 202 OFFCURVE",
"2006 744 CURVE SMOOTH",
"2006 1152 OFFCURVE",
"1694 1540 OFFCURVE",
"1118 1540 CURVE SMOOTH",
"590 1540 OFFCURVE",
"114 1128 OFFCURVE",
"114 516 CURVE SMOOTH",
"114 -74 OFFCURVE",
"500 -404 OFFCURVE",
"1028 -404 CURVE SMOOTH"
);
},
{
closed = 1;
nodes = (
"775 143 OFFCURVE",
"694 291 OFFCURVE",
"694 456 CURVE SMOOTH",
"694 900 OFFCURVE",
"958 1047 OFFCURVE",
"1130 1047 CURVE SMOOTH",
"1332 1047 OFFCURVE",
"1369 894 OFFCURVE",
"1399 766 CURVE",
"1337 469 LINE",
"1286 382 OFFCURVE",
"1134 143 OFFCURVE",
"915 143 CURVE SMOOTH"
);
}
);
width = 2092;
},
{
layerId = master01;
paths = (
{
closed = 1;
nodes = (
"1202 -376 OFFCURVE",
"1568 -324 OFFCURVE",
"1766 -138 CURVE",
"1616 40 LINE",
"1424 -112 OFFCURVE",
"1194 -151 OFFCURVE",
"964 -151 CURVE SMOOTH",
"634 -151 OFFCURVE",
"344 46 OFFCURVE",
"344 474 CURVE SMOOTH",
"344 1034 OFFCURVE",
"704 1316 OFFCURVE",
"1144 1316 CURVE SMOOTH",
"1504 1316 OFFCURVE",
"1748 1130 OFFCURVE",
"1748 758 CURVE SMOOTH",
"1748 376 OFFCURVE",
"1502 289 OFFCURVE",
"1430 273 CURVE",
"1569 1068 LINE",
"1312 1100 LINE",
"1294 992 LINE",
"1284 1052 OFFCURVE",
"1169 1150 OFFCURVE",
"1039 1150 CURVE SMOOTH",
"805 1150 OFFCURVE",
"516 911 OFFCURVE",
"516 488 CURVE SMOOTH",
"516 206 OFFCURVE",
"638 36 OFFCURVE",
"862 36 CURVE SMOOTH {name = hr00;}",
"1016 36 OFFCURVE",
"1144 114 OFFCURVE",
"1185 216 CURVE",
"1178 181 OFFCURVE",
"1177 161 OFFCURVE",
"1177 121 CURVE SMOOTH",
"1177 62 OFFCURVE",
"1226 36 OFFCURVE",
"1322 36 CURVE SMOOTH",
"1478 36 OFFCURVE",
"2016 180 OFFCURVE",
"2016 760 CURVE SMOOTH",
"2016 1246 OFFCURVE",
"1676 1540 OFFCURVE",
"1144 1540 CURVE SMOOTH",
"560 1540 OFFCURVE",
"76 1156 OFFCURVE",
"76 474 CURVE SMOOTH",
"76 -100 OFFCURVE",
"500 -376 OFFCURVE",
"954 -376 CURVE SMOOTH"
);
},
{
closed = 1;
nodes = (
"820 234 OFFCURVE",
"784 314 OFFCURVE",
"784 488 CURVE SMOOTH",
"784 768 OFFCURVE",
"908 954 OFFCURVE",
"1036 954 CURVE SMOOTH",
"1133 954 OFFCURVE",
"1232 881 OFFCURVE",
"1259 777 CURVE",
"1200 440 LINE",
"1148 366 OFFCURVE",
"1019 234 OFFCURVE",
"906 234 CURVE SMOOTH"
);
}
);
width = 2130;
}
);
unicode = 0040;
},
{
glyphname = ampersand;
lastChange = "2020-10-27 00:07:49 +0000";
layers = (
{
layerId = "E12CB17E-1EC8-4945-BD17-D29BF6B71E7F";
paths = (
{
closed = 1;
nodes = (
"1499 -13 OFFCURVE",
"1547 18 OFFCURVE",
"1618 170 CURVE",
"1546 214 LINE",
"1505 134 OFFCURVE",
"1467 100 OFFCURVE",
"1423 100 CURVE SMOOTH",
"1357 100 OFFCURVE",
"1238 206 OFFCURVE",
"1135 307 CURVE",
"1200 393 OFFCURVE",
"1261 523 OFFCURVE",
"1328 718 CURVE",
"1234 760 LINE",
"1179 590 OFFCURVE",
"1112 456 OFFCURVE",
"1060 385 CURVE",
"928 521 OFFCURVE",
"750 715 OFFCURVE",
"648 829 CURVE",
"824 930 OFFCURVE",
"1002 1066 OFFCURVE",
"1002 1244 CURVE SMOOTH",
"1002 1435 OFFCURVE",
"838 1550 OFFCURVE",
"646 1550 CURVE SMOOTH",
"456 1550 OFFCURVE",
"262 1444 OFFCURVE",
"262 1234 CURVE SMOOTH",
"262 1096 OFFCURVE",
"350 989 OFFCURVE",
"480 845 CURVE",
"280 752 OFFCURVE",
"100 602 OFFCURVE",
"100 390 CURVE SMOOTH",
"100 104 OFFCURVE",
"343 -12 OFFCURVE",
"581 -12 CURVE SMOOTH",
"799 -12 OFFCURVE",
"954 76 OFFCURVE",
"1074 214 CURVE",
"1213 79 OFFCURVE",
"1332 -13 OFFCURVE",
"1421 -13 CURVE SMOOTH"
);
},
{
closed = 1;
nodes = (
"372 100 OFFCURVE",
"222 182 OFFCURVE",
"222 378 CURVE SMOOTH",
"222 568 OFFCURVE",
"334 666 OFFCURVE",
"544 772 CURVE",
"725 571 OFFCURVE",
"869 417 OFFCURVE",
"993 296 CURVE",
"919 202 OFFCURVE",
"768 100 OFFCURVE",
"584 100 CURVE SMOOTH"
);
},
{
closed = 1;
nodes = (
"452 1032 OFFCURVE",
"376 1136 OFFCURVE",
"376 1234 CURVE SMOOTH",
"376 1392 OFFCURVE",
"520 1464 OFFCURVE",
"646 1464 CURVE SMOOTH",
"774 1464 OFFCURVE",
"892 1382 OFFCURVE",
"892 1234 CURVE SMOOTH",
"892 1090 OFFCURVE",
"738 982 OFFCURVE",
"580 898 CURVE"
);
}
);
width = 1688;
},
{
layerId = master01;
paths = (
{
closed = 1;
nodes = (
"1485 -15 OFFCURVE",
"1582 25 OFFCURVE",
"1672 230 CURVE",
"1464 348 LINE",
"1425 260 OFFCURVE",
"1395 228 OFFCURVE",
"1370 228 CURVE SMOOTH",
"1349 228 OFFCURVE",
"1301 273 OFFCURVE",
"1226 344 CURVE",
"1280 430 OFFCURVE",
"1327 515 OFFCURVE",
"1414 714 CURVE",
"1196 822 LINE",
"1157 719 OFFCURVE",
"1088 588 OFFCURVE",
"1050 526 CURVE",
"942 638 OFFCURVE",
"866 720 OFFCURVE",
"784 812 CURVE",
"962 912 OFFCURVE",
"1128 1032 OFFCURVE",
"1128 1200 CURVE SMOOTH",
"1128 1464 OFFCURVE",
"902 1555 OFFCURVE",
"684 1555 CURVE SMOOTH",
"468 1555 OFFCURVE",
"224 1456 OFFCURVE",
"224 1192 CURVE SMOOTH {name = hr01;}",
"224 1082 OFFCURVE",
"298 970 OFFCURVE",
"404 848 CURVE",
"228 746 OFFCURVE",
"72 618 OFFCURVE",
"72 418 CURVE SMOOTH",
"72 82 OFFCURVE",
"368 -14 OFFCURVE",
"588 -14 CURVE SMOOTH",
"800 -14 OFFCURVE",
"972 54 OFFCURVE",
"1080 154 CURVE",
"1190 59 OFFCURVE",
"1297 -15 OFFCURVE",
"1403 -15 CURVE SMOOTH"
);
},
{
closed = 1;
nodes = (
"506 209 OFFCURVE",
"356 252 OFFCURVE",
"356 418 CURVE SMOOTH",
"356 540 OFFCURVE",
"442 624 OFFCURVE",
"554 690 CURVE",
"660 574 OFFCURVE",
"793 435 OFFCURVE",
"904 324 CURVE",
"830 258 OFFCURVE",
"723 209 OFFCURVE",
"608 209 CURVE SMOOTH"
);
},
{
closed = 1;
nodes = (
"552 1064 OFFCURVE",
"498 1134 OFFCURVE",
"498 1212 CURVE SMOOTH {name = hr03;}",
"498 1314 OFFCURVE",
"596 1350 OFFCURVE",
"684 1350 CURVE SMOOTH",
"770 1350 OFFCURVE",
"864 1312 OFFCURVE",
"864 1210 CURVE SMOOTH",
"864 1100 OFFCURVE",
"760 1034 OFFCURVE",
"636 970 CURVE"
);
}
);
width = 1778;
}
);
unicode = 0026;
},
{
glyphname = paragraph;
lastChange = "2020-10-27 00:07:49 +0000";
layers = (
{
layerId = "E12CB17E-1EC8-4945-BD17-D29BF6B71E7F";
paths = (
{
closed = 1;
nodes = (
"874 -514 LINE",
"874 1464 LINE",
"1078 1464 LINE",
"1078 -514 LINE",
"1132 -514 LINE",
"1132 1464 LINE",
"1286 1464 LINE",
"1286 1540 LINE",
"634 1540 LINE SMOOTH",
"320 1540 OFFCURVE",
"108 1298 OFFCURVE",
"108 1002 CURVE SMOOTH",
"108 682 OFFCURVE",
"282 466 OFFCURVE",
"490 466 CURVE SMOOTH",
"592 466 OFFCURVE",
"738 544 OFFCURVE",
"818 602 CURVE",
"818 -514 LINE"
);
}
);
width = 1436;
},
{
layerId = master01;
paths = (
{
closed = 1;
nodes = (
"902 -476 LINE {name = hr00;}",
"902 1358 LINE",
"1058 1358 LINE",
"1058 -476 LINE",
"1282 -476 LINE",
"1282 1358 LINE",
"1424 1358 LINE",
"1424 1540 LINE",
"592 1540 LINE SMOOTH",
"250 1540 OFFCURVE",
"18 1288 OFFCURVE",
"18 986 CURVE SMOOTH",
"18 656 OFFCURVE",
"220 432 OFFCURVE",
"458 432 CURVE SMOOTH",
"544 432 OFFCURVE",
"620 460 OFFCURVE",
"678 486 CURVE",
"678 -476 LINE"
);
}
);
width = 1474;
}
);
unicode = 00B6;
},
